<svg width="106" height="25" viewBox="0 0 106 25" fill="none" xmlns="http://www.w3.org/2000/svg">
<path fill-rule="evenodd" clip-rule="evenodd" d="M105.938 0C100.415 0 95.9375 4.40609 95.9375 9.84127V13.631C95.9375 16.0273 97.3132 17.7629 99.4911 18.8345C99.4911 18.8345 100.604 19.5013 100.938 20.0013C101.271 19.5013 102.384 18.8345 102.384 18.8345C104.562 17.7629 105.938 16.0273 105.938 13.631V0ZM100.938 7.73535C101.234 7.73535 101.473 8.10619 101.473 8.40206V15.9248L102.938 14.7358C103.145 14.5246 103.56 14.362 103.771 14.5691C103.983 14.7763 103.67 15.2151 103.463 15.4263L100.938 18.0012L98.4122 15.4263C98.205 15.2151 97.8931 14.7763 98.1043 14.5691C98.3155 14.362 98.7305 14.5246 98.9377 14.7358L100.402 15.9248L100.438 8.40206C100.438 8.10619 100.642 7.73535 100.938 7.73535Z" fill="url(#paint0_linear)"/>
<path d="M13.3729 22.757C14.3315 22.757 15.1085 23.5285 15.1085 24.4801V24.4801C15.1085 24.6705 14.9531 24.8248 14.7614 24.8248H0.490281C0.219507 24.8248 0 24.6068 0 24.338V23.3466C0 23.2371 0.0371908 23.1308 0.105562 23.0449L11.6844 8.49299H1.97681C1.00202 8.49299 0.211802 7.70844 0.211802 6.74065V6.74065C0.211802 6.5471 0.369846 6.39019 0.564804 6.39019H14.4064C14.6772 6.39019 14.8967 6.60812 14.8967 6.87695V7.86863C14.8967 7.97794 14.8596 8.08407 14.7915 8.16992L3.21232 22.757H13.3729Z" fill="url(#paint1_linear)"/>
<path d="M34.155 15.9138C34.1431 16.1738 33.9273 16.3785 33.6652 16.3785H18.6016C18.7428 18.2944 19.4841 19.8481 20.8255 21.0397C22.1669 22.2079 23.8613 22.7921 25.9087 22.7921C27.0619 22.7921 28.1209 22.5935 29.0858 22.1963C29.4744 22.0268 29.8421 21.8271 30.1888 21.597C31.0133 21.0498 32.1701 21.0338 32.8208 21.7768V21.7768C32.9265 21.8974 32.9289 22.0767 32.8215 22.1958C32.0291 23.0745 31.0545 23.7522 29.8977 24.229C28.6739 24.743 27.3207 25 25.8381 25C23.9319 25 22.2375 24.6028 20.7549 23.8084C19.2958 22.9907 18.1544 21.8692 17.3308 20.4439C16.5071 19.0187 16.0953 17.4065 16.0953 15.6075C16.0953 13.8084 16.4836 12.1963 17.2602 10.771C18.0603 9.34579 19.1429 8.23598 20.5078 7.44159C21.8963 6.6472 23.4495 6.25 25.1674 6.25C26.8854 6.25 28.4268 6.6472 29.7918 7.44159C31.1567 8.23598 32.2275 9.34579 33.0041 10.771C33.7807 12.1729 34.169 13.785 34.169 15.6075L34.155 15.9138ZM25.1674 8.38785C23.3789 8.38785 21.8727 8.96028 20.649 10.1051C19.4488 11.2266 18.7663 12.6986 18.6016 14.521H31.2323C31.5204 14.521 31.7478 14.2752 31.7044 13.9924C31.4619 12.4119 30.789 11.1161 29.6859 10.1051C28.4857 8.96028 26.9795 8.38785 25.1674 8.38785Z" fill="url(#paint2_linear)"/>
<path d="M53.6942 15.9138C53.6823 16.1738 53.4666 16.3785 53.2044 16.3785H38.1408C38.282 18.2944 39.0233 19.8481 40.3647 21.0397C41.7062 22.2079 43.4006 22.7921 45.448 22.7921C46.6011 22.7921 47.6601 22.5935 48.625 22.1963C49.0137 22.0268 49.3814 21.8271 49.7281 21.597C50.5525 21.0498 51.7093 21.0338 52.3601 21.7768V21.7768C52.4657 21.8974 52.4681 22.0767 52.3608 22.1958C51.5683 23.0745 50.5937 23.7522 49.4369 24.229C48.2132 24.743 46.86 25 45.3774 25C43.4712 25 41.7768 24.6028 40.2941 23.8084C38.8351 22.9907 37.6937 21.8692 36.87 20.4439C36.0463 19.0187 35.6345 17.4065 35.6345 15.6075C35.6345 13.8084 36.0228 12.1963 36.7994 10.771C37.5996 9.34579 38.6821 8.23598 40.047 7.44159C41.4355 6.6472 42.9887 6.25 44.7067 6.25C46.4246 6.25 47.9661 6.6472 49.331 7.44159C50.696 8.23598 51.7667 9.34579 52.5433 10.771C53.3199 12.1729 53.7082 13.785 53.7082 15.6075L53.6942 15.9138ZM44.7067 8.38785C42.9181 8.38785 41.412 8.96028 40.1882 10.1051C38.988 11.2266 38.3056 12.6986 38.1408 14.521H50.7716C51.0596 14.521 51.2871 14.2752 51.2437 13.9924C51.0011 12.4119 50.3283 11.1161 49.2251 10.1051C48.0249 8.96028 46.5188 8.38785 44.7067 8.38785Z" fill="url(#paint3_linear)"/>
<path d="M64.7401 25C62.9045 25 61.2572 24.6028 59.7981 23.8084C58.3625 23.014 57.2329 21.9042 56.4093 20.479C55.5856 19.0304 55.1737 17.4065 55.1737 15.6075C55.1737 13.8084 55.5856 12.1963 56.4093 10.771C57.2329 9.34579 58.3625 8.23598 59.7981 7.44159C61.2572 6.6472 62.9045 6.25 64.7401 6.25C66.3404 6.25 67.7642 6.56542 69.0114 7.19626C70.1734 7.75168 71.109 8.55124 71.8185 9.59495C71.9309 9.76035 71.8815 9.98286 71.7152 10.095V10.095C70.8481 10.6798 69.6864 10.4112 68.8617 9.76866C68.5379 9.51634 68.1878 9.30139 67.8112 9.12383C66.8699 8.65654 65.8462 8.4229 64.7401 8.4229C63.3987 8.4229 62.1867 8.72664 61.1042 9.33411C60.0452 9.91822 59.2097 10.7593 58.5979 11.8575C58.0095 12.9556 57.7154 14.2056 57.7154 15.6075C57.7154 17.0327 58.0095 18.2944 58.5979 19.3925C59.2097 20.4673 60.0452 21.3084 61.1042 21.9159C62.1867 22.5 63.3987 22.7921 64.7401 22.7921C65.8462 22.7921 66.8699 22.5701 67.8112 22.1262C68.1878 21.9486 68.5379 21.7337 68.8617 21.4813C69.6864 20.8388 70.8481 20.5702 71.7152 21.155V21.155C71.8815 21.2671 71.9309 21.4896 71.8186 21.6551C71.1091 22.7007 70.1734 23.512 69.0114 24.0888C67.7406 24.6963 66.3169 25 64.7401 25Z" fill="url(#paint4_linear)"/>
<path d="M82.4498 25C80.6613 25 79.0492 24.6028 77.6137 23.8084C76.1781 22.9907 75.0485 21.8692 74.2249 20.4439C73.4012 19.0187 72.9893 17.4065 72.9893 15.6075C72.9893 13.8084 73.4012 12.1963 74.2249 10.771C75.0485 9.34579 76.1781 8.23598 77.6137 7.44159C79.0492 6.6472 80.6613 6.25 82.4498 6.25C84.2384 6.25 85.8504 6.6472 87.286 7.44159C88.7215 8.23598 89.8393 9.34579 90.6395 10.771C91.4632 12.1963 91.875 13.8084 91.875 15.6075C91.875 17.4065 91.4632 19.0187 90.6395 20.4439C89.8393 21.8692 88.7215 22.9907 87.286 23.8084C85.8504 24.6028 84.2384 25 82.4498 25ZM82.4498 22.7921C83.7677 22.7921 84.9444 22.5 85.9798 21.9159C87.0389 21.3084 87.8625 20.4556 88.4509 19.3575C89.0392 18.2593 89.3334 17.0093 89.3334 15.6075C89.3334 14.2056 89.0392 12.9556 88.4509 11.8575C87.8625 10.7593 87.0389 9.91822 85.9798 9.33411C84.9444 8.72664 83.7677 8.4229 82.4498 8.4229C81.1319 8.4229 79.9435 8.72664 78.8845 9.33411C77.849 9.91822 77.0254 10.7593 76.4135 11.8575C75.8251 12.9556 75.531 14.2056 75.531 15.6075C75.531 17.0093 75.8251 18.2593 76.4135 19.3575C77.0254 20.4556 77.849 21.3084 78.8845 21.9159C79.9435 22.5 81.1319 22.7921 82.4498 22.7921Z" fill="url(#paint5_linear)"/>
<defs>
<linearGradient id="paint0_linear" x1="100.938" y1="0" x2="100.938" y2="20.0013" gradientUnits="userSpaceOnUse">
<stop stop-color="#00DEA3"/>
<stop offset="1" stop-color="#1DC3AE"/>
</linearGradient>
<linearGradient id="paint1_linear" x1="45.9375" y1="6.25" x2="45.9375" y2="25" gradientUnits="userSpaceOnUse">
<stop stop-color="#00DEA3"/>
<stop offset="1" stop-color="#1DC3AE"/>
</linearGradient>
<linearGradient id="paint2_linear" x1="45.9375" y1="6.25" x2="45.9375" y2="25" gradientUnits="userSpaceOnUse">
<stop stop-color="#00DEA3"/>
<stop offset="1" stop-color="#1DC3AE"/>
</linearGradient>
<linearGradient id="paint3_linear" x1="45.9375" y1="6.25" x2="45.9375" y2="25" gradientUnits="userSpaceOnUse">
<stop stop-color="#00DEA3"/>
<stop offset="1" stop-color="#1DC3AE"/>
</linearGradient>
<linearGradient id="paint4_linear" x1="45.9375" y1="6.25" x2="45.9375" y2="25" gradientUnits="userSpaceOnUse">
<stop stop-color="#00DEA3"/>
<stop offset="1" stop-color="#1DC3AE"/>
</linearGradient>
<linearGradient id="paint5_linear" x1="45.9375" y1="6.25" x2="45.9375" y2="25" gradientUnits="userSpaceOnUse">
<stop stop-color="#00DEA3"/>
<stop offset="1" stop-color="#1DC3AE"/>
</linearGradient>
</defs>
</svg>
