<svg width="245" height="50" viewBox="0 0 245 50" fill="none" xmlns="http://www.w3.org/2000/svg">
<path d="M35.6611 44.0187C38.2172 44.0187 40.2894 46.0759 40.2894 48.6137V48.6137C40.2894 49.1213 39.8749 49.5327 39.3637 49.5327H1.30742C0.585351 49.5327 0 48.9516 0 48.2347V45.591C0 45.299 0.0991754 45.0155 0.281499 44.7864L31.1584 5.98131H5.2715C2.67206 5.98131 0.564804 3.88918 0.564804 1.30841V1.30841C0.564804 0.792257 0.986257 0.373832 1.50614 0.373832H38.4171C39.1392 0.373832 39.7246 0.954978 39.7246 1.67186V4.31635C39.7246 4.60784 39.6257 4.89085 39.444 5.11979L8.5662 44.0187H35.6611Z" fill="#00DEA3"/>
<path d="M91.0799 25.7703C91.0482 26.4635 90.4728 27.0093 89.7739 27.0093H49.6042C49.9808 32.1184 51.9576 36.2617 55.5347 39.4392C59.1118 42.5545 63.6302 44.1121 69.09 44.1121C72.165 44.1121 74.989 43.5826 77.562 42.5234C78.5985 42.0716 79.579 41.5389 80.5035 40.9254C82.7021 39.4662 85.7869 39.4234 87.5222 41.4047V41.4047C87.8039 41.7263 87.8104 42.2047 87.5241 42.5222C85.4109 44.8654 82.8119 46.6726 79.7271 47.9439C76.4638 49.3146 72.8553 50 68.9017 50C63.8185 50 59.3 48.9408 55.3464 46.8224C51.4555 44.6417 48.4119 41.6511 46.2154 37.8505C44.0189 34.0498 42.9207 29.7508 42.9207 24.9533C42.9207 20.1558 43.9562 15.8567 46.0271 12.0561C48.1608 8.25545 51.0476 5.29595 54.6875 3.17757C58.3901 1.05919 62.532 0 67.1132 0C71.6943 0 75.8049 1.05919 79.4447 3.17757C83.0846 5.29595 85.94 8.25545 88.0109 12.0561C90.0819 15.7944 91.1173 20.0935 91.1173 24.9533L91.0799 25.7703ZM67.1132 5.70093C62.3437 5.70093 58.3273 7.22741 55.064 10.2804C51.8634 13.271 50.0435 17.1963 49.6042 22.0561H83.2862C84.0544 22.0561 84.6609 21.4004 84.5452 20.6465C83.8983 16.4317 82.104 12.9763 79.1623 10.2804C75.9618 7.22741 71.9454 5.70093 67.1132 5.70093Z" fill="#00DEA3"/>
<path d="M143.185 25.7703C143.153 26.4635 142.577 27.0093 141.879 27.0093H101.709C102.085 32.1184 104.062 36.2617 107.639 39.4392C111.216 42.5545 115.735 44.1121 121.195 44.1121C124.27 44.1121 127.094 43.5826 129.667 42.5234C130.703 42.0716 131.684 41.5389 132.608 40.9254C134.807 39.4662 137.892 39.4234 139.627 41.4047V41.4047C139.909 41.7263 139.915 42.2047 139.629 42.5222C137.516 44.8654 134.917 46.6726 131.832 47.9439C128.568 49.3146 124.96 50 121.006 50C115.923 50 111.405 48.9408 107.451 46.8224C103.56 44.6417 100.517 41.6511 98.3201 37.8505C96.1236 34.0498 95.0254 29.7508 95.0254 24.9533C95.0254 20.1558 96.0608 15.8567 98.1318 12.0561C100.265 8.25545 103.152 5.29595 106.792 3.17757C110.495 1.05919 114.637 0 119.218 0C123.799 0 127.91 1.05919 131.549 3.17757C135.189 5.29595 138.045 8.25545 140.116 12.0561C142.187 15.7944 143.222 20.0935 143.222 24.9533L143.185 25.7703ZM119.218 5.70093C114.448 5.70093 110.432 7.22741 107.169 10.2804C103.968 13.271 102.148 17.1963 101.709 22.0561H135.391C136.159 22.0561 136.766 21.4004 136.65 20.6465C136.003 16.4317 134.209 12.9763 131.267 10.2804C128.066 7.22741 124.05 5.70093 119.218 5.70093Z" fill="#00DEA3"/>
<path d="M172.64 50C167.745 50 163.352 48.9408 159.462 46.8224C155.633 44.7041 152.621 41.7445 150.425 37.9439C148.228 34.081 147.13 29.7508 147.13 24.9533C147.13 20.1558 148.228 15.8567 150.425 12.0561C152.621 8.25545 155.633 5.29595 159.462 3.17757C163.352 1.05919 167.745 0 172.64 0C176.908 0 180.704 0.841119 184.031 2.52336C187.129 4.00448 189.624 6.13665 191.516 8.91986C191.816 9.36093 191.684 9.95429 191.241 10.2533V10.2533C188.928 11.8127 185.83 11.0966 183.631 9.38308C182.768 8.71023 181.834 8.13705 180.83 7.66355C178.32 6.41745 175.59 5.79439 172.64 5.79439C169.063 5.79439 165.831 6.60436 162.945 8.2243C160.121 9.78193 157.893 12.0249 156.261 14.9533C154.692 17.8816 153.908 21.215 153.908 24.9533C153.908 28.7539 154.692 32.1184 156.261 35.0467C157.893 37.9128 160.121 40.1558 162.945 41.7757C165.831 43.3333 169.063 44.1121 172.64 44.1121C175.59 44.1121 178.32 43.5202 180.83 42.3364C181.834 41.8629 182.768 41.2898 183.631 40.6169C185.83 38.9033 188.928 38.1873 191.241 39.7467V39.7467C191.684 40.0457 191.816 40.639 191.516 41.0803C189.624 43.8687 187.129 46.0319 184.031 47.5701C180.642 49.19 176.845 50 172.64 50Z" fill="#00DEA3"/>
<path d="M219.866 50C215.097 50 210.798 48.9408 206.97 46.8224C203.142 44.6417 200.129 41.6511 197.933 37.8505C195.737 34.0498 194.638 29.7508 194.638 24.9533C194.638 20.1558 195.737 15.8567 197.933 12.0561C200.129 8.25545 203.142 5.29595 206.97 3.17757C210.798 1.05919 215.097 0 219.866 0C224.636 0 228.934 1.05919 232.763 3.17757C236.591 5.29595 239.572 8.25545 241.705 12.0561C243.902 15.8567 245 20.1558 245 24.9533C245 29.7508 243.902 34.0498 241.705 37.8505C239.572 41.6511 236.591 44.6417 232.763 46.8224C228.934 48.9408 224.636 50 219.866 50ZM219.866 44.1121C223.381 44.1121 226.518 43.3333 229.28 41.7757C232.104 40.1558 234.3 37.8816 235.869 34.9533C237.438 32.0249 238.222 28.6916 238.222 24.9533C238.222 21.215 237.438 17.8816 235.869 14.9533C234.3 12.0249 232.104 9.78193 229.28 8.2243C226.518 6.60436 223.381 5.79439 219.866 5.79439C216.352 5.79439 213.183 6.60436 210.359 8.2243C207.597 9.78193 205.401 12.0249 203.769 14.9533C202.2 17.8816 201.416 21.215 201.416 24.9533C201.416 28.6916 202.2 32.0249 203.769 34.9533C205.401 37.8816 207.597 40.1558 210.359 41.7757C213.183 43.3333 216.352 44.1121 219.866 44.1121Z" fill="#00DEA3"/>
</svg>
