<svg width="332" height="80" viewBox="0 0 332 80" fill="none" xmlns="http://www.w3.org/2000/svg">
<path fill-rule="evenodd" clip-rule="evenodd" d="M331.998 0C318.192 0 307 11.0145 307 24.6016V34.0752C307 40.0656 310.439 44.4043 315.884 47.0833C315.884 47.0833 318.667 48.75 319.499 50C320.333 48.75 323.115 47.0833 323.115 47.0833C328.559 44.4043 331.998 40.0656 331.998 34.0752V0ZM319.5 19.3371C320.24 19.3371 320.838 20.2642 320.838 21.0038V39.8094L324.5 36.8371C325.018 36.3091 326.055 35.9026 326.583 36.4205C327.111 36.9384 326.33 38.0353 325.812 38.5633L319.499 45L313.186 38.5633C312.668 38.0353 311.889 36.9384 312.417 36.4205C312.945 35.9026 313.982 36.3091 314.5 36.8371L318.16 39.8094L318.25 21.0038C318.25 20.2642 318.76 19.3371 319.5 19.3371Z" fill="white"/>
<path d="M42.7933 72.8224C45.8607 72.8224 48.3472 75.2911 48.3472 78.3364C48.3472 78.9455 47.8499 79.4393 47.2365 79.4393H1.5689C0.702421 79.4393 0 78.7419 0 77.8816V74.7092C0 74.3588 0.11901 74.0187 0.337798 73.7437L37.39 27.1776H6.3258C3.20648 27.1776 0.677765 24.667 0.677765 21.5701C0.677765 20.9507 1.18351 20.4486 1.80737 20.4486H46.1006C46.967 20.4486 47.6695 21.146 47.6695 22.0062V25.1796C47.6695 25.5294 47.5509 25.869 47.3328 26.1438L10.2794 72.8224H42.7933Z" fill="white"/>
<path d="M109.296 50.9243C109.258 51.7562 108.567 52.4112 107.729 52.4112H59.5251C59.9769 58.5421 62.3491 63.514 66.6416 67.3271C70.9341 71.0654 76.3562 72.9346 82.908 72.9346C86.598 72.9346 89.9868 72.2991 93.0744 71.028C94.3182 70.4859 95.4948 69.8467 96.6042 69.1104C99.2425 67.3595 102.944 67.3081 105.027 69.6856C105.365 70.0715 105.372 70.6456 105.029 71.0266C102.493 73.8384 99.3743 76.0071 95.6725 77.5327C91.7565 79.1776 87.4264 80 82.682 80C76.5822 80 71.16 78.729 66.4157 76.1869C61.7466 73.5701 58.0942 69.9813 55.4585 65.4206C52.8227 60.8598 51.5048 55.7009 51.5048 49.9439C51.5048 44.1869 52.7474 39.028 55.2326 34.4673C57.793 29.9065 61.2571 26.3551 65.6249 23.8131C70.0681 21.271 75.0383 20 80.5358 20C86.0332 20 90.9658 21.271 95.3336 23.8131C99.7015 26.3551 103.128 29.9065 105.613 34.4673C108.098 38.9533 109.341 44.1121 109.341 49.9439L109.296 50.9243ZM80.5358 26.8411C74.8124 26.8411 69.9928 28.6729 66.0768 32.3364C62.2361 35.9252 60.0522 40.6355 59.5251 46.4673H99.9434C100.865 46.4673 101.593 45.6805 101.454 44.7758C100.678 39.718 98.5248 35.5715 94.9948 32.3364C91.1541 28.6729 86.3344 26.8411 80.5358 26.8411Z" fill="white"/>
<path d="M171.821 50.9243C171.783 51.7562 171.093 52.4112 170.254 52.4112H122.051C122.502 58.5421 124.875 63.514 129.167 67.3271C133.46 71.0654 138.882 72.9346 145.434 72.9346C149.124 72.9346 152.512 72.2991 155.6 71.028C156.844 70.4859 158.02 69.8467 159.13 69.1104C161.768 67.3595 165.47 67.3081 167.552 69.6856C167.89 70.0715 167.898 70.6456 167.554 71.0266C165.019 73.8384 161.9 76.0071 158.198 77.5327C154.282 79.1776 149.952 80 145.208 80C139.108 80 133.686 78.729 128.941 76.1869C124.272 73.5701 120.62 69.9813 117.984 65.4206C115.348 60.8598 114.03 55.7009 114.03 49.9439C114.03 44.1869 115.273 39.028 117.758 34.4673C120.319 29.9065 123.783 26.3551 128.151 23.8131C132.594 21.271 137.564 20 143.061 20C148.559 20 153.491 21.271 157.859 23.8131C162.227 26.3551 165.654 29.9065 168.139 34.4673C170.624 38.9533 171.866 44.1121 171.866 49.9439L171.821 50.9243ZM143.061 26.8411C137.338 26.8411 132.518 28.6729 128.602 32.3364C124.762 35.9252 122.578 40.6355 122.051 46.4673H162.469C163.391 46.4673 164.119 45.6805 163.98 44.7758C163.204 39.718 161.05 35.5715 157.52 32.3364C153.68 28.6729 148.86 26.8411 143.061 26.8411Z" fill="white"/>
<path d="M207.168 80C201.294 80 196.023 78.729 191.354 76.1869C186.76 73.6449 183.145 70.0935 180.51 65.5327C177.874 60.8972 176.556 55.7009 176.556 49.9439C176.556 44.1869 177.874 39.028 180.51 34.4673C183.145 29.9065 186.76 26.3551 191.354 23.8131C196.023 21.271 201.294 20 207.168 20C212.289 20 216.845 21.0093 220.837 23.028C224.555 24.8054 227.549 27.364 229.819 30.7038C230.179 31.2331 230.021 31.9451 229.489 32.3039C226.714 34.1753 222.996 33.316 220.358 31.2597C219.321 30.4523 218.201 29.7645 216.996 29.1963C213.984 27.7009 210.708 26.9533 207.168 26.9533C202.876 26.9533 198.998 27.9252 195.533 29.8692C192.145 31.7383 189.471 34.4299 187.513 37.9439C185.631 41.4579 184.689 45.4579 184.689 49.9439C184.689 54.5047 185.631 58.5421 187.513 62.0561C189.471 65.4953 192.145 68.1869 195.533 70.1308C198.998 72 202.876 72.9346 207.168 72.9346C210.708 72.9346 213.984 72.2243 216.996 70.8037C218.201 70.2355 219.321 69.5477 220.358 68.7403C222.996 66.684 226.714 65.8247 229.489 67.6961C230.021 68.0549 230.179 68.7668 229.819 69.2964C227.549 72.6424 224.555 75.2383 220.837 77.0841C216.77 79.028 212.214 80 207.168 80Z" fill="white"/>
<path d="M263.839 80C258.116 80 252.958 78.729 248.364 76.1869C243.77 73.5701 240.155 69.9813 237.52 65.4206C234.884 60.8598 233.566 55.7009 233.566 49.9439C233.566 44.1869 234.884 39.028 237.52 34.4673C240.155 29.9065 243.77 26.3551 248.364 23.8131C252.958 21.271 258.116 20 263.839 20C269.563 20 274.721 21.271 279.315 23.8131C283.909 26.3551 287.486 29.9065 290.046 34.4673C292.682 39.028 294 44.1869 294 49.9439C294 55.7009 292.682 60.8598 290.046 65.4206C287.486 69.9813 283.909 73.5701 279.315 76.1869C274.721 78.729 269.563 80 263.839 80ZM263.839 72.9346C268.057 72.9346 271.822 72 275.135 70.1308C278.524 68.1869 281.16 65.4579 283.043 61.9439C284.925 58.4299 285.867 54.4299 285.867 49.9439C285.867 45.4579 284.925 41.4579 283.043 37.9439C281.16 34.4299 278.524 31.7383 275.135 29.8692C271.822 27.9252 268.057 26.9533 263.839 26.9533C259.622 26.9533 255.819 27.9252 252.43 29.8692C249.117 31.7383 246.481 34.4299 244.523 37.9439C242.64 41.4579 241.699 45.4579 241.699 49.9439C241.699 54.4299 242.64 58.4299 244.523 61.9439C246.481 65.4579 249.117 68.1869 252.43 70.1308C255.819 72 259.622 72.9346 263.839 72.9346Z" fill="white"/>
</svg>
