<svg width="15" height="31" viewBox="0 0 15 31" fill="none" xmlns="http://www.w3.org/2000/svg">
<path fill-rule="evenodd" clip-rule="evenodd" d="M15 0C6.71573 0 0 6.60913 0 14.7619V20.4464C0 24.0409 2.0636 26.6443 5.33044 28.2518C5.33044 28.2518 7.00045 29.2519 7.5 30.0019C8.00051 29.2519 9.66956 28.2518 9.66956 28.2518C12.9364 26.6443 15 24.0409 15 20.4464V0ZM7.50048 11.603C7.94428 11.603 8.30357 12.1593 8.30357 12.6031V23.8872L10.5007 22.1037C10.8114 21.7869 11.4339 21.5429 11.7508 21.8537C12.0676 22.1644 11.5987 22.8226 11.288 23.1395L7.5 27.0017L3.71201 23.1395C3.40126 22.8226 2.93336 22.1644 3.25021 21.8537C3.56705 21.5429 4.18954 21.7869 4.50029 22.1037L6.69643 23.8872L6.75043 12.6031C6.75043 12.1593 7.05668 11.603 7.50048 11.603Z" fill="url(#paint0_linear)"/>
<defs>
<linearGradient id="paint0_linear" x1="7.5" y1="0" x2="7.5" y2="30.0019" gradientUnits="userSpaceOnUse">
<stop stop-color="#00DEA3"/>
<stop offset="1" stop-color="#36ACB8"/>
</linearGradient>
</defs>
</svg>
