<svg width="1440" height="631" viewBox="0 0 1440 631" fill="none" xmlns="http://www.w3.org/2000/svg">
<mask id="mask0" mask-type="alpha" maskUnits="userSpaceOnUse" x="0" y="0" width="1440" height="631">
<rect width="1440" height="631" fill="#C4C4C4"/>
</mask>
<g mask="url(#mask0)">
<path d="M1520.54 -0.5L-61.5 -0.499809C-61.5 -0.499809 -28.7435 188.667 105.5 361.5C269 572 574.5 411.5 796.5 403.5C1018.5 395.5 1409.69 654.21 1520.54 625.504L1520.54 -0.5Z" fill="url(#paint0_linear)"/>
<path d="M726.315 368.524C721.282 363.918 720.089 348.206 720.089 348.206C720.089 348.206 735.746 347.469 740.718 351.798C745.988 356.387 743.172 369.618 743.172 369.618C743.172 369.618 731.202 372.998 726.315 368.524Z" fill="white"/>
<path d="M741.834 327.937C740.667 321.18 749.289 308.046 749.289 308.046C749.289 308.046 762.09 317.177 763.378 323.677C764.742 330.567 754.467 339.258 754.467 339.258C754.467 339.258 742.967 334.498 741.834 327.937Z" fill="white"/>
<path d="M767.316 336.966C771.839 332.323 785.778 332.939 785.778 332.939C785.778 332.939 784.639 349.043 780.375 353.645C775.854 358.524 763.887 354.817 763.887 354.817C763.887 354.817 762.924 341.475 767.316 336.966Z" fill="white"/>
<path d="M755.027 340.373C755.027 340.373 753.749 342.737 753.282 344.435C750.663 353.951 749.803 366.532 749.726 378.319L743.352 370.093C743.352 370.093 746.897 376.474 748.858 380.452C749.454 381.661 749.71 382.989 749.815 384.333C751.156 401.393 767.031 429.002 767.031 429.002H770.051H777.317C777.317 429.002 755.182 389.879 758.739 366.915C758.848 366.211 759.063 365.539 759.344 364.884L763.519 355.151L755.825 362.663C755.302 356.469 754.229 346.395 755.027 340.373Z" fill="white"/>
<path d="M916.214 463.501C916.214 463.501 925.581 329.435 919.73 306.269C914.105 283.995 892.303 254.227 892.303 254.227L925.356 293.61C925.356 293.61 930.982 254.227 928.169 228.206C925.356 202.185 916.214 183.197 916.214 183.197C916.214 183.197 932.213 207.812 936.608 225.393C941.004 242.975 939.422 293.61 939.422 293.61L972.555 257.095C973.391 256.174 973.751 254.916 973.528 253.692L965.442 209.218L979.249 251.294C979.776 252.9 981.525 253.754 983.115 253.182L1032.96 235.239L981.319 259.662C981.05 259.789 980.799 259.943 980.567 260.13C977.25 262.797 951.101 284.331 943.641 306.269C936.567 327.07 952.002 463.501 952.002 463.501H916.214Z" fill="white"/>
<path d="M880.023 274.932C871.857 278.741 852.248 272.133 852.248 272.133C852.248 272.133 859.435 252.544 867.234 248.668C875.5 244.559 890.043 254.811 890.043 254.811C890.043 254.811 887.953 271.234 880.023 274.932Z" fill="white"/>
<path d="M872.707 237.631C871.161 228.716 882.586 211.386 882.586 211.386C882.586 211.386 899.549 223.435 901.255 232.01C903.063 241.101 889.448 252.568 889.448 252.568C889.448 252.568 874.209 246.288 872.707 237.631Z" fill="white"/>
<path d="M893.39 193.267C884.615 191.061 873.415 173.584 873.415 173.584C873.415 173.584 891.313 162.973 899.843 164.895C908.884 166.933 913.837 184.031 913.837 184.031C913.837 184.031 901.911 195.409 893.39 193.267Z" fill="white"/>
<path d="M909.37 158.943C912.469 150.442 931.007 141.104 931.007 141.104C931.007 141.104 939.716 160 936.925 168.287C933.965 177.07 916.447 180.233 916.447 180.233C916.447 180.233 906.36 167.197 909.37 158.943Z" fill="white"/>
<path d="M941.357 205.227C935.545 198.293 936.727 177.569 936.727 177.569C936.727 177.569 957.446 179.475 963.226 186.036C969.353 192.99 963.334 209.743 963.334 209.743C963.334 209.743 947.001 211.96 941.357 205.227Z" fill="white"/>
<path d="M1025.52 210.279C1028.22 202.146 1045.18 194.782 1045.18 194.782C1045.18 194.782 1053.13 214.541 1050.71 222.475C1048.15 230.886 1031.75 233.441 1031.75 233.441C1031.75 233.441 1022.89 218.177 1025.52 210.279Z" fill="white"/>
<path d="M972.589 187.487C978.583 181.36 997.054 182.174 997.054 182.174C997.054 182.174 995.545 203.421 989.894 209.493C983.904 215.93 968.046 211.039 968.046 211.039C968.046 211.039 966.77 193.436 972.589 187.487Z" fill="white"/>
<path d="M1058.82 236.603C1065.97 241.318 1068.7 259.605 1068.7 259.605C1068.7 259.605 1047.55 262.176 1040.52 257.786C1033.05 253.134 1034.83 236.634 1034.83 236.634C1034.83 236.634 1051.87 232.024 1058.82 236.603Z" fill="white"/>
<path d="M1061.46 217.124C1067.12 215.96 1077.13 223.379 1077.13 223.379C1077.13 223.379 1068.28 234.684 1062.83 235.947C1057.06 237.285 1050.04 228.573 1050.04 228.573C1050.04 228.573 1055.96 218.254 1061.46 217.124Z" fill="white"/>
<path d="M962.646 171.364C964.468 165.881 975.901 160.916 975.901 160.916C975.901 160.916 981.265 174.237 979.634 179.586C977.906 185.256 966.852 186.978 966.852 186.978C966.852 186.978 960.878 176.688 962.646 171.364Z" fill="white"/>
<path d="M854.912 246.032C850.087 242.853 848.251 230.525 848.251 230.525C848.251 230.525 862.505 228.792 867.251 231.751C872.28 234.888 871.083 246.011 871.083 246.011C871.083 246.011 859.597 249.118 854.912 246.032Z" fill="white"/>
<path d="M890.074 161.64C885.249 158.461 883.413 146.133 883.413 146.133C883.413 146.133 897.668 144.4 902.413 147.359C907.442 150.496 906.245 161.619 906.245 161.619C906.245 161.619 894.759 164.726 890.074 161.64Z" fill="white"/>
<path d="M1203.83 196.1H1190.57L1183.08 551.929H1211.32L1203.83 196.1Z" fill="white"/>
<path d="M1179.34 209.607L1183.87 197.145C1184.39 195.712 1184.27 194.124 1183.53 192.788C1181.87 189.763 1177.8 189.116 1175.28 191.476L1105.44 256.883C1104.65 257.619 1104.63 258.86 1105.39 259.621C1106 260.229 1106.94 260.355 1107.68 259.929L1164 227.797C1171.1 223.742 1176.54 217.296 1179.34 209.607Z" fill="white"/>
<path d="M1227.26 188.335L1214.21 190.641C1212.7 190.906 1211.39 191.807 1210.6 193.111C1208.81 196.064 1210.29 199.911 1213.59 200.913L1305.16 228.694C1306.19 229.007 1307.27 228.404 1307.55 227.364C1307.77 226.534 1307.41 225.659 1306.67 225.226L1250.69 192.522C1243.62 188.396 1235.32 186.912 1227.26 188.335Z" fill="white"/>
<path d="M1186.38 157.764L1194.91 167.92C1195.89 169.087 1197.33 169.775 1198.85 169.807C1202.3 169.879 1204.9 166.679 1204.11 163.317L1182.39 70.1281C1182.15 69.0794 1181.08 68.4415 1180.04 68.7202C1179.21 68.9425 1178.63 69.6922 1178.63 70.551L1178.3 135.386C1178.26 143.568 1181.12 151.498 1186.38 157.764Z" fill="white"/>
<path d="M1218.58 185.208C1218.58 196.571 1209.36 205.783 1198 205.783C1186.64 205.783 1177.43 196.571 1177.43 185.208C1177.43 173.845 1186.64 164.633 1198 164.633C1209.36 164.633 1218.58 173.845 1218.58 185.208Z" fill="white"/>
<path d="M1350.69 346H1341.31L1336 594H1356L1350.69 346Z" fill="white"/>
<path d="M1333.93 355.409L1336.99 346.984C1337.34 346.015 1337.26 344.942 1336.77 344.038C1335.64 341.993 1332.89 341.556 1331.19 343.151L1283.97 387.369C1283.44 387.867 1283.43 388.705 1283.94 389.22C1284.35 389.631 1284.99 389.716 1285.49 389.428L1323.56 367.706C1328.36 364.965 1332.04 360.607 1333.93 355.409Z" fill="white"/>
<path d="M1366.34 341.025L1357.51 342.584C1356.49 342.764 1355.61 343.372 1355.07 344.254C1353.86 346.251 1354.86 348.851 1357.09 349.529L1418.99 368.31C1419.69 368.521 1420.42 368.113 1420.61 367.41C1420.76 366.85 1420.52 366.258 1420.02 365.965L1382.17 343.856C1377.39 341.066 1371.78 340.063 1366.34 341.025Z" fill="white"/>
<path d="M1338.69 320.359L1344.45 327.225C1345.11 328.014 1346.09 328.479 1347.12 328.5C1349.45 328.549 1351.2 326.386 1350.67 324.113L1335.99 261.114C1335.82 260.405 1335.1 259.974 1334.4 260.163C1333.84 260.313 1333.45 260.82 1333.45 261.4L1333.22 305.231C1333.19 310.762 1335.13 316.123 1338.69 320.359Z" fill="white"/>
<path d="M1360.46 338.912C1360.46 346.594 1354.24 352.822 1346.55 352.822C1338.87 352.822 1332.64 346.594 1332.64 338.912C1332.64 331.23 1338.87 325.003 1346.55 325.003C1354.24 325.003 1360.46 331.23 1360.46 338.912Z" fill="white"/>
<g filter="url(#filter0_d)">
<mask id="mask1" mask-type="alpha" maskUnits="userSpaceOnUse" x="895" y="333" width="350" height="200">
<rect x="895" y="333" width="350" height="200" rx="10" fill="url(#paint1_linear)"/>
</mask>
<g mask="url(#mask1)">
<rect x="895" y="333" width="350" height="200" rx="10" fill="url(#paint2_linear)"/>
<g filter="url(#filter1_d)">
<path d="M886.148 340.171C887.936 333.002 896.943 329.995 903.39 333.605C931.616 349.408 1005.23 376.319 1127 324.777C1225.74 282.981 1245.63 471.706 1249.3 526.722C1249.77 533.797 1242.92 538.82 1236.2 536.549C1183.62 518.774 994.507 460.541 894.249 505.471C843.008 528.434 874.263 387.835 886.148 340.171Z" fill="white"/>
</g>
</g>
<rect x="918.152" y="465.517" width="64" height="9.6" rx="4.8" fill="#E8E8E8"/>
<rect x="997.672" y="465.516" width="64" height="9.6" rx="4.8" fill="#E8E8E8"/>
<rect x="1077.19" y="465.517" width="64" height="9.6" rx="4.8" fill="#E8E8E8"/>
<rect x="1156.71" y="465.515" width="64" height="9.6" rx="4.8" fill="#E8E8E8"/>
<path d="M918.777 421.916C918.777 416.738 922.975 412.541 928.152 412.541H973.213C978.39 412.541 982.588 416.738 982.588 421.916V425.749H918.777V421.916Z" fill="#FFDA93" stroke="white" stroke-width="1.25"/>
<rect x="918.777" y="426.396" width="63.8102" height="13.2078" fill="#FFDA93" stroke="white" stroke-width="1.25"/>
<path d="M918.777 440.252H982.588V444.085C982.588 449.262 978.39 453.46 973.213 453.46H928.152C922.975 453.46 918.777 449.262 918.777 444.085V440.252Z" fill="#FFDA93" stroke="white" stroke-width="1.25"/>
<path d="M948.84 412.541H952.527C957.152 412.541 960.902 416.291 960.902 420.916V423.811C960.902 425.399 960.419 426.97 959.722 428.481C959.124 429.778 958.492 431.491 958.492 433C958.492 434.51 959.124 436.222 959.722 437.52C960.419 439.031 960.902 440.602 960.902 442.19V445.085C960.902 449.71 957.152 453.46 952.527 453.46H948.84C944.214 453.46 940.465 449.71 940.465 445.085V442.19C940.465 440.602 940.948 439.031 941.644 437.52C942.243 436.222 942.874 434.51 942.874 433C942.874 431.491 942.243 429.778 941.644 428.481C940.948 426.97 940.465 425.399 940.465 423.811V420.916C940.465 416.291 944.214 412.541 948.84 412.541Z" fill="#FFDA93" stroke="white" stroke-width="1.25"/>
</g>
<circle cx="379" cy="517" r="26" fill="#28B9B3"/>
<circle cx="442" cy="453" r="24" fill="#9BE3E0"/>
<circle cx="562" cy="417" r="12" fill="white" fill-opacity="0.4"/>
<circle cx="107" cy="93" r="8" fill="white" fill-opacity="0.4"/>
<circle cx="682" cy="157" r="8" fill="white" fill-opacity="0.4"/>
<circle cx="87" cy="385" r="12" fill="#21BFB0"/>
<circle cx="1374" cy="619" r="12" fill="#34AEB7"/>
<circle cx="1406" cy="560" r="8" fill="white" fill-opacity="0.4"/>
</g>
<defs>
<filter id="filter0_d" x="823" y="285" width="494" height="344" filterUnits="userSpaceOnUse" color-interpolation-filters="sRGB">
<feFlood flood-opacity="0" result="BackgroundImageFix"/>
<feColorMatrix in="SourceAlpha" type="matrix" values="0 0 0 0 0 0 0 0 0 0 0 0 0 0 0 0 0 0 127 0"/>
<feOffset dy="24"/>
<feGaussianBlur stdDeviation="36"/>
<feColorMatrix type="matrix" values="0 0 0 0 0.119063 0 0 0 0 0.491311 0 0 0 0 0.529167 0 0 0 0.2 0"/>
<feBlend mode="normal" in2="BackgroundImageFix" result="effect1_dropShadow"/>
<feBlend mode="normal" in="SourceGraphic" in2="effect1_dropShadow" result="shape"/>
</filter>
<filter id="filter1_d" x="849.795" y="302.788" width="415.526" height="250.313" filterUnits="userSpaceOnUse" color-interpolation-filters="sRGB">
<feFlood flood-opacity="0" result="BackgroundImageFix"/>
<feColorMatrix in="SourceAlpha" type="matrix" values="0 0 0 0 0 0 0 0 0 0 0 0 0 0 0 0 0 0 127 0"/>
<feOffset/>
<feGaussianBlur stdDeviation="8"/>
<feColorMatrix type="matrix" values="0 0 0 0 0 0 0 0 0 0 0 0 0 0 0 0 0 0 0.1 0"/>
<feBlend mode="normal" in2="BackgroundImageFix" result="effect1_dropShadow"/>
<feBlend mode="normal" in="SourceGraphic" in2="effect1_dropShadow" result="shape"/>
</filter>
<linearGradient id="paint0_linear" x1="729.519" y1="-0.5" x2="729.519" y2="627.729" gradientUnits="userSpaceOnUse">
<stop stop-color="#00DEA3"/>
<stop offset="1" stop-color="#36ACB8"/>
</linearGradient>
<linearGradient id="paint1_linear" x1="1070" y1="333" x2="1070" y2="533" gradientUnits="userSpaceOnUse">
<stop stop-color="#00DEA3"/>
<stop offset="1" stop-color="#36ACB8"/>
</linearGradient>
<linearGradient id="paint2_linear" x1="1070" y1="333" x2="1070" y2="533" gradientUnits="userSpaceOnUse">
<stop stop-color="#00DEA3"/>
<stop offset="1" stop-color="#36ACB8"/>
</linearGradient>
</defs>
</svg>
