<svg width="463" height="636" viewBox="0 0 463 636" fill="none" xmlns="http://www.w3.org/2000/svg">
<mask id="mask0" mask-type="alpha" maskUnits="userSpaceOnUse" x="0" y="0" width="463" height="636">
<rect width="463" height="636" fill="#C4C4C4"/>
</mask>
<g mask="url(#mask0)">
<g filter="url(#filter0_d)">
<path d="M47 74C47 60.7451 57.7452 50 71 50H392C405.255 50 416 60.7452 416 74V636H47V74Z" fill="white"/>
</g>
<rect x="121" y="636" width="83.2069" height="12" rx="6" transform="rotate(-90 121 636)" fill="#EFEFEF"/>
<rect x="173" y="636" width="104.009" height="12" rx="6" transform="rotate(-90 173 636)" fill="#EFEFEF"/>
<rect x="225" y="636" width="76.6379" height="12" rx="6" transform="rotate(-90 225 636)" fill="#EFEFEF"/>
<rect x="277" y="636" width="127" height="12" rx="6" transform="rotate(-90 277 636)" fill="#EFEFEF"/>
<rect x="329" y="636" width="63.5" height="12" rx="6" transform="rotate(-90 329 636)" fill="#EFEFEF"/>
<path d="M121 636L121 626C121 622.686 123.686 620 127 620V620C130.314 620 133 622.686 133 626L133 636L121 636Z" fill="#00D1DE"/>
<path d="M173 636L173 604C173 600.686 175.686 598 179 598V598C182.314 598 185 600.686 185 604L185 636L173 636Z" fill="#00D1DE"/>
<path d="M225 636L225 619C225 615.686 227.686 613 231 613V613C234.314 613 237 615.686 237 619L237 636L225 636Z" fill="#00D1DE"/>
<path d="M277 636L277 600C277 596.686 279.686 594 283 594V594C286.314 594 289 596.686 289 600L289 636L277 636Z" fill="#00D1DE"/>
<path d="M329 636L329 622C329 618.686 331.686 616 335 616V616C338.314 616 341 618.686 341 622L341 636L329 636Z" fill="#00D1DE"/>
<path d="M181.88 318.464C183.56 318.464 185.06 318.236 186.38 317.78C187.724 317.3 188.852 316.64 189.764 315.8C190.7 314.936 191.408 313.916 191.888 312.74C192.392 311.54 192.644 310.22 192.644 308.78C192.644 307.004 192.344 305.492 191.744 304.244C191.168 302.972 190.376 301.94 189.368 301.148C188.384 300.356 187.244 299.78 185.948 299.42C184.652 299.036 183.296 298.844 181.88 298.844C180.464 298.844 179.108 299.036 177.812 299.42C176.516 299.78 175.364 300.356 174.356 301.148C173.372 301.94 172.58 302.972 171.98 304.244C171.404 305.492 171.116 307.004 171.116 308.78C171.116 310.22 171.356 311.54 171.836 312.74C172.34 313.916 173.048 314.936 173.96 315.8C174.896 316.64 176.024 317.3 177.344 317.78C178.688 318.236 180.2 318.464 181.88 318.464ZM181.88 275.804C180.344 275.804 178.988 276.032 177.812 276.488C176.66 276.944 175.688 277.568 174.896 278.36C174.128 279.152 173.54 280.076 173.132 281.132C172.748 282.188 172.556 283.316 172.556 284.516C172.556 285.692 172.724 286.832 173.06 287.936C173.396 289.04 173.936 290.024 174.68 290.888C175.424 291.728 176.384 292.412 177.56 292.94C178.76 293.444 180.2 293.696 181.88 293.696C183.56 293.696 184.988 293.444 186.164 292.94C187.364 292.412 188.336 291.728 189.08 290.888C189.824 290.024 190.364 289.04 190.7 287.936C191.036 286.832 191.204 285.692 191.204 284.516C191.204 283.316 191 282.188 190.592 281.132C190.208 280.076 189.62 279.152 188.828 278.36C188.06 277.568 187.088 276.944 185.912 276.488C184.76 276.032 183.416 275.804 181.88 275.804ZM189.26 296.108C192.476 297.02 194.948 298.544 196.676 300.68C198.404 302.816 199.268 305.552 199.268 308.888C199.268 311.144 198.836 313.184 197.972 315.008C197.132 316.808 195.944 318.344 194.408 319.616C192.896 320.888 191.072 321.872 188.936 322.568C186.8 323.24 184.448 323.576 181.88 323.576C179.312 323.576 176.96 323.24 174.824 322.568C172.688 321.872 170.852 320.888 169.316 319.616C167.78 318.344 166.592 316.808 165.752 315.008C164.912 313.184 164.492 311.144 164.492 308.888C164.492 305.552 165.356 302.816 167.084 300.68C168.812 298.544 171.284 297.02 174.5 296.108C171.788 295.1 169.736 293.6 168.344 291.608C166.976 289.592 166.292 287.192 166.292 284.408C166.292 282.512 166.664 280.736 167.408 279.08C168.152 277.424 169.208 275.984 170.576 274.76C171.944 273.536 173.576 272.576 175.472 271.88C177.392 271.184 179.528 270.836 181.88 270.836C184.208 270.836 186.332 271.184 188.252 271.88C190.172 272.576 191.816 273.536 193.184 274.76C194.552 275.984 195.608 277.424 196.352 279.08C197.096 280.736 197.468 282.512 197.468 284.408C197.468 287.192 196.772 289.592 195.38 291.608C194.012 293.6 191.972 295.1 189.26 296.108ZM229.046 304.388V283.112C229.046 282.488 229.07 281.804 229.118 281.06C229.166 280.316 229.238 279.56 229.334 278.792L210.542 304.388H229.046ZM242.474 304.388V308.06C242.474 308.444 242.354 308.768 242.114 309.032C241.898 309.296 241.55 309.428 241.07 309.428H234.662V323H229.046V309.428H206.15C205.67 309.428 205.25 309.296 204.89 309.032C204.554 308.744 204.338 308.396 204.242 307.988L203.594 304.712L228.686 271.412H234.662V304.388H242.474ZM270.523 283.868C270.523 285.884 270.211 287.696 269.587 289.304C268.963 290.888 268.123 292.232 267.067 293.336C266.035 294.416 264.823 295.244 263.431 295.82C262.063 296.396 260.611 296.684 259.075 296.684C257.467 296.684 255.967 296.396 254.575 295.82C253.183 295.244 251.971 294.416 250.939 293.336C249.931 292.232 249.139 290.888 248.563 289.304C247.987 287.696 247.699 285.884 247.699 283.868C247.699 281.804 247.987 279.968 248.563 278.36C249.139 276.752 249.931 275.396 250.939 274.292C251.971 273.188 253.183 272.348 254.575 271.772C255.967 271.196 257.467 270.908 259.075 270.908C260.707 270.908 262.219 271.196 263.611 271.772C265.003 272.348 266.215 273.188 267.247 274.292C268.279 275.396 269.083 276.752 269.659 278.36C270.235 279.968 270.523 281.804 270.523 283.868ZM265.555 283.868C265.555 282.284 265.387 280.94 265.051 279.836C264.715 278.732 264.247 277.832 263.647 277.136C263.071 276.416 262.387 275.9 261.595 275.588C260.803 275.276 259.963 275.12 259.075 275.12C258.187 275.12 257.359 275.276 256.591 275.588C255.823 275.9 255.151 276.416 254.575 277.136C253.999 277.832 253.543 278.732 253.207 279.836C252.871 280.94 252.703 282.284 252.703 283.868C252.703 285.428 252.871 286.76 253.207 287.864C253.543 288.944 253.999 289.832 254.575 290.528C255.151 291.2 255.823 291.692 256.591 292.004C257.359 292.292 258.187 292.436 259.075 292.436C259.963 292.436 260.803 292.292 261.595 292.004C262.387 291.692 263.071 291.2 263.647 290.528C264.247 289.832 264.715 288.944 265.051 287.864C265.387 286.76 265.555 285.428 265.555 283.868ZM288.775 272.492C289.015 272.204 289.291 271.952 289.603 271.736C289.939 271.52 290.383 271.412 290.935 271.412H295.579L257.851 321.956C257.635 322.268 257.359 322.52 257.023 322.712C256.687 322.904 256.279 323 255.799 323H251.083L288.775 272.492ZM299.071 310.832C299.071 312.848 298.759 314.648 298.135 316.232C297.511 317.816 296.671 319.16 295.615 320.264C294.583 321.344 293.371 322.172 291.979 322.748C290.611 323.324 289.159 323.612 287.623 323.612C285.991 323.612 284.479 323.324 283.087 322.748C281.719 322.172 280.519 321.344 279.487 320.264C278.479 319.16 277.687 317.816 277.111 316.232C276.535 314.648 276.247 312.848 276.247 310.832C276.247 308.768 276.535 306.932 277.111 305.324C277.687 303.692 278.479 302.324 279.487 301.22C280.519 300.116 281.719 299.276 283.087 298.7C284.479 298.124 285.991 297.836 287.623 297.836C289.231 297.836 290.731 298.124 292.123 298.7C293.539 299.276 294.751 300.116 295.759 301.22C296.791 302.324 297.595 303.692 298.171 305.324C298.771 306.932 299.071 308.768 299.071 310.832ZM294.103 310.832C294.103 309.248 293.935 307.904 293.599 306.8C293.263 305.672 292.795 304.76 292.195 304.064C291.619 303.368 290.935 302.864 290.143 302.552C289.351 302.24 288.511 302.084 287.623 302.084C286.735 302.084 285.895 302.24 285.103 302.552C284.335 302.864 283.663 303.368 283.087 304.064C282.511 304.76 282.055 305.672 281.719 306.8C281.407 307.904 281.251 309.248 281.251 310.832C281.251 312.392 281.407 313.712 281.719 314.792C282.055 315.872 282.511 316.76 283.087 317.456C283.663 318.128 284.335 318.62 285.103 318.932C285.895 319.22 286.735 319.364 287.623 319.364C288.511 319.364 289.351 319.22 290.143 318.932C290.935 318.62 291.619 318.128 292.195 317.456C292.795 316.76 293.263 315.872 293.599 314.792C293.935 313.712 294.103 312.392 294.103 310.832Z" fill="#00D1DE"/>
<path d="M187.128 344.804V362H185.964C185.78 362 185.624 361.968 185.496 361.904C185.376 361.84 185.256 361.732 185.136 361.58L175.188 348.62C175.204 348.82 175.216 349.016 175.224 349.208C175.232 349.4 175.236 349.58 175.236 349.748V362H173.196V344.804H174.396C174.5 344.804 174.588 344.812 174.66 344.828C174.732 344.836 174.796 344.856 174.852 344.888C174.908 344.912 174.964 344.952 175.02 345.008C175.076 345.056 175.136 345.12 175.2 345.2L185.148 358.148C185.132 357.94 185.116 357.74 185.1 357.548C185.092 357.348 185.088 357.16 185.088 356.984V344.804H187.128ZM198.781 354.596C198.781 354.1 198.709 353.648 198.565 353.24C198.429 352.824 198.225 352.468 197.953 352.172C197.689 351.868 197.365 351.636 196.981 351.476C196.597 351.308 196.161 351.224 195.673 351.224C194.649 351.224 193.837 351.524 193.237 352.124C192.645 352.716 192.277 353.54 192.133 354.596H198.781ZM200.509 360.296C200.245 360.616 199.929 360.896 199.561 361.136C199.193 361.368 198.797 361.56 198.373 361.712C197.957 361.864 197.525 361.976 197.077 362.048C196.629 362.128 196.185 362.168 195.745 362.168C194.905 362.168 194.129 362.028 193.417 361.748C192.713 361.46 192.101 361.044 191.581 360.5C191.069 359.948 190.669 359.268 190.381 358.46C190.093 357.652 189.949 356.724 189.949 355.676C189.949 354.828 190.077 354.036 190.333 353.3C190.597 352.564 190.973 351.928 191.461 351.392C191.949 350.848 192.545 350.424 193.249 350.12C193.953 349.808 194.745 349.652 195.625 349.652C196.353 349.652 197.025 349.776 197.641 350.024C198.265 350.264 198.801 350.616 199.249 351.08C199.705 351.536 200.061 352.104 200.317 352.784C200.573 353.456 200.701 354.224 200.701 355.088C200.701 355.424 200.665 355.648 200.593 355.76C200.521 355.872 200.385 355.928 200.185 355.928H192.061C192.085 356.696 192.189 357.364 192.373 357.932C192.565 358.5 192.829 358.976 193.165 359.36C193.501 359.736 193.901 360.02 194.365 360.212C194.829 360.396 195.349 360.488 195.925 360.488C196.461 360.488 196.921 360.428 197.305 360.308C197.697 360.18 198.033 360.044 198.313 359.9C198.593 359.756 198.825 359.624 199.009 359.504C199.201 359.376 199.365 359.312 199.501 359.312C199.677 359.312 199.813 359.38 199.909 359.516L200.509 360.296ZM213.321 349.844V362H212.049C211.745 362 211.553 361.852 211.473 361.556L211.305 360.248C210.777 360.832 210.185 361.304 209.529 361.664C208.873 362.016 208.121 362.192 207.273 362.192C206.609 362.192 206.021 362.084 205.509 361.868C205.005 361.644 204.581 361.332 204.237 360.932C203.893 360.532 203.633 360.048 203.457 359.48C203.289 358.912 203.205 358.284 203.205 357.596V349.844H205.341V357.596C205.341 358.516 205.549 359.228 205.965 359.732C206.389 360.236 207.033 360.488 207.897 360.488C208.529 360.488 209.117 360.34 209.661 360.044C210.213 359.74 210.721 359.324 211.185 358.796V349.844H213.321ZM220.44 362.192C219.48 362.192 218.74 361.924 218.22 361.388C217.708 360.852 217.452 360.08 217.452 359.072V351.632H215.988C215.86 351.632 215.752 351.596 215.664 351.524C215.576 351.444 215.532 351.324 215.532 351.164V350.312L217.524 350.06L218.016 346.304C218.04 346.184 218.092 346.088 218.172 346.016C218.26 345.936 218.372 345.896 218.508 345.896H219.588V350.084H223.104V351.632H219.588V358.928C219.588 359.44 219.712 359.82 219.96 360.068C220.208 360.316 220.528 360.44 220.92 360.44C221.144 360.44 221.336 360.412 221.496 360.356C221.664 360.292 221.808 360.224 221.928 360.152C222.048 360.08 222.148 360.016 222.228 359.96C222.316 359.896 222.392 359.864 222.456 359.864C222.568 359.864 222.668 359.932 222.756 360.068L223.38 361.088C223.012 361.432 222.568 361.704 222.048 361.904C221.528 362.096 220.992 362.192 220.44 362.192ZM227.337 352.28C227.721 351.448 228.193 350.8 228.753 350.336C229.313 349.864 229.997 349.628 230.805 349.628C231.061 349.628 231.305 349.656 231.537 349.712C231.777 349.768 231.989 349.856 232.173 349.976L232.017 351.572C231.969 351.772 231.849 351.872 231.657 351.872C231.545 351.872 231.381 351.848 231.165 351.8C230.949 351.752 230.705 351.728 230.433 351.728C230.049 351.728 229.705 351.784 229.401 351.896C229.105 352.008 228.837 352.176 228.597 352.4C228.365 352.616 228.153 352.888 227.961 353.216C227.777 353.536 227.609 353.904 227.457 354.32V362H225.309V349.844H226.533C226.765 349.844 226.925 349.888 227.013 349.976C227.101 350.064 227.161 350.216 227.193 350.432L227.337 352.28ZM240.452 356.528C239.468 356.56 238.628 356.64 237.932 356.768C237.244 356.888 236.68 357.048 236.24 357.248C235.808 357.448 235.492 357.684 235.292 357.956C235.1 358.228 235.004 358.532 235.004 358.868C235.004 359.188 235.056 359.464 235.16 359.696C235.264 359.928 235.404 360.12 235.58 360.272C235.764 360.416 235.976 360.524 236.216 360.596C236.464 360.66 236.728 360.692 237.008 360.692C237.384 360.692 237.728 360.656 238.04 360.584C238.352 360.504 238.644 360.392 238.916 360.248C239.196 360.104 239.46 359.932 239.708 359.732C239.964 359.532 240.212 359.304 240.452 359.048V356.528ZM233.552 351.56C234.224 350.912 234.948 350.428 235.724 350.108C236.5 349.788 237.36 349.628 238.304 349.628C238.984 349.628 239.588 349.74 240.116 349.964C240.644 350.188 241.088 350.5 241.448 350.9C241.808 351.3 242.08 351.784 242.264 352.352C242.448 352.92 242.54 353.544 242.54 354.224V362H241.592C241.384 362 241.224 361.968 241.112 361.904C241 361.832 240.912 361.696 240.848 361.496L240.608 360.344C240.288 360.64 239.976 360.904 239.672 361.136C239.368 361.36 239.048 361.552 238.712 361.712C238.376 361.864 238.016 361.98 237.632 362.06C237.256 362.148 236.836 362.192 236.372 362.192C235.9 362.192 235.456 362.128 235.04 362C234.624 361.864 234.26 361.664 233.948 361.4C233.644 361.136 233.4 360.804 233.216 360.404C233.04 359.996 232.952 359.516 232.952 358.964C232.952 358.484 233.084 358.024 233.348 357.584C233.612 357.136 234.04 356.74 234.632 356.396C235.224 356.052 235.996 355.772 236.948 355.556C237.9 355.332 239.068 355.204 240.452 355.172V354.224C240.452 353.28 240.248 352.568 239.84 352.088C239.432 351.6 238.836 351.356 238.052 351.356C237.524 351.356 237.08 351.424 236.72 351.56C236.368 351.688 236.06 351.836 235.796 352.004C235.54 352.164 235.316 352.312 235.124 352.448C234.94 352.576 234.756 352.64 234.572 352.64C234.428 352.64 234.304 352.604 234.2 352.532C234.096 352.452 234.008 352.356 233.936 352.244L233.552 351.56ZM248.002 344.324V362H245.866V344.324H248.002ZM253.721 349.844V362H251.585V349.844H253.721ZM254.177 346.028C254.177 346.236 254.133 346.432 254.045 346.616C253.965 346.792 253.853 346.952 253.709 347.096C253.573 347.232 253.409 347.34 253.217 347.42C253.033 347.5 252.837 347.54 252.629 347.54C252.421 347.54 252.225 347.5 252.041 347.42C251.865 347.34 251.709 347.232 251.573 347.096C251.437 346.952 251.329 346.792 251.249 346.616C251.169 346.432 251.129 346.236 251.129 346.028C251.129 345.82 251.169 345.624 251.249 345.44C251.329 345.248 251.437 345.084 251.573 344.948C251.709 344.804 251.865 344.692 252.041 344.612C252.225 344.532 252.421 344.492 252.629 344.492C252.837 344.492 253.033 344.532 253.217 344.612C253.409 344.692 253.573 344.804 253.709 344.948C253.853 345.084 253.965 345.248 254.045 345.44C254.133 345.624 254.177 345.82 254.177 346.028ZM264.311 351.848C264.215 352.024 264.067 352.112 263.867 352.112C263.747 352.112 263.611 352.068 263.459 351.98C263.307 351.892 263.119 351.796 262.895 351.692C262.679 351.58 262.419 351.48 262.115 351.392C261.811 351.296 261.451 351.248 261.035 351.248C260.675 351.248 260.351 351.296 260.063 351.392C259.775 351.48 259.527 351.604 259.319 351.764C259.119 351.924 258.963 352.112 258.851 352.328C258.747 352.536 258.695 352.764 258.695 353.012C258.695 353.324 258.783 353.584 258.959 353.792C259.143 354 259.383 354.18 259.679 354.332C259.975 354.484 260.311 354.62 260.687 354.74C261.063 354.852 261.447 354.976 261.839 355.112C262.239 355.24 262.627 355.384 263.003 355.544C263.379 355.704 263.715 355.904 264.011 356.144C264.307 356.384 264.543 356.68 264.719 357.032C264.903 357.376 264.995 357.792 264.995 358.28C264.995 358.84 264.895 359.36 264.695 359.84C264.495 360.312 264.199 360.724 263.807 361.076C263.415 361.42 262.935 361.692 262.367 361.892C261.799 362.092 261.143 362.192 260.399 362.192C259.551 362.192 258.783 362.056 258.095 361.784C257.407 361.504 256.823 361.148 256.343 360.716L256.847 359.9C256.911 359.796 256.987 359.716 257.075 359.66C257.163 359.604 257.275 359.576 257.411 359.576C257.555 359.576 257.707 359.632 257.867 359.744C258.027 359.856 258.219 359.98 258.443 360.116C258.675 360.252 258.955 360.376 259.283 360.488C259.611 360.6 260.019 360.656 260.507 360.656C260.923 360.656 261.287 360.604 261.599 360.5C261.911 360.388 262.171 360.24 262.379 360.056C262.587 359.872 262.739 359.66 262.835 359.42C262.939 359.18 262.991 358.924 262.991 358.652C262.991 358.316 262.899 358.04 262.715 357.824C262.539 357.6 262.303 357.412 262.007 357.26C261.711 357.1 261.371 356.964 260.987 356.852C260.611 356.732 260.223 356.608 259.823 356.48C259.431 356.352 259.043 356.208 258.659 356.048C258.283 355.88 257.947 355.672 257.651 355.424C257.355 355.176 257.115 354.872 256.931 354.512C256.755 354.144 256.667 353.7 256.667 353.18C256.667 352.716 256.763 352.272 256.955 351.848C257.147 351.416 257.427 351.04 257.795 350.72C258.163 350.392 258.615 350.132 259.151 349.94C259.687 349.748 260.299 349.652 260.987 349.652C261.787 349.652 262.503 349.78 263.135 350.036C263.775 350.284 264.327 350.628 264.791 351.068L264.311 351.848ZM275.75 354.596C275.75 354.1 275.678 353.648 275.534 353.24C275.398 352.824 275.194 352.468 274.922 352.172C274.658 351.868 274.334 351.636 273.95 351.476C273.566 351.308 273.13 351.224 272.642 351.224C271.618 351.224 270.806 351.524 270.206 352.124C269.614 352.716 269.246 353.54 269.102 354.596H275.75ZM277.478 360.296C277.214 360.616 276.898 360.896 276.53 361.136C276.162 361.368 275.766 361.56 275.342 361.712C274.926 361.864 274.494 361.976 274.046 362.048C273.598 362.128 273.154 362.168 272.714 362.168C271.874 362.168 271.098 362.028 270.386 361.748C269.682 361.46 269.07 361.044 268.55 360.5C268.038 359.948 267.638 359.268 267.35 358.46C267.062 357.652 266.918 356.724 266.918 355.676C266.918 354.828 267.046 354.036 267.302 353.3C267.566 352.564 267.942 351.928 268.43 351.392C268.918 350.848 269.514 350.424 270.218 350.12C270.922 349.808 271.714 349.652 272.594 349.652C273.322 349.652 273.994 349.776 274.61 350.024C275.234 350.264 275.77 350.616 276.218 351.08C276.674 351.536 277.03 352.104 277.286 352.784C277.542 353.456 277.67 354.224 277.67 355.088C277.67 355.424 277.634 355.648 277.562 355.76C277.49 355.872 277.354 355.928 277.154 355.928H269.03C269.054 356.696 269.158 357.364 269.342 357.932C269.534 358.5 269.798 358.976 270.134 359.36C270.47 359.736 270.87 360.02 271.334 360.212C271.798 360.396 272.318 360.488 272.894 360.488C273.43 360.488 273.89 360.428 274.274 360.308C274.666 360.18 275.002 360.044 275.282 359.9C275.562 359.756 275.794 359.624 275.978 359.504C276.17 359.376 276.334 359.312 276.47 359.312C276.646 359.312 276.782 359.38 276.878 359.516L277.478 360.296ZM288.214 352.736C287.814 352.2 287.382 351.828 286.918 351.62C286.454 351.404 285.934 351.296 285.358 351.296C284.23 351.296 283.362 351.7 282.754 352.508C282.146 353.316 281.842 354.468 281.842 355.964C281.842 356.756 281.91 357.436 282.046 358.004C282.182 358.564 282.382 359.028 282.646 359.396C282.91 359.756 283.234 360.02 283.618 360.188C284.002 360.356 284.438 360.44 284.926 360.44C285.63 360.44 286.242 360.28 286.762 359.96C287.29 359.64 287.774 359.188 288.214 358.604V352.736ZM290.35 344.324V362H289.078C288.774 362 288.582 361.852 288.502 361.556L288.31 360.08C287.79 360.704 287.198 361.208 286.534 361.592C285.87 361.976 285.102 362.168 284.23 362.168C283.534 362.168 282.902 362.036 282.334 361.772C281.766 361.5 281.282 361.104 280.882 360.584C280.482 360.064 280.174 359.416 279.958 358.64C279.742 357.864 279.634 356.972 279.634 355.964C279.634 355.068 279.754 354.236 279.994 353.468C280.234 352.692 280.578 352.02 281.026 351.452C281.474 350.884 282.022 350.44 282.67 350.12C283.326 349.792 284.062 349.628 284.878 349.628C285.622 349.628 286.258 349.756 286.786 350.012C287.322 350.26 287.798 350.608 288.214 351.056V344.324H290.35Z" fill="#00D1DE"/>
<path d="M232 158C314.843 158 382 225.157 382 308C382 390.843 314.843 458 232 458C149.157 458 82 390.843 82 308C82 225.157 149.157 158 232 158ZM232 443C306.558 443 367 382.558 367 308C367 233.442 306.558 173 232 173C157.442 173 97 233.442 97 308C97 382.558 157.442 443 232 443Z" fill="#EFEFEF"/>
<path d="M232 165.5C232 161.358 235.361 157.98 239.498 158.187C270.123 159.719 299.612 170.609 323.936 189.477C350.24 209.88 369.009 238.453 377.288 270.696C385.566 302.94 382.884 337.021 369.663 367.572C356.443 398.123 333.435 423.409 304.263 439.446C275.092 455.483 241.414 461.361 208.535 456.153C175.656 450.945 145.443 434.949 122.655 410.682C99.8669 386.415 85.7987 355.257 82.6659 322.116C79.7689 291.469 86.3755 260.736 101.492 234.057C103.534 230.453 108.186 229.425 111.683 231.644V231.644C115.181 233.864 116.197 238.489 114.175 242.104C100.831 265.963 95.0156 293.372 97.5993 320.704C100.419 350.532 113.08 378.574 133.589 400.414C154.099 422.254 181.29 436.651 210.882 441.338C240.473 446.025 270.783 440.735 297.037 426.301C323.291 411.868 343.998 389.111 355.897 361.615C367.796 334.119 370.21 303.446 362.759 274.427C355.308 245.408 338.416 219.692 314.743 201.329C293.049 184.502 266.791 174.726 239.497 173.208C235.361 172.978 232 169.642 232 165.5V165.5Z" fill="#00D1DE"/>
<circle cx="374" cy="92" r="12" fill="#36ACB8"/>
</g>
<defs>
<filter id="filter0_d" x="-17" y="-10" width="497" height="714" filterUnits="userSpaceOnUse" color-interpolation-filters="sRGB">
<feFlood flood-opacity="0" result="BackgroundImageFix"/>
<feColorMatrix in="SourceAlpha" type="matrix" values="0 0 0 0 0 0 0 0 0 0 0 0 0 0 0 0 0 0 127 0"/>
<feOffset dy="4"/>
<feGaussianBlur stdDeviation="32"/>
<feColorMatrix type="matrix" values="0 0 0 0 0 0 0 0 0 0 0 0 0 0 0 0 0 0 0.1 0"/>
<feBlend mode="normal" in2="BackgroundImageFix" result="effect1_dropShadow"/>
<feBlend mode="normal" in="SourceGraphic" in2="effect1_dropShadow" result="shape"/>
</filter>
</defs>
</svg>
