<svg width="180" height="244" viewBox="0 0 180 244" fill="none" xmlns="http://www.w3.org/2000/svg">
<g filter="url(#filter0_d)">
<rect x="32" y="20" width="116" height="180" rx="24" fill="#36ACB8"/>
</g>
<g filter="url(#filter1_d)">
<path fill-rule="evenodd" clip-rule="evenodd" d="M124 200C137.255 200 148 189.255 148 176V110H92C58.8629 110 32 136.863 32 170V176C32 189.255 42.7452 200 56 200H124Z" fill="#1F9BA8"/>
</g>
<rect x="56" y="148" width="24" height="4" fill="white"/>
<rect x="56" y="158" width="24" height="4" fill="white"/>
<rect x="85" y="78" width="45" height="4" rx="2" fill="white"/>
<rect x="56" y="78" width="16" height="4" fill="white"/>
<rect x="62" y="88" width="16" height="4" transform="rotate(-90 62 88)" fill="white"/>
<rect x="85" y="52" width="30" height="4" rx="2" fill="white"/>
<rect x="56" y="52" width="16" height="4" fill="white"/>
<rect x="62" y="62" width="16" height="4" transform="rotate(-90 62 62)" fill="white"/>
<defs>
<filter id="filter0_d" x="0" y="0" width="180" height="244" filterUnits="userSpaceOnUse" color-interpolation-filters="sRGB">
<feFlood flood-opacity="0" result="BackgroundImageFix"/>
<feColorMatrix in="SourceAlpha" type="matrix" values="0 0 0 0 0 0 0 0 0 0 0 0 0 0 0 0 0 0 127 0"/>
<feOffset dy="12"/>
<feGaussianBlur stdDeviation="16"/>
<feColorMatrix type="matrix" values="0 0 0 0 0 0 0 0 0 0 0 0 0 0 0 0 0 0 0.05 0"/>
<feBlend mode="normal" in2="BackgroundImageFix" result="effect1_dropShadow"/>
<feBlend mode="normal" in="SourceGraphic" in2="effect1_dropShadow" result="shape"/>
</filter>
<filter id="filter1_d" x="0" y="90" width="180" height="154" filterUnits="userSpaceOnUse" color-interpolation-filters="sRGB">
<feFlood flood-opacity="0" result="BackgroundImageFix"/>
<feColorMatrix in="SourceAlpha" type="matrix" values="0 0 0 0 0 0 0 0 0 0 0 0 0 0 0 0 0 0 127 0"/>
<feOffset dy="12"/>
<feGaussianBlur stdDeviation="16"/>
<feColorMatrix type="matrix" values="0 0 0 0 0 0 0 0 0 0 0 0 0 0 0 0 0 0 0.05 0"/>
<feBlend mode="normal" in2="BackgroundImageFix" result="effect1_dropShadow"/>
<feBlend mode="normal" in="SourceGraphic" in2="effect1_dropShadow" result="shape"/>
</filter>
</defs>
</svg>
