<svg width="1440" height="631" viewBox="0 0 1440 631" fill="none" xmlns="http://www.w3.org/2000/svg">
<mask id="mask0" mask-type="alpha" maskUnits="userSpaceOnUse" x="0" y="0" width="1440" height="631">
<rect width="1440" height="631" fill="#C4C4C4"/>
</mask>
<g mask="url(#mask0)">
<path d="M1520.54 -0.5L-61.5 -0.499809C-61.5 -0.499809 -28.7435 188.667 105.5 361.5C269 572 574.5 411.5 796.5 403.5C1018.5 395.5 1409.69 654.21 1520.54 625.504L1520.54 -0.5Z" fill="url(#paint0_linear)"/>
<path d="M726.315 368.524C721.282 363.918 720.089 348.206 720.089 348.206C720.089 348.206 735.746 347.469 740.718 351.798C745.988 356.387 743.172 369.618 743.172 369.618C743.172 369.618 731.202 372.998 726.315 368.524Z" fill="white"/>
<path d="M741.834 327.937C740.667 321.18 749.289 308.046 749.289 308.046C749.289 308.046 762.09 317.177 763.378 323.677C764.742 330.567 754.467 339.258 754.467 339.258C754.467 339.258 742.967 334.498 741.834 327.937Z" fill="white"/>
<path d="M767.316 336.966C771.839 332.323 785.778 332.939 785.778 332.939C785.778 332.939 784.639 349.043 780.375 353.645C775.854 358.524 763.887 354.817 763.887 354.817C763.887 354.817 762.924 341.475 767.316 336.966Z" fill="white"/>
<path d="M755.027 340.373C755.027 340.373 753.749 342.737 753.282 344.435C750.663 353.951 749.803 366.532 749.726 378.319L743.352 370.093C743.352 370.093 746.897 376.474 748.858 380.452C749.454 381.661 749.71 382.989 749.815 384.333C751.156 401.393 767.031 429.002 767.031 429.002H770.051H777.317C777.317 429.002 755.182 389.879 758.739 366.915C758.848 366.211 759.063 365.539 759.344 364.884L763.519 355.151L755.825 362.663C755.302 356.469 754.229 346.395 755.027 340.373Z" fill="white"/>
<path d="M916.212 463.501C916.212 463.501 925.579 329.435 919.728 306.269C914.103 283.995 892.301 254.227 892.301 254.227L925.354 293.61C925.354 293.61 930.98 254.227 928.167 228.206C925.354 202.185 916.212 183.197 916.212 183.197C916.212 183.197 932.211 207.812 936.606 225.393C941.002 242.975 939.42 293.61 939.42 293.61L972.553 257.095C973.389 256.174 973.749 254.916 973.526 253.692L965.44 209.218L979.247 251.294C979.774 252.9 981.523 253.754 983.113 253.182L1032.95 235.239L981.317 259.662C981.048 259.789 980.797 259.943 980.565 260.13C977.248 262.797 951.099 284.331 943.639 306.269C936.566 327.07 952 463.501 952 463.501H916.212Z" fill="white"/>
<path d="M880.025 274.931C871.859 278.74 852.25 272.132 852.25 272.132C852.25 272.132 859.436 252.543 867.235 248.667C875.502 244.558 890.045 254.81 890.045 254.81C890.045 254.81 887.955 271.233 880.025 274.931Z" fill="white"/>
<path d="M872.705 237.631C871.159 228.716 882.584 211.386 882.584 211.386C882.584 211.386 899.547 223.435 901.253 232.01C903.061 241.101 889.446 252.568 889.446 252.568C889.446 252.568 874.207 246.288 872.705 237.631Z" fill="white"/>
<path d="M893.388 193.267C884.613 191.061 873.413 173.584 873.413 173.584C873.413 173.584 891.311 162.973 899.841 164.895C908.882 166.933 913.835 184.031 913.835 184.031C913.835 184.031 901.909 195.409 893.388 193.267Z" fill="white"/>
<path d="M909.368 158.942C912.467 150.441 931.005 141.104 931.005 141.104C931.005 141.104 939.714 160 936.923 168.286C933.963 177.069 916.445 180.232 916.445 180.232C916.445 180.232 906.358 167.197 909.368 158.942Z" fill="white"/>
<path d="M941.359 205.226C935.546 198.292 936.729 177.568 936.729 177.568C936.729 177.568 957.448 179.474 963.228 186.035C969.355 192.989 963.336 209.742 963.336 209.742C963.336 209.742 947.003 211.96 941.359 205.226Z" fill="white"/>
<path d="M1025.52 210.278C1028.22 202.145 1045.18 194.781 1045.18 194.781C1045.18 194.781 1053.13 214.54 1050.71 222.474C1048.15 230.885 1031.75 233.44 1031.75 233.44C1031.75 233.44 1022.89 218.176 1025.52 210.278Z" fill="white"/>
<path d="M972.589 187.486C978.583 181.359 997.054 182.173 997.054 182.173C997.054 182.173 995.545 203.42 989.894 209.492C983.904 215.929 968.046 211.038 968.046 211.038C968.046 211.038 966.77 193.435 972.589 187.486Z" fill="white"/>
<path d="M1058.82 236.603C1065.97 241.318 1068.7 259.605 1068.7 259.605C1068.7 259.605 1047.55 262.176 1040.52 257.786C1033.05 253.134 1034.83 236.634 1034.83 236.634C1034.83 236.634 1051.87 232.024 1058.82 236.603Z" fill="white"/>
<path d="M1061.46 217.124C1067.12 215.96 1077.13 223.379 1077.13 223.379C1077.13 223.379 1068.28 234.684 1062.83 235.947C1057.06 237.285 1050.04 228.573 1050.04 228.573C1050.04 228.573 1055.96 218.254 1061.46 217.124Z" fill="white"/>
<path d="M962.648 171.364C964.47 165.881 975.903 160.916 975.903 160.916C975.903 160.916 981.266 174.237 979.636 179.586C977.908 185.256 966.854 186.978 966.854 186.978C966.854 186.978 960.88 176.688 962.648 171.364Z" fill="white"/>
<path d="M854.912 246.032C850.087 242.853 848.251 230.525 848.251 230.525C848.251 230.525 862.505 228.792 867.251 231.751C872.28 234.888 871.083 246.011 871.083 246.011C871.083 246.011 859.597 249.118 854.912 246.032Z" fill="white"/>
<path d="M890.072 161.639C885.247 158.461 883.411 146.132 883.411 146.132C883.411 146.132 897.666 144.399 902.411 147.358C907.44 150.495 906.243 161.618 906.243 161.618C906.243 161.618 894.757 164.726 890.072 161.639Z" fill="white"/>
<path d="M1203.83 196.1H1190.57L1183.08 551.929H1211.32L1203.83 196.1Z" fill="white"/>
<path d="M1179.34 209.606L1183.87 197.144C1184.39 195.711 1184.27 194.123 1183.53 192.787C1181.87 189.762 1177.8 189.115 1175.28 191.475L1105.44 256.882C1104.65 257.618 1104.63 258.859 1105.39 259.62C1106 260.228 1106.94 260.354 1107.68 259.928L1164 227.796C1171.1 223.741 1176.54 217.295 1179.34 209.606Z" fill="white"/>
<path d="M1227.26 188.334L1214.21 190.64C1212.7 190.905 1211.39 191.806 1210.6 193.11C1208.81 196.063 1210.29 199.91 1213.59 200.912L1305.16 228.693C1306.19 229.006 1307.27 228.403 1307.55 227.363C1307.77 226.533 1307.41 225.658 1306.67 225.225L1250.69 192.521C1243.62 188.395 1235.32 186.911 1227.26 188.334Z" fill="white"/>
<path d="M1186.38 157.763L1194.91 167.919C1195.89 169.087 1197.33 169.775 1198.85 169.806C1202.3 169.878 1204.9 166.678 1204.11 163.316L1182.39 70.1276C1182.15 69.0789 1181.08 68.441 1180.04 68.7197C1179.21 68.942 1178.63 69.6917 1178.63 70.5505L1178.3 135.386C1178.26 143.567 1181.12 151.497 1186.38 157.763Z" fill="white"/>
<path d="M1218.58 185.208C1218.58 196.571 1209.36 205.783 1198 205.783C1186.64 205.783 1177.43 196.571 1177.43 185.208C1177.43 173.845 1186.64 164.633 1198 164.633C1209.36 164.633 1218.58 173.845 1218.58 185.208Z" fill="white"/>
<path d="M1350.69 346H1341.31L1336 594H1356L1350.69 346Z" fill="white"/>
<path d="M1333.93 355.408L1336.99 346.983C1337.34 346.014 1337.26 344.941 1336.77 344.037C1335.64 341.992 1332.89 341.555 1331.19 343.15L1283.97 387.368C1283.44 387.866 1283.43 388.704 1283.94 389.219C1284.35 389.63 1284.99 389.715 1285.49 389.427L1323.56 367.705C1328.36 364.964 1332.04 360.606 1333.93 355.408Z" fill="white"/>
<path d="M1366.34 341.024L1357.51 342.584C1356.49 342.763 1355.61 343.371 1355.07 344.253C1353.86 346.25 1354.86 348.85 1357.09 349.528L1418.99 368.309C1419.69 368.52 1420.42 368.112 1420.61 367.409C1420.76 366.849 1420.52 366.257 1420.02 365.964L1382.17 343.855C1377.39 341.065 1371.78 340.062 1366.34 341.024Z" fill="white"/>
<path d="M1338.69 320.359L1344.45 327.225C1345.11 328.014 1346.09 328.479 1347.12 328.5C1349.45 328.549 1351.2 326.386 1350.67 324.113L1335.99 261.114C1335.82 260.405 1335.1 259.974 1334.4 260.163C1333.84 260.313 1333.45 260.82 1333.45 261.4L1333.22 305.231C1333.19 310.762 1335.13 316.123 1338.69 320.359Z" fill="white"/>
<path d="M1360.46 338.913C1360.46 346.595 1354.24 352.823 1346.55 352.823C1338.87 352.823 1332.64 346.595 1332.64 338.913C1332.64 331.231 1338.87 325.004 1346.55 325.004C1354.24 325.004 1360.46 331.231 1360.46 338.913Z" fill="white"/>
<circle cx="379" cy="517" r="26" fill="#28B9B3"/>
<circle cx="442" cy="453" r="24" fill="#9BE3E0"/>
<circle cx="562" cy="417" r="12" fill="white" fill-opacity="0.4"/>
<circle cx="983" cy="461" r="12" fill="#25BCB1"/>
<circle cx="1003" cy="508" r="9" fill="#32B0B6"/>
<circle cx="107" cy="93" r="8" fill="white" fill-opacity="0.4"/>
<circle cx="682" cy="157" r="8" fill="white" fill-opacity="0.4"/>
<circle cx="87" cy="385" r="12" fill="#21BFB0"/>
<circle cx="1374" cy="619" r="12" fill="#34AEB7"/>
<circle cx="1406" cy="560" r="8" fill="white" fill-opacity="0.4"/>
</g>
<defs>
<linearGradient id="paint0_linear" x1="729.519" y1="-0.5" x2="729.519" y2="627.729" gradientUnits="userSpaceOnUse">
<stop stop-color="#00DEA3"/>
<stop offset="1" stop-color="#36ACB8"/>
</linearGradient>
</defs>
</svg>
