<svg width="319" height="637" viewBox="0 0 319 637" fill="none" xmlns="http://www.w3.org/2000/svg">
<path d="M236.012 618.067C269.17 618.067 296.042 591.171 296.012 558.012L295.574 75.7612C295.545 44.3677 270.088 18.9332 238.694 18.9332H237.666C237.187 18.9332 236.798 19.3216 236.798 19.8006C236.798 31.777 227.09 41.4857 215.113 41.4857H157.82H100.527C88.5509 41.4857 78.8422 31.777 78.8422 19.8006C78.8422 19.3216 78.4538 18.9332 77.9748 18.9332H76.9495C45.5709 18.9332 20.1415 44.3858 20.1699 75.7645L20.6077 558.121C20.6377 591.237 47.4918 618.067 80.6077 618.067H236.012Z" fill="white"/>
<path d="M49.739 83.535C49.739 84.095 49.669 84.5967 49.529 85.04C49.3937 85.4833 49.1907 85.859 48.92 86.167C48.654 86.4703 48.325 86.7037 47.933 86.867C47.541 87.0303 47.0907 87.112 46.582 87.112C46.12 87.112 45.6487 87.0467 45.168 86.916C45.1773 86.7807 45.189 86.6477 45.203 86.517C45.217 86.3817 45.2287 86.2487 45.238 86.118C45.2473 86.0387 45.2753 85.9757 45.322 85.929C45.3733 85.8777 45.4503 85.852 45.553 85.852C45.637 85.852 45.7467 85.873 45.882 85.915C46.022 85.957 46.2087 85.978 46.442 85.978C46.75 85.978 47.0253 85.9313 47.268 85.838C47.5107 85.7447 47.7137 85.6 47.877 85.404C48.0403 85.208 48.164 84.9583 48.248 84.655C48.3367 84.347 48.381 83.983 48.381 83.563V76.969H49.739V83.535ZM57.5465 79.909V87H56.8045C56.6272 87 56.5152 86.9137 56.4685 86.741L56.3705 85.978C56.0625 86.3187 55.7172 86.594 55.3345 86.804C54.9518 87.0093 54.5132 87.112 54.0185 87.112C53.6312 87.112 53.2882 87.049 52.9895 86.923C52.6955 86.7923 52.4482 86.6103 52.2475 86.377C52.0468 86.1437 51.8952 85.8613 51.7925 85.53C51.6945 85.1987 51.6455 84.8323 51.6455 84.431V79.909H52.8915V84.431C52.8915 84.9677 53.0128 85.383 53.2555 85.677C53.5028 85.971 53.8785 86.118 54.3825 86.118C54.7512 86.118 55.0942 86.0317 55.4115 85.859C55.7335 85.6817 56.0298 85.439 56.3005 85.131V79.909H57.5465ZM60.6982 80.938C60.8522 80.7653 61.0155 80.609 61.1882 80.469C61.3608 80.329 61.5428 80.21 61.7342 80.112C61.9302 80.0093 62.1355 79.9323 62.3502 79.881C62.5695 79.825 62.8052 79.797 63.0572 79.797C63.4445 79.797 63.7852 79.8623 64.0792 79.993C64.3778 80.119 64.6252 80.301 64.8212 80.539C65.0218 80.7723 65.1735 81.0547 65.2762 81.386C65.3788 81.7173 65.4302 82.0837 65.4302 82.485V87H64.1772V82.485C64.1772 81.9483 64.0535 81.533 63.8062 81.239C63.5635 80.9403 63.1925 80.791 62.6932 80.791C62.3245 80.791 61.9792 80.8797 61.6572 81.057C61.3398 81.2343 61.0458 81.4747 60.7752 81.778V87H59.5222V79.909H60.2712C60.4485 79.909 60.5582 79.9953 60.6002 80.168L60.6982 80.938ZM72.0748 82.681C72.0748 82.3917 72.0328 82.128 71.9488 81.89C71.8695 81.6473 71.7505 81.4397 71.5918 81.267C71.4378 81.0897 71.2488 80.9543 71.0248 80.861C70.8008 80.763 70.5465 80.714 70.2618 80.714C69.6645 80.714 69.1908 80.889 68.8408 81.239C68.4955 81.5843 68.2808 82.065 68.1968 82.681H72.0748ZM73.0828 86.006C72.9288 86.1927 72.7445 86.356 72.5298 86.496C72.3151 86.6313 72.0841 86.7433 71.8368 86.832C71.5941 86.9207 71.3421 86.986 71.0808 87.028C70.8195 87.0747 70.5605 87.098 70.3038 87.098C69.8138 87.098 69.3611 87.0163 68.9458 86.853C68.5351 86.685 68.1781 86.4423 67.8748 86.125C67.5761 85.803 67.3428 85.4063 67.1748 84.935C67.0068 84.4637 66.9228 83.9223 66.9228 83.311C66.9228 82.8163 66.9975 82.3543 67.1468 81.925C67.3008 81.4957 67.5201 81.1247 67.8048 80.812C68.0895 80.4947 68.4371 80.2473 68.8478 80.07C69.2585 79.888 69.7205 79.797 70.2338 79.797C70.6585 79.797 71.0505 79.8693 71.4098 80.014C71.7738 80.154 72.0865 80.3593 72.3478 80.63C72.6138 80.896 72.8215 81.2273 72.9708 81.624C73.1201 82.016 73.1948 82.464 73.1948 82.968C73.1948 83.164 73.1738 83.2947 73.1318 83.36C73.0898 83.4253 73.0105 83.458 72.8938 83.458H68.1548C68.1688 83.906 68.2295 84.2957 68.3368 84.627C68.4488 84.9583 68.6028 85.236 68.7988 85.46C68.9948 85.6793 69.2281 85.845 69.4988 85.957C69.7695 86.0643 70.0728 86.118 70.4088 86.118C70.7215 86.118 70.9898 86.083 71.2138 86.013C71.4425 85.9383 71.6385 85.859 71.8018 85.775C71.9651 85.691 72.1005 85.614 72.2078 85.544C72.3198 85.4693 72.4155 85.432 72.4948 85.432C72.5975 85.432 72.6768 85.4717 72.7328 85.551L73.0828 86.006ZM84.2293 85.817C84.3646 85.817 84.472 85.8567 84.5513 85.936C84.6306 86.0153 84.6703 86.118 84.6703 86.244V87H77.9783V86.573C77.9783 86.4843 77.997 86.3933 78.0343 86.3C78.0716 86.2067 78.13 86.1203 78.2093 86.041L81.4223 82.814C81.6883 82.5433 81.931 82.2843 82.1503 82.037C82.3696 81.785 82.5563 81.533 82.7103 81.281C82.8643 81.029 82.9833 80.7747 83.0673 80.518C83.1513 80.2567 83.1933 79.979 83.1933 79.685C83.1933 79.391 83.1466 79.1343 83.0533 78.915C82.96 78.691 82.8316 78.5067 82.6683 78.362C82.5096 78.2173 82.3206 78.11 82.1013 78.04C81.882 77.9653 81.6463 77.928 81.3943 77.928C81.1376 77.928 80.902 77.9653 80.6873 78.04C80.4726 78.1147 80.2813 78.2197 80.1133 78.355C79.95 78.4857 79.8123 78.642 79.7003 78.824C79.5883 79.006 79.509 79.2067 79.4623 79.426C79.4063 79.5893 79.3293 79.699 79.2313 79.755C79.138 79.8063 79.005 79.8203 78.8323 79.797L78.1813 79.685C78.2466 79.2277 78.3726 78.824 78.5593 78.474C78.7506 78.1193 78.9886 77.823 79.2733 77.585C79.5626 77.347 79.8916 77.1673 80.2603 77.046C80.629 76.92 81.028 76.857 81.4573 76.857C81.882 76.857 82.2786 76.92 82.6473 77.046C83.016 77.172 83.3356 77.3563 83.6063 77.599C83.877 77.837 84.0893 78.1287 84.2433 78.474C84.3973 78.8193 84.4743 79.2113 84.4743 79.65C84.4743 80.0233 84.4183 80.371 84.3063 80.693C84.1943 81.0103 84.0426 81.3137 83.8513 81.603C83.66 81.8923 83.4383 82.1747 83.1863 82.45C82.939 82.7253 82.6753 83.003 82.3953 83.283L79.7493 85.985C79.936 85.9337 80.125 85.894 80.3163 85.866C80.5076 85.8333 80.692 85.817 80.8693 85.817H84.2293ZM93.1414 81.988C93.1414 82.8653 93.0457 83.626 92.8544 84.27C92.6677 84.9093 92.4111 85.439 92.0844 85.859C91.7577 86.279 91.3704 86.5917 90.9224 86.797C90.4791 87.0023 90.0031 87.105 89.4944 87.105C88.9811 87.105 88.5027 87.0023 88.0594 86.797C87.6207 86.5917 87.2381 86.279 86.9114 85.859C86.5847 85.439 86.3281 84.9093 86.1414 84.27C85.9547 83.626 85.8614 82.8653 85.8614 81.988C85.8614 81.1107 85.9547 80.35 86.1414 79.706C86.3281 79.062 86.5847 78.53 86.9114 78.11C87.2381 77.6853 87.6207 77.3703 88.0594 77.165C88.5027 76.9597 88.9811 76.857 89.4944 76.857C90.0031 76.857 90.4791 76.9597 90.9224 77.165C91.3704 77.3703 91.7577 77.6853 92.0844 78.11C92.4111 78.53 92.6677 79.062 92.8544 79.706C93.0457 80.35 93.1414 81.1107 93.1414 81.988ZM91.8464 81.988C91.8464 81.2227 91.7811 80.581 91.6504 80.063C91.5244 79.5403 91.3517 79.1203 91.1324 78.803C90.9177 78.4857 90.6681 78.2593 90.3834 78.124C90.0987 77.984 89.8024 77.914 89.4944 77.914C89.1864 77.914 88.8901 77.984 88.6054 78.124C88.3207 78.2593 88.0711 78.4857 87.8564 78.803C87.6417 79.1203 87.4691 79.5403 87.3384 80.063C87.2124 80.581 87.1494 81.2227 87.1494 81.988C87.1494 82.7533 87.2124 83.395 87.3384 83.913C87.4691 84.431 87.6417 84.8487 87.8564 85.166C88.0711 85.4833 88.3207 85.712 88.6054 85.852C88.8901 85.9873 89.1864 86.055 89.4944 86.055C89.8024 86.055 90.0987 85.9873 90.3834 85.852C90.6681 85.712 90.9177 85.4833 91.1324 85.166C91.3517 84.8487 91.5244 84.431 91.6504 83.913C91.7811 83.395 91.8464 82.7533 91.8464 81.988ZM100.689 86.048V87H95.3125V86.048H97.4615V79.209C97.4615 79.0037 97.4685 78.796 97.4825 78.586L95.6975 80.119C95.6368 80.1703 95.5762 80.203 95.5155 80.217C95.4548 80.2263 95.3988 80.2263 95.3475 80.217C95.2962 80.2077 95.2472 80.189 95.2005 80.161C95.1585 80.133 95.1258 80.1027 95.1025 80.07L94.7105 79.531L97.6995 76.948H98.7145V86.048H100.689ZM103.665 79.916C103.665 80.2333 103.709 80.518 103.798 80.77C103.891 81.0173 104.022 81.2273 104.19 81.4C104.362 81.5727 104.57 81.7033 104.813 81.792C105.06 81.8807 105.335 81.925 105.639 81.925C105.975 81.925 106.271 81.8713 106.528 81.764C106.789 81.652 107.008 81.505 107.186 81.323C107.363 81.141 107.498 80.931 107.592 80.693C107.685 80.455 107.732 80.2077 107.732 79.951C107.732 79.6383 107.68 79.356 107.578 79.104C107.48 78.8473 107.342 78.6303 107.165 78.453C106.987 78.2757 106.775 78.1403 106.528 78.047C106.285 77.949 106.017 77.9 105.723 77.9C105.415 77.9 105.135 77.9513 104.883 78.054C104.631 78.152 104.414 78.2897 104.232 78.467C104.05 78.6443 103.91 78.8567 103.812 79.104C103.714 79.3513 103.665 79.622 103.665 79.916ZM106.577 83.003C106.679 82.8677 106.775 82.7393 106.864 82.618C106.952 82.4967 107.036 82.3753 107.116 82.254C106.859 82.4593 106.57 82.6157 106.248 82.723C105.926 82.8303 105.585 82.884 105.226 82.884C104.848 82.884 104.488 82.821 104.148 82.695C103.812 82.569 103.515 82.3847 103.259 82.142C103.002 81.8947 102.797 81.5937 102.643 81.239C102.493 80.8797 102.419 80.469 102.419 80.007C102.419 79.5683 102.5 79.1577 102.664 78.775C102.827 78.3923 103.056 78.0587 103.35 77.774C103.644 77.4893 103.994 77.2653 104.4 77.102C104.806 76.9387 105.251 76.857 105.737 76.857C106.217 76.857 106.654 76.9363 107.046 77.095C107.438 77.2537 107.774 77.4753 108.054 77.76C108.334 78.0447 108.548 78.3853 108.698 78.782C108.852 79.1787 108.929 79.6173 108.929 80.098C108.929 80.3873 108.901 80.6627 108.845 80.924C108.793 81.1807 108.716 81.435 108.614 81.687C108.516 81.9343 108.394 82.1817 108.25 82.429C108.105 82.6717 107.942 82.9213 107.76 83.178L105.317 86.706C105.256 86.7947 105.17 86.867 105.058 86.923C104.946 86.9743 104.817 87 104.673 87H103.525L106.577 83.003Z" fill="#99A3AE"/>
<circle cx="260" cy="55" r="7.5" fill="white" stroke="#36ACB8"/>
<circle cx="260" cy="53" r="2.5" stroke="#36ACB8"/>
<path d="M264 59.5C264 57.2909 262.209 55.5 260 55.5C257.791 55.5 256 57.2909 256 59.5" stroke="#36ACB8" stroke-linecap="round" stroke-linejoin="round"/>
<path d="M47 55.5L51.1538 60M47 55.5L51.1538 51M47 55.5H56" stroke="#7A838D"/>
<path d="M52.7 105.988C52.7 106.865 52.6043 107.626 52.413 108.27C52.2263 108.909 51.9697 109.439 51.643 109.859C51.3163 110.279 50.929 110.592 50.481 110.797C50.0377 111.002 49.5617 111.105 49.053 111.105C48.5397 111.105 48.0613 111.002 47.618 110.797C47.1793 110.592 46.7967 110.279 46.47 109.859C46.1433 109.439 45.8867 108.909 45.7 108.27C45.5133 107.626 45.42 106.865 45.42 105.988C45.42 105.111 45.5133 104.35 45.7 103.706C45.8867 103.062 46.1433 102.53 46.47 102.11C46.7967 101.685 47.1793 101.37 47.618 101.165C48.0613 100.96 48.5397 100.857 49.053 100.857C49.5617 100.857 50.0377 100.96 50.481 101.165C50.929 101.37 51.3163 101.685 51.643 102.11C51.9697 102.53 52.2263 103.062 52.413 103.706C52.6043 104.35 52.7 105.111 52.7 105.988ZM51.405 105.988C51.405 105.223 51.3397 104.581 51.209 104.063C51.083 103.54 50.9103 103.12 50.691 102.803C50.4763 102.486 50.2267 102.259 49.942 102.124C49.6573 101.984 49.361 101.914 49.053 101.914C48.745 101.914 48.4487 101.984 48.164 102.124C47.8793 102.259 47.6297 102.486 47.415 102.803C47.2003 103.12 47.0277 103.54 46.897 104.063C46.771 104.581 46.708 105.223 46.708 105.988C46.708 106.753 46.771 107.395 46.897 107.913C47.0277 108.431 47.2003 108.849 47.415 109.166C47.6297 109.483 47.8793 109.712 48.164 109.852C48.4487 109.987 48.745 110.055 49.053 110.055C49.361 110.055 49.6573 109.987 49.942 109.852C50.2267 109.712 50.4763 109.483 50.691 109.166C50.9103 108.849 51.083 108.431 51.209 107.913C51.3397 107.395 51.405 106.753 51.405 105.988ZM53.8981 110.23C53.8981 110.109 53.9191 109.994 53.9611 109.887C54.0078 109.78 54.0684 109.686 54.1431 109.607C54.2224 109.528 54.3158 109.465 54.4231 109.418C54.5304 109.371 54.6448 109.348 54.7661 109.348C54.8874 109.348 55.0018 109.371 55.1091 109.418C55.2164 109.465 55.3098 109.528 55.3891 109.607C55.4684 109.686 55.5314 109.78 55.5781 109.887C55.6248 109.994 55.6481 110.109 55.6481 110.23C55.6481 110.356 55.6248 110.473 55.5781 110.58C55.5314 110.683 55.4684 110.774 55.3891 110.853C55.3098 110.932 55.2164 110.993 55.1091 111.035C55.0018 111.082 54.8874 111.105 54.7661 111.105C54.6448 111.105 54.5304 111.082 54.4231 111.035C54.3158 110.993 54.2224 110.932 54.1431 110.853C54.0684 110.774 54.0078 110.683 53.9611 110.58C53.9191 110.473 53.8981 110.356 53.8981 110.23ZM60.4757 110.076C60.8117 110.076 61.115 110.022 61.3857 109.915C61.661 109.808 61.8944 109.658 62.0857 109.467C62.2817 109.276 62.431 109.049 62.5337 108.788C62.641 108.527 62.6947 108.242 62.6947 107.934C62.6947 107.607 62.6434 107.313 62.5407 107.052C62.438 106.786 62.291 106.562 62.0997 106.38C61.913 106.193 61.689 106.051 61.4277 105.953C61.1664 105.855 60.8794 105.806 60.5667 105.806C60.2307 105.806 59.9274 105.864 59.6567 105.981C59.386 106.093 59.155 106.247 58.9637 106.443C58.777 106.634 58.6324 106.858 58.5297 107.115C58.4317 107.367 58.3827 107.631 58.3827 107.906C58.3827 108.228 58.4294 108.522 58.5227 108.788C58.616 109.054 58.7514 109.283 58.9287 109.474C59.1107 109.665 59.33 109.815 59.5867 109.922C59.848 110.025 60.1444 110.076 60.4757 110.076ZM59.7477 104.728C59.659 104.84 59.5727 104.95 59.4887 105.057C59.4094 105.16 59.3324 105.262 59.2577 105.365C59.4957 105.202 59.757 105.076 60.0417 104.987C60.3264 104.898 60.6367 104.854 60.9727 104.854C61.3787 104.854 61.7614 104.922 62.1207 105.057C62.48 105.188 62.7927 105.381 63.0587 105.638C63.3294 105.89 63.544 106.203 63.7027 106.576C63.8614 106.945 63.9407 107.367 63.9407 107.843C63.9407 108.305 63.8567 108.734 63.6887 109.131C63.5207 109.528 63.285 109.873 62.9817 110.167C62.683 110.461 62.3214 110.692 61.8967 110.86C61.4767 111.028 61.0124 111.112 60.5037 111.112C59.9997 111.112 59.5424 111.033 59.1317 110.874C58.721 110.711 58.371 110.482 58.0817 110.188C57.797 109.889 57.5754 109.53 57.4167 109.11C57.2627 108.685 57.1857 108.212 57.1857 107.689C57.1857 107.25 57.2814 106.784 57.4727 106.289C57.6687 105.79 57.979 105.258 58.4037 104.693L60.9517 101.27C61.017 101.186 61.1057 101.116 61.2177 101.06C61.3344 100.999 61.4674 100.969 61.6167 100.969H62.7227L59.7477 104.728ZM67.0848 104.756C67.6074 104.644 68.0881 104.588 68.5268 104.588C69.0494 104.588 69.5114 104.665 69.9128 104.819C70.3141 104.973 70.6478 105.185 70.9138 105.456C71.1844 105.727 71.3874 106.046 71.5228 106.415C71.6628 106.784 71.7328 107.185 71.7328 107.619C71.7328 108.151 71.6394 108.632 71.4528 109.061C71.2708 109.49 71.0164 109.859 70.6898 110.167C70.3678 110.47 69.9874 110.704 69.5488 110.867C69.1101 111.03 68.6364 111.112 68.1278 111.112C67.8338 111.112 67.5514 111.082 67.2808 111.021C67.0101 110.965 66.7558 110.888 66.5178 110.79C66.2844 110.692 66.0674 110.58 65.8668 110.454C65.6661 110.328 65.4888 110.195 65.3348 110.055L65.7198 109.523C65.8038 109.402 65.9134 109.341 66.0488 109.341C66.1421 109.341 66.2471 109.378 66.3638 109.453C66.4804 109.523 66.6228 109.602 66.7908 109.691C66.9588 109.78 67.1548 109.861 67.3788 109.936C67.6074 110.006 67.8781 110.041 68.1908 110.041C68.5408 110.041 68.8558 109.985 69.1358 109.873C69.4158 109.761 69.6561 109.602 69.8568 109.397C70.0574 109.187 70.2114 108.937 70.3188 108.648C70.4261 108.359 70.4798 108.034 70.4798 107.675C70.4798 107.362 70.4331 107.08 70.3398 106.828C70.2511 106.576 70.1134 106.361 69.9268 106.184C69.7448 106.007 69.5161 105.869 69.2408 105.771C68.9654 105.673 68.6434 105.624 68.2748 105.624C68.0228 105.624 67.7591 105.645 67.4838 105.687C67.2131 105.729 66.9354 105.797 66.6508 105.89L65.8668 105.659L66.6718 100.969H71.4248V101.515C71.4248 101.692 71.3688 101.839 71.2568 101.956C71.1494 102.068 70.9628 102.124 70.6968 102.124H67.5468L67.0848 104.756ZM83.8941 102.11H80.6461V111H79.2951V102.11H76.0401V100.969H83.8941V102.11ZM95.5828 108.928C95.6574 108.928 95.7228 108.958 95.7788 109.019L96.3178 109.6C95.9071 110.076 95.4078 110.447 94.8198 110.713C94.2364 110.979 93.5294 111.112 92.6988 111.112C91.9801 111.112 91.3268 110.988 90.7388 110.741C90.1508 110.489 89.6491 110.139 89.2338 109.691C88.8184 109.238 88.4964 108.697 88.2678 108.067C88.0391 107.437 87.9248 106.744 87.9248 105.988C87.9248 105.232 88.0438 104.539 88.2818 103.909C88.5198 103.279 88.8534 102.738 89.2828 102.285C89.7168 101.832 90.2348 101.482 90.8368 101.235C91.4388 100.983 92.1038 100.857 92.8318 100.857C93.5458 100.857 94.1758 100.971 94.7218 101.2C95.2678 101.429 95.7484 101.739 96.1638 102.131L95.7158 102.754C95.6878 102.801 95.6504 102.84 95.6038 102.873C95.5618 102.901 95.5034 102.915 95.4288 102.915C95.3448 102.915 95.2421 102.871 95.1208 102.782C94.9994 102.689 94.8408 102.586 94.6448 102.474C94.4488 102.362 94.2038 102.262 93.9098 102.173C93.6158 102.08 93.2541 102.033 92.8248 102.033C92.3068 102.033 91.8331 102.124 91.4038 102.306C90.9744 102.483 90.6034 102.742 90.2908 103.083C89.9828 103.424 89.7424 103.839 89.5698 104.329C89.3971 104.819 89.3108 105.372 89.3108 105.988C89.3108 106.613 89.3994 107.171 89.5768 107.661C89.7588 108.151 90.0038 108.566 90.3118 108.907C90.6244 109.243 90.9908 109.5 91.4108 109.677C91.8354 109.854 92.2928 109.943 92.7828 109.943C93.0814 109.943 93.3498 109.927 93.5878 109.894C93.8304 109.857 94.0521 109.801 94.2528 109.726C94.4581 109.651 94.6471 109.558 94.8198 109.446C94.9971 109.329 95.1721 109.192 95.3448 109.033C95.4241 108.963 95.5034 108.928 95.5828 108.928ZM106.969 105.988C106.969 106.739 106.85 107.43 106.612 108.06C106.374 108.685 106.038 109.224 105.604 109.677C105.17 110.13 104.647 110.482 104.036 110.734C103.429 110.981 102.757 111.105 102.02 111.105C101.283 111.105 100.611 110.981 100.004 110.734C99.3973 110.482 98.8769 110.13 98.4429 109.677C98.0089 109.224 97.6729 108.685 97.4349 108.06C97.1969 107.43 97.0779 106.739 97.0779 105.988C97.0779 105.237 97.1969 104.548 97.4349 103.923C97.6729 103.293 98.0089 102.752 98.4429 102.299C98.8769 101.842 99.3973 101.487 100.004 101.235C100.611 100.983 101.283 100.857 102.02 100.857C102.757 100.857 103.429 100.983 104.036 101.235C104.647 101.487 105.17 101.842 105.604 102.299C106.038 102.752 106.374 103.293 106.612 103.923C106.85 104.548 106.969 105.237 106.969 105.988ZM105.576 105.988C105.576 105.372 105.492 104.819 105.324 104.329C105.156 103.839 104.918 103.426 104.61 103.09C104.302 102.749 103.929 102.488 103.49 102.306C103.051 102.124 102.561 102.033 102.02 102.033C101.483 102.033 100.996 102.124 100.557 102.306C100.118 102.488 99.7426 102.749 99.4299 103.09C99.1219 103.426 98.8839 103.839 98.7159 104.329C98.5479 104.819 98.4639 105.372 98.4639 105.988C98.4639 106.604 98.5479 107.157 98.7159 107.647C98.8839 108.132 99.1219 108.545 99.4299 108.886C99.7426 109.222 100.118 109.481 100.557 109.663C100.996 109.84 101.483 109.929 102.02 109.929C102.561 109.929 103.051 109.84 103.49 109.663C103.929 109.481 104.302 109.222 104.61 108.886C104.918 108.545 105.156 108.132 105.324 107.647C105.492 107.157 105.576 106.604 105.576 105.988ZM114.54 109.817C114.675 109.817 114.783 109.857 114.862 109.936C114.941 110.015 114.981 110.118 114.981 110.244V111H108.289V110.573C108.289 110.484 108.308 110.393 108.345 110.3C108.382 110.207 108.441 110.12 108.52 110.041L111.733 106.814C111.999 106.543 112.242 106.284 112.461 106.037C112.68 105.785 112.867 105.533 113.021 105.281C113.175 105.029 113.294 104.775 113.378 104.518C113.462 104.257 113.504 103.979 113.504 103.685C113.504 103.391 113.457 103.134 113.364 102.915C113.271 102.691 113.142 102.507 112.979 102.362C112.82 102.217 112.631 102.11 112.412 102.04C112.193 101.965 111.957 101.928 111.705 101.928C111.448 101.928 111.213 101.965 110.998 102.04C110.783 102.115 110.592 102.22 110.424 102.355C110.261 102.486 110.123 102.642 110.011 102.824C109.899 103.006 109.82 103.207 109.773 103.426C109.717 103.589 109.64 103.699 109.542 103.755C109.449 103.806 109.316 103.82 109.143 103.797L108.492 103.685C108.557 103.228 108.683 102.824 108.87 102.474C109.061 102.119 109.299 101.823 109.584 101.585C109.873 101.347 110.202 101.167 110.571 101.046C110.94 100.92 111.339 100.857 111.768 100.857C112.193 100.857 112.589 100.92 112.958 101.046C113.327 101.172 113.646 101.356 113.917 101.599C114.188 101.837 114.4 102.129 114.554 102.474C114.708 102.819 114.785 103.211 114.785 103.65C114.785 104.023 114.729 104.371 114.617 104.693C114.505 105.01 114.353 105.314 114.162 105.603C113.971 105.892 113.749 106.175 113.497 106.45C113.25 106.725 112.986 107.003 112.706 107.283L110.06 109.985C110.247 109.934 110.436 109.894 110.627 109.866C110.818 109.833 111.003 109.817 111.18 109.817H114.54Z" fill="#99A3AE"/>
<path d="M46 559L46 481.793C46 478.479 48.6863 475.793 52 475.793C55.3137 475.793 58 478.479 58 481.793L58 559L46 559Z" fill="#EFEFEF"/>
<path d="M98 559L98 460.991C98 457.678 100.686 454.991 104 454.991C107.314 454.991 110 457.678 110 460.991L110 559L98 559Z" fill="#EFEFEF"/>
<path d="M150 559L150 488.362C150 485.048 152.686 482.362 156 482.362C159.314 482.362 162 485.048 162 488.362L162 559L150 559Z" fill="#EFEFEF"/>
<rect x="202" y="559" width="127" height="12" rx="6" transform="rotate(-90 202 559)" fill="#EFEFEF"/>
<path d="M254 559L254 501.5C254 498.186 256.686 495.5 260 495.5C263.314 495.5 266 498.186 266 501.5L266 559L254 559Z" fill="#EFEFEF"/>
<path d="M20.5469 559H296.001V560H20.5469V559Z" fill="#EFEFEF"/>
<path d="M46 559L46 549C46 545.686 48.6863 543 52 543C55.3137 543 58 545.686 58 549L58 559L46 559Z" fill="#00D1DE" fill-opacity="0.3"/>
<path d="M98 559L98 527C98 523.686 100.686 521 104 521C107.314 521 110 523.686 110 527L110 559L98 559Z" fill="#00D1DE" fill-opacity="0.3"/>
<path d="M150 559L150 542C150 538.686 152.686 536 156 536C159.314 536 162 538.686 162 542L162 559L150 559Z" fill="#00D1DE" fill-opacity="0.3"/>
<path d="M208 566C204.686 566 202 563.314 202 560L202 542C202 538.686 204.686 536 208 536C211.314 536 214 538.686 214 542L214 560C214 563.314 211.314 566 208 566Z" fill="#00D1DE"/>
<path d="M210 560C210 561.105 209.105 562 208 562C206.895 562 206 561.105 206 560V558C206 556.895 206.895 556 208 556C209.105 556 210 556.895 210 558V560Z" fill="white"/>
<path d="M254 559L254 545C254 541.686 256.686 539 260 539C263.314 539 266 541.686 266 545L266 559L254 559Z" fill="#00D1DE" fill-opacity="0.3"/>
<path d="M111.003 384.536L106.331 396H104.939L100.267 384.536H101.507C101.645 384.536 101.757 384.571 101.843 384.64C101.928 384.709 101.992 384.797 102.035 384.904L105.267 392.992C105.336 393.173 105.403 393.371 105.467 393.584C105.536 393.797 105.597 394.021 105.651 394.256C105.704 394.021 105.76 393.797 105.819 393.584C105.877 393.371 105.941 393.173 106.011 392.992L109.235 384.904C109.267 384.813 109.328 384.731 109.419 384.656C109.515 384.576 109.629 384.536 109.763 384.536H111.003ZM113.679 387.896V396H112.255V387.896H113.679ZM113.983 385.352C113.983 385.491 113.954 385.621 113.895 385.744C113.842 385.861 113.767 385.968 113.671 386.064C113.58 386.155 113.471 386.227 113.343 386.28C113.22 386.333 113.09 386.36 112.951 386.36C112.812 386.36 112.682 386.333 112.559 386.28C112.442 386.227 112.338 386.155 112.247 386.064C112.156 385.968 112.084 385.861 112.031 385.744C111.978 385.621 111.951 385.491 111.951 385.352C111.951 385.213 111.978 385.083 112.031 384.96C112.084 384.832 112.156 384.723 112.247 384.632C112.338 384.536 112.442 384.461 112.559 384.408C112.682 384.355 112.812 384.328 112.951 384.328C113.09 384.328 113.22 384.355 113.343 384.408C113.471 384.461 113.58 384.536 113.671 384.632C113.767 384.723 113.842 384.832 113.895 384.96C113.954 385.083 113.983 385.213 113.983 385.352ZM121.443 391.064C121.443 390.733 121.395 390.432 121.299 390.16C121.208 389.883 121.072 389.645 120.891 389.448C120.715 389.245 120.499 389.091 120.243 388.984C119.987 388.872 119.696 388.816 119.371 388.816C118.688 388.816 118.147 389.016 117.747 389.416C117.352 389.811 117.107 390.36 117.011 391.064H121.443ZM122.595 394.864C122.419 395.077 122.208 395.264 121.963 395.424C121.717 395.579 121.453 395.707 121.171 395.808C120.893 395.909 120.605 395.984 120.307 396.032C120.008 396.085 119.712 396.112 119.419 396.112C118.859 396.112 118.341 396.019 117.867 395.832C117.397 395.64 116.989 395.363 116.643 395C116.301 394.632 116.035 394.179 115.843 393.64C115.651 393.101 115.555 392.483 115.555 391.784C115.555 391.219 115.64 390.691 115.811 390.2C115.987 389.709 116.237 389.285 116.563 388.928C116.888 388.565 117.285 388.283 117.755 388.08C118.224 387.872 118.752 387.768 119.339 387.768C119.824 387.768 120.272 387.851 120.683 388.016C121.099 388.176 121.456 388.411 121.755 388.72C122.059 389.024 122.296 389.403 122.467 389.856C122.637 390.304 122.723 390.816 122.723 391.392C122.723 391.616 122.699 391.765 122.651 391.84C122.603 391.915 122.512 391.952 122.379 391.952H116.963C116.979 392.464 117.048 392.909 117.171 393.288C117.299 393.667 117.475 393.984 117.699 394.24C117.923 394.491 118.189 394.68 118.499 394.808C118.808 394.931 119.155 394.992 119.539 394.992C119.896 394.992 120.203 394.952 120.459 394.872C120.72 394.787 120.944 394.696 121.131 394.6C121.317 394.504 121.472 394.416 121.595 394.336C121.723 394.251 121.832 394.208 121.923 394.208C122.04 394.208 122.131 394.253 122.195 394.344L122.595 394.864ZM135.57 387.896L132.946 396H131.818C131.679 396 131.583 395.909 131.53 395.728L129.738 390.232C129.695 390.109 129.66 389.987 129.634 389.864C129.607 389.736 129.58 389.611 129.554 389.488C129.527 389.611 129.5 389.736 129.474 389.864C129.447 389.987 129.412 390.112 129.37 390.24L127.546 395.728C127.498 395.909 127.391 396 127.226 396H126.154L123.53 387.896H124.65C124.762 387.896 124.855 387.925 124.93 387.984C125.01 388.043 125.063 388.112 125.09 388.192L126.642 393.408C126.732 393.792 126.804 394.155 126.858 394.496C126.906 394.32 126.954 394.141 127.002 393.96C127.055 393.779 127.111 393.595 127.17 393.408L128.882 388.16C128.908 388.08 128.954 388.013 129.018 387.96C129.087 387.907 129.17 387.88 129.266 387.88H129.89C129.996 387.88 130.084 387.907 130.154 387.96C130.223 388.013 130.271 388.08 130.298 388.16L131.97 393.408C132.028 393.595 132.082 393.779 132.13 393.96C132.178 394.141 132.223 394.32 132.266 394.496C132.292 394.32 132.324 394.144 132.362 393.968C132.404 393.787 132.45 393.6 132.498 393.408L134.082 388.192C134.108 388.107 134.159 388.037 134.234 387.984C134.308 387.925 134.396 387.896 134.498 387.896H135.57ZM145.082 394.768C145.524 394.768 145.906 394.717 146.226 394.616C146.546 394.515 146.807 394.373 147.01 394.192C147.218 394.005 147.37 393.787 147.466 393.536C147.562 393.28 147.61 393 147.61 392.696C147.61 392.104 147.399 391.637 146.978 391.296C146.556 390.949 145.924 390.776 145.082 390.776H142.602V394.768H145.082ZM142.602 385.76V389.672H144.65C145.087 389.672 145.466 389.624 145.786 389.528C146.111 389.432 146.378 389.299 146.586 389.128C146.799 388.957 146.956 388.752 147.058 388.512C147.159 388.267 147.21 388 147.21 387.712C147.21 387.035 147.007 386.541 146.602 386.232C146.196 385.917 145.567 385.76 144.714 385.76H142.602ZM144.714 384.536C145.418 384.536 146.023 384.605 146.53 384.744C147.042 384.883 147.46 385.08 147.786 385.336C148.116 385.592 148.359 385.907 148.514 386.28C148.668 386.648 148.746 387.064 148.746 387.528C148.746 387.811 148.7 388.083 148.61 388.344C148.524 388.6 148.394 388.84 148.218 389.064C148.042 389.288 147.818 389.491 147.546 389.672C147.279 389.848 146.964 389.992 146.602 390.104C147.444 390.264 148.076 390.565 148.498 391.008C148.924 391.445 149.138 392.021 149.138 392.736C149.138 393.221 149.047 393.664 148.866 394.064C148.69 394.464 148.428 394.808 148.082 395.096C147.74 395.384 147.319 395.608 146.818 395.768C146.316 395.923 145.746 396 145.106 396H141.058V384.536H144.714ZM152.246 389.52C152.502 388.965 152.816 388.533 153.19 388.224C153.563 387.909 154.019 387.752 154.558 387.752C154.728 387.752 154.891 387.771 155.046 387.808C155.206 387.845 155.347 387.904 155.47 387.984L155.366 389.048C155.334 389.181 155.254 389.248 155.126 389.248C155.051 389.248 154.942 389.232 154.798 389.2C154.654 389.168 154.491 389.152 154.31 389.152C154.054 389.152 153.824 389.189 153.622 389.264C153.424 389.339 153.246 389.451 153.086 389.6C152.931 389.744 152.79 389.925 152.662 390.144C152.539 390.357 152.427 390.603 152.326 390.88V396H150.894V387.896H151.71C151.864 387.896 151.971 387.925 152.03 387.984C152.088 388.043 152.128 388.144 152.15 388.288L152.246 389.52ZM161.818 391.064C161.818 390.733 161.77 390.432 161.674 390.16C161.583 389.883 161.447 389.645 161.266 389.448C161.09 389.245 160.874 389.091 160.618 388.984C160.362 388.872 160.071 388.816 159.746 388.816C159.063 388.816 158.522 389.016 158.122 389.416C157.727 389.811 157.482 390.36 157.386 391.064H161.818ZM162.97 394.864C162.794 395.077 162.583 395.264 162.338 395.424C162.092 395.579 161.828 395.707 161.546 395.808C161.268 395.909 160.98 395.984 160.682 396.032C160.383 396.085 160.087 396.112 159.794 396.112C159.234 396.112 158.716 396.019 158.242 395.832C157.772 395.64 157.364 395.363 157.018 395C156.676 394.632 156.41 394.179 156.218 393.64C156.026 393.101 155.93 392.483 155.93 391.784C155.93 391.219 156.015 390.691 156.186 390.2C156.362 389.709 156.612 389.285 156.938 388.928C157.263 388.565 157.66 388.283 158.13 388.08C158.599 387.872 159.127 387.768 159.714 387.768C160.199 387.768 160.647 387.851 161.058 388.016C161.474 388.176 161.831 388.411 162.13 388.72C162.434 389.024 162.671 389.403 162.842 389.856C163.012 390.304 163.098 390.816 163.098 391.392C163.098 391.616 163.074 391.765 163.026 391.84C162.978 391.915 162.887 391.952 162.754 391.952H157.338C157.354 392.464 157.423 392.909 157.546 393.288C157.674 393.667 157.85 393.984 158.074 394.24C158.298 394.491 158.564 394.68 158.874 394.808C159.183 394.931 159.53 394.992 159.914 394.992C160.271 394.992 160.578 394.952 160.834 394.872C161.095 394.787 161.319 394.696 161.506 394.6C161.692 394.504 161.847 394.416 161.97 394.336C162.098 394.251 162.207 394.208 162.298 394.208C162.415 394.208 162.506 394.253 162.57 394.344L162.97 394.864ZM169.239 392.352C168.583 392.373 168.023 392.427 167.559 392.512C167.1 392.592 166.724 392.699 166.431 392.832C166.143 392.965 165.932 393.123 165.799 393.304C165.671 393.485 165.607 393.688 165.607 393.912C165.607 394.125 165.641 394.309 165.711 394.464C165.78 394.619 165.873 394.747 165.991 394.848C166.113 394.944 166.255 395.016 166.415 395.064C166.58 395.107 166.756 395.128 166.943 395.128C167.193 395.128 167.423 395.104 167.631 395.056C167.839 395.003 168.033 394.928 168.215 394.832C168.401 394.736 168.577 394.621 168.743 394.488C168.913 394.355 169.079 394.203 169.239 394.032V392.352ZM164.639 389.04C165.087 388.608 165.569 388.285 166.087 388.072C166.604 387.859 167.177 387.752 167.807 387.752C168.26 387.752 168.663 387.827 169.015 387.976C169.367 388.125 169.663 388.333 169.903 388.6C170.143 388.867 170.324 389.189 170.447 389.568C170.569 389.947 170.631 390.363 170.631 390.816V396H169.999C169.86 396 169.753 395.979 169.679 395.936C169.604 395.888 169.545 395.797 169.503 395.664L169.343 394.896C169.129 395.093 168.921 395.269 168.719 395.424C168.516 395.573 168.303 395.701 168.079 395.808C167.855 395.909 167.615 395.987 167.359 396.04C167.108 396.099 166.828 396.128 166.519 396.128C166.204 396.128 165.908 396.085 165.631 396C165.353 395.909 165.111 395.776 164.903 395.6C164.7 395.424 164.537 395.203 164.415 394.936C164.297 394.664 164.239 394.344 164.239 393.976C164.239 393.656 164.327 393.349 164.503 393.056C164.679 392.757 164.964 392.493 165.359 392.264C165.753 392.035 166.268 391.848 166.903 391.704C167.537 391.555 168.316 391.469 169.239 391.448V390.816C169.239 390.187 169.103 389.712 168.831 389.392C168.559 389.067 168.161 388.904 167.639 388.904C167.287 388.904 166.991 388.949 166.751 389.04C166.516 389.125 166.311 389.224 166.135 389.336C165.964 389.443 165.815 389.541 165.687 389.632C165.564 389.717 165.441 389.76 165.319 389.76C165.223 389.76 165.14 389.736 165.071 389.688C165.001 389.635 164.943 389.571 164.895 389.496L164.639 389.04ZM174.232 384.216V391.152H174.6C174.707 391.152 174.795 391.139 174.864 391.112C174.939 391.08 175.016 391.019 175.096 390.928L177.656 388.184C177.731 388.093 177.808 388.024 177.888 387.976C177.973 387.923 178.085 387.896 178.224 387.896H179.512L176.528 391.072C176.384 391.253 176.229 391.395 176.064 391.496C176.16 391.56 176.245 391.635 176.32 391.72C176.4 391.8 176.475 391.893 176.544 392L179.712 396H178.44C178.317 396 178.211 395.981 178.12 395.944C178.035 395.901 177.96 395.827 177.896 395.72L175.232 392.4C175.152 392.288 175.072 392.216 174.992 392.184C174.917 392.147 174.8 392.128 174.64 392.128H174.232V396H172.8V384.216H174.232ZM185.799 389.824C185.532 389.467 185.244 389.219 184.935 389.08C184.625 388.936 184.279 388.864 183.895 388.864C183.143 388.864 182.564 389.133 182.159 389.672C181.753 390.211 181.551 390.979 181.551 391.976C181.551 392.504 181.596 392.957 181.687 393.336C181.777 393.709 181.911 394.019 182.087 394.264C182.263 394.504 182.479 394.68 182.735 394.792C182.991 394.904 183.281 394.96 183.607 394.96C184.076 394.96 184.484 394.853 184.831 394.64C185.183 394.427 185.505 394.125 185.799 393.736V389.824ZM187.223 384.216V396H186.375C186.172 396 186.044 395.901 185.991 395.704L185.863 394.72C185.516 395.136 185.121 395.472 184.679 395.728C184.236 395.984 183.724 396.112 183.143 396.112C182.679 396.112 182.257 396.024 181.879 395.848C181.5 395.667 181.177 395.403 180.911 395.056C180.644 394.709 180.439 394.277 180.295 393.76C180.151 393.243 180.079 392.648 180.079 391.976C180.079 391.379 180.159 390.824 180.319 390.312C180.479 389.795 180.708 389.347 181.007 388.968C181.305 388.589 181.671 388.293 182.103 388.08C182.54 387.861 183.031 387.752 183.575 387.752C184.071 387.752 184.495 387.837 184.847 388.008C185.204 388.173 185.521 388.405 185.799 388.704V384.216H187.223ZM192.888 387.768C193.48 387.768 194.013 387.867 194.488 388.064C194.962 388.261 195.368 388.541 195.704 388.904C196.04 389.267 196.296 389.707 196.472 390.224C196.653 390.736 196.744 391.309 196.744 391.944C196.744 392.584 196.653 393.16 196.472 393.672C196.296 394.184 196.04 394.621 195.704 394.984C195.368 395.347 194.962 395.627 194.488 395.824C194.013 396.016 193.48 396.112 192.888 396.112C192.29 396.112 191.752 396.016 191.272 395.824C190.797 395.627 190.392 395.347 190.056 394.984C189.72 394.621 189.461 394.184 189.28 393.672C189.104 393.16 189.016 392.584 189.016 391.944C189.016 391.309 189.104 390.736 189.28 390.224C189.461 389.707 189.72 389.267 190.056 388.904C190.392 388.541 190.797 388.261 191.272 388.064C191.752 387.867 192.29 387.768 192.888 387.768ZM192.888 395C193.688 395 194.285 394.733 194.68 394.2C195.074 393.661 195.272 392.912 195.272 391.952C195.272 390.987 195.074 390.235 194.68 389.696C194.285 389.157 193.688 388.888 192.888 388.888C192.482 388.888 192.128 388.957 191.824 389.096C191.525 389.235 191.274 389.435 191.072 389.696C190.874 389.957 190.725 390.28 190.624 390.664C190.528 391.043 190.48 391.472 190.48 391.952C190.48 392.912 190.677 393.661 191.072 394.2C191.472 394.733 192.077 395 192.888 395ZM209.601 387.896L206.977 396H205.849C205.71 396 205.614 395.909 205.561 395.728L203.769 390.232C203.726 390.109 203.692 389.987 203.665 389.864C203.638 389.736 203.612 389.611 203.585 389.488C203.558 389.611 203.532 389.736 203.505 389.864C203.478 389.987 203.444 390.112 203.401 390.24L201.577 395.728C201.529 395.909 201.422 396 201.257 396H200.185L197.561 387.896H198.681C198.793 387.896 198.886 387.925 198.961 387.984C199.041 388.043 199.094 388.112 199.121 388.192L200.673 393.408C200.764 393.792 200.836 394.155 200.889 394.496C200.937 394.32 200.985 394.141 201.033 393.96C201.086 393.779 201.142 393.595 201.201 393.408L202.913 388.16C202.94 388.08 202.985 388.013 203.049 387.96C203.118 387.907 203.201 387.88 203.297 387.88H203.921C204.028 387.88 204.116 387.907 204.185 387.96C204.254 388.013 204.302 388.08 204.329 388.16L206.001 393.408C206.06 393.595 206.113 393.779 206.161 393.96C206.209 394.141 206.254 394.32 206.297 394.496C206.324 394.32 206.356 394.144 206.393 393.968C206.436 393.787 206.481 393.6 206.529 393.408L208.113 388.192C208.14 388.107 208.19 388.037 208.265 387.984C208.34 387.925 208.428 387.896 208.529 387.896H209.601ZM212.331 389.072C212.507 388.875 212.694 388.696 212.891 388.536C213.089 388.376 213.297 388.24 213.515 388.128C213.739 388.011 213.974 387.923 214.219 387.864C214.47 387.8 214.739 387.768 215.027 387.768C215.47 387.768 215.859 387.843 216.195 387.992C216.537 388.136 216.819 388.344 217.043 388.616C217.273 388.883 217.446 389.205 217.563 389.584C217.681 389.963 217.739 390.381 217.739 390.84V396H216.307V390.84C216.307 390.227 216.166 389.752 215.883 389.416C215.606 389.075 215.182 388.904 214.611 388.904C214.19 388.904 213.795 389.005 213.427 389.208C213.065 389.411 212.729 389.685 212.419 390.032V396H210.987V387.896H211.843C212.046 387.896 212.171 387.995 212.219 388.192L212.331 389.072Z" fill="#36ACB8"/>
<rect x="121" y="402" width="78" height="2" rx="1" fill="#00D1DE"/>
<path d="M107.88 256.464C109.56 256.464 111.06 256.236 112.38 255.78C113.724 255.3 114.852 254.64 115.764 253.8C116.7 252.936 117.408 251.916 117.888 250.74C118.392 249.54 118.644 248.22 118.644 246.78C118.644 245.004 118.344 243.492 117.744 242.244C117.168 240.972 116.376 239.94 115.368 239.148C114.384 238.356 113.244 237.78 111.948 237.42C110.652 237.036 109.296 236.844 107.88 236.844C106.464 236.844 105.108 237.036 103.812 237.42C102.516 237.78 101.364 238.356 100.356 239.148C99.372 239.94 98.58 240.972 97.98 242.244C97.404 243.492 97.116 245.004 97.116 246.78C97.116 248.22 97.356 249.54 97.836 250.74C98.34 251.916 99.048 252.936 99.96 253.8C100.896 254.64 102.024 255.3 103.344 255.78C104.688 256.236 106.2 256.464 107.88 256.464ZM107.88 213.804C106.344 213.804 104.988 214.032 103.812 214.488C102.66 214.944 101.688 215.568 100.896 216.36C100.128 217.152 99.54 218.076 99.132 219.132C98.748 220.188 98.556 221.316 98.556 222.516C98.556 223.692 98.724 224.832 99.06 225.936C99.396 227.04 99.936 228.024 100.68 228.888C101.424 229.728 102.384 230.412 103.56 230.94C104.76 231.444 106.2 231.696 107.88 231.696C109.56 231.696 110.988 231.444 112.164 230.94C113.364 230.412 114.336 229.728 115.08 228.888C115.824 228.024 116.364 227.04 116.7 225.936C117.036 224.832 117.204 223.692 117.204 222.516C117.204 221.316 117 220.188 116.592 219.132C116.208 218.076 115.62 217.152 114.828 216.36C114.06 215.568 113.088 214.944 111.912 214.488C110.76 214.032 109.416 213.804 107.88 213.804ZM115.26 234.108C118.476 235.02 120.948 236.544 122.676 238.68C124.404 240.816 125.268 243.552 125.268 246.888C125.268 249.144 124.836 251.184 123.972 253.008C123.132 254.808 121.944 256.344 120.408 257.616C118.896 258.888 117.072 259.872 114.936 260.568C112.8 261.24 110.448 261.576 107.88 261.576C105.312 261.576 102.96 261.24 100.824 260.568C98.688 259.872 96.852 258.888 95.316 257.616C93.78 256.344 92.592 254.808 91.752 253.008C90.912 251.184 90.492 249.144 90.492 246.888C90.492 243.552 91.356 240.816 93.084 238.68C94.812 236.544 97.284 235.02 100.5 234.108C97.788 233.1 95.736 231.6 94.344 229.608C92.976 227.592 92.292 225.192 92.292 222.408C92.292 220.512 92.664 218.736 93.408 217.08C94.152 215.424 95.208 213.984 96.576 212.76C97.944 211.536 99.576 210.576 101.472 209.88C103.392 209.184 105.528 208.836 107.88 208.836C110.208 208.836 112.332 209.184 114.252 209.88C116.172 210.576 117.816 211.536 119.184 212.76C120.552 213.984 121.608 215.424 122.352 217.08C123.096 218.736 123.468 220.512 123.468 222.408C123.468 225.192 122.772 227.592 121.38 229.608C120.012 231.6 117.972 233.1 115.26 234.108ZM155.046 242.388V221.112C155.046 220.488 155.07 219.804 155.118 219.06C155.166 218.316 155.238 217.56 155.334 216.792L136.542 242.388H155.046ZM168.474 242.388V246.06C168.474 246.444 168.354 246.768 168.114 247.032C167.898 247.296 167.55 247.428 167.07 247.428H160.662V261H155.046V247.428H132.15C131.67 247.428 131.25 247.296 130.89 247.032C130.554 246.744 130.338 246.396 130.242 245.988L129.594 242.712L154.686 209.412H160.662V242.388H168.474ZM196.523 221.868C196.523 223.884 196.211 225.696 195.587 227.304C194.963 228.888 194.123 230.232 193.067 231.336C192.035 232.416 190.823 233.244 189.431 233.82C188.063 234.396 186.611 234.684 185.075 234.684C183.467 234.684 181.967 234.396 180.575 233.82C179.183 233.244 177.971 232.416 176.939 231.336C175.931 230.232 175.139 228.888 174.563 227.304C173.987 225.696 173.699 223.884 173.699 221.868C173.699 219.804 173.987 217.968 174.563 216.36C175.139 214.752 175.931 213.396 176.939 212.292C177.971 211.188 179.183 210.348 180.575 209.772C181.967 209.196 183.467 208.908 185.075 208.908C186.707 208.908 188.219 209.196 189.611 209.772C191.003 210.348 192.215 211.188 193.247 212.292C194.279 213.396 195.083 214.752 195.659 216.36C196.235 217.968 196.523 219.804 196.523 221.868ZM191.555 221.868C191.555 220.284 191.387 218.94 191.051 217.836C190.715 216.732 190.247 215.832 189.647 215.136C189.071 214.416 188.387 213.9 187.595 213.588C186.803 213.276 185.963 213.12 185.075 213.12C184.187 213.12 183.359 213.276 182.591 213.588C181.823 213.9 181.151 214.416 180.575 215.136C179.999 215.832 179.543 216.732 179.207 217.836C178.871 218.94 178.703 220.284 178.703 221.868C178.703 223.428 178.871 224.76 179.207 225.864C179.543 226.944 179.999 227.832 180.575 228.528C181.151 229.2 181.823 229.692 182.591 230.004C183.359 230.292 184.187 230.436 185.075 230.436C185.963 230.436 186.803 230.292 187.595 230.004C188.387 229.692 189.071 229.2 189.647 228.528C190.247 227.832 190.715 226.944 191.051 225.864C191.387 224.76 191.555 223.428 191.555 221.868ZM214.775 210.492C215.015 210.204 215.291 209.952 215.603 209.736C215.939 209.52 216.383 209.412 216.935 209.412H221.579L183.851 259.956C183.635 260.268 183.359 260.52 183.023 260.712C182.687 260.904 182.279 261 181.799 261H177.083L214.775 210.492ZM225.071 248.832C225.071 250.848 224.759 252.648 224.135 254.232C223.511 255.816 222.671 257.16 221.615 258.264C220.583 259.344 219.371 260.172 217.979 260.748C216.611 261.324 215.159 261.612 213.623 261.612C211.991 261.612 210.479 261.324 209.087 260.748C207.719 260.172 206.519 259.344 205.487 258.264C204.479 257.16 203.687 255.816 203.111 254.232C202.535 252.648 202.247 250.848 202.247 248.832C202.247 246.768 202.535 244.932 203.111 243.324C203.687 241.692 204.479 240.324 205.487 239.22C206.519 238.116 207.719 237.276 209.087 236.7C210.479 236.124 211.991 235.836 213.623 235.836C215.231 235.836 216.731 236.124 218.123 236.7C219.539 237.276 220.751 238.116 221.759 239.22C222.791 240.324 223.595 241.692 224.171 243.324C224.771 244.932 225.071 246.768 225.071 248.832ZM220.103 248.832C220.103 247.248 219.935 245.904 219.599 244.8C219.263 243.672 218.795 242.76 218.195 242.064C217.619 241.368 216.935 240.864 216.143 240.552C215.351 240.24 214.511 240.084 213.623 240.084C212.735 240.084 211.895 240.24 211.103 240.552C210.335 240.864 209.663 241.368 209.087 242.064C208.511 242.76 208.055 243.672 207.719 244.8C207.407 245.904 207.251 247.248 207.251 248.832C207.251 250.392 207.407 251.712 207.719 252.792C208.055 253.872 208.511 254.76 209.087 255.456C209.663 256.128 210.335 256.62 211.103 256.932C211.895 257.22 212.735 257.364 213.623 257.364C214.511 257.364 215.351 257.22 216.143 256.932C216.935 256.62 217.619 256.128 218.195 255.456C218.795 254.76 219.263 253.872 219.599 252.792C219.935 251.712 220.103 250.392 220.103 248.832Z" fill="#00D1DE"/>
<path d="M113.128 282.804V300H111.964C111.78 300 111.624 299.968 111.496 299.904C111.376 299.84 111.256 299.732 111.136 299.58L101.188 286.62C101.204 286.82 101.216 287.016 101.224 287.208C101.232 287.4 101.236 287.58 101.236 287.748V300H99.196V282.804H100.396C100.5 282.804 100.588 282.812 100.66 282.828C100.732 282.836 100.796 282.856 100.852 282.888C100.908 282.912 100.964 282.952 101.02 283.008C101.076 283.056 101.136 283.12 101.2 283.2L111.148 296.148C111.132 295.94 111.116 295.74 111.1 295.548C111.092 295.348 111.088 295.16 111.088 294.984V282.804H113.128ZM124.781 292.596C124.781 292.1 124.709 291.648 124.565 291.24C124.429 290.824 124.225 290.468 123.953 290.172C123.689 289.868 123.365 289.636 122.981 289.476C122.597 289.308 122.161 289.224 121.673 289.224C120.649 289.224 119.837 289.524 119.237 290.124C118.645 290.716 118.277 291.54 118.133 292.596H124.781ZM126.509 298.296C126.245 298.616 125.929 298.896 125.561 299.136C125.193 299.368 124.797 299.56 124.373 299.712C123.957 299.864 123.525 299.976 123.077 300.048C122.629 300.128 122.185 300.168 121.745 300.168C120.905 300.168 120.129 300.028 119.417 299.748C118.713 299.46 118.101 299.044 117.581 298.5C117.069 297.948 116.669 297.268 116.381 296.46C116.093 295.652 115.949 294.724 115.949 293.676C115.949 292.828 116.077 292.036 116.333 291.3C116.597 290.564 116.973 289.928 117.461 289.392C117.949 288.848 118.545 288.424 119.249 288.12C119.953 287.808 120.745 287.652 121.625 287.652C122.353 287.652 123.025 287.776 123.641 288.024C124.265 288.264 124.801 288.616 125.249 289.08C125.705 289.536 126.061 290.104 126.317 290.784C126.573 291.456 126.701 292.224 126.701 293.088C126.701 293.424 126.665 293.648 126.593 293.76C126.521 293.872 126.385 293.928 126.185 293.928H118.061C118.085 294.696 118.189 295.364 118.373 295.932C118.565 296.5 118.829 296.976 119.165 297.36C119.501 297.736 119.901 298.02 120.365 298.212C120.829 298.396 121.349 298.488 121.925 298.488C122.461 298.488 122.921 298.428 123.305 298.308C123.697 298.18 124.033 298.044 124.313 297.9C124.593 297.756 124.825 297.624 125.009 297.504C125.201 297.376 125.365 297.312 125.501 297.312C125.677 297.312 125.813 297.38 125.909 297.516L126.509 298.296ZM139.321 287.844V300H138.049C137.745 300 137.553 299.852 137.473 299.556L137.305 298.248C136.777 298.832 136.185 299.304 135.529 299.664C134.873 300.016 134.121 300.192 133.273 300.192C132.609 300.192 132.021 300.084 131.509 299.868C131.005 299.644 130.581 299.332 130.237 298.932C129.893 298.532 129.633 298.048 129.457 297.48C129.289 296.912 129.205 296.284 129.205 295.596V287.844H131.341V295.596C131.341 296.516 131.549 297.228 131.965 297.732C132.389 298.236 133.033 298.488 133.897 298.488C134.529 298.488 135.117 298.34 135.661 298.044C136.213 297.74 136.721 297.324 137.185 296.796V287.844H139.321ZM146.44 300.192C145.48 300.192 144.74 299.924 144.22 299.388C143.708 298.852 143.452 298.08 143.452 297.072V289.632H141.988C141.86 289.632 141.752 289.596 141.664 289.524C141.576 289.444 141.532 289.324 141.532 289.164V288.312L143.524 288.06L144.016 284.304C144.04 284.184 144.092 284.088 144.172 284.016C144.26 283.936 144.372 283.896 144.508 283.896H145.588V288.084H149.104V289.632H145.588V296.928C145.588 297.44 145.712 297.82 145.96 298.068C146.208 298.316 146.528 298.44 146.92 298.44C147.144 298.44 147.336 298.412 147.496 298.356C147.664 298.292 147.808 298.224 147.928 298.152C148.048 298.08 148.148 298.016 148.228 297.96C148.316 297.896 148.392 297.864 148.456 297.864C148.568 297.864 148.668 297.932 148.756 298.068L149.38 299.088C149.012 299.432 148.568 299.704 148.048 299.904C147.528 300.096 146.992 300.192 146.44 300.192ZM153.337 290.28C153.721 289.448 154.193 288.8 154.753 288.336C155.313 287.864 155.997 287.628 156.805 287.628C157.061 287.628 157.305 287.656 157.537 287.712C157.777 287.768 157.989 287.856 158.173 287.976L158.017 289.572C157.969 289.772 157.849 289.872 157.657 289.872C157.545 289.872 157.381 289.848 157.165 289.8C156.949 289.752 156.705 289.728 156.433 289.728C156.049 289.728 155.705 289.784 155.401 289.896C155.105 290.008 154.837 290.176 154.597 290.4C154.365 290.616 154.153 290.888 153.961 291.216C153.777 291.536 153.609 291.904 153.457 292.32V300H151.309V287.844H152.533C152.765 287.844 152.925 287.888 153.013 287.976C153.101 288.064 153.161 288.216 153.193 288.432L153.337 290.28ZM166.452 294.528C165.468 294.56 164.628 294.64 163.932 294.768C163.244 294.888 162.68 295.048 162.24 295.248C161.808 295.448 161.492 295.684 161.292 295.956C161.1 296.228 161.004 296.532 161.004 296.868C161.004 297.188 161.056 297.464 161.16 297.696C161.264 297.928 161.404 298.12 161.58 298.272C161.764 298.416 161.976 298.524 162.216 298.596C162.464 298.66 162.728 298.692 163.008 298.692C163.384 298.692 163.728 298.656 164.04 298.584C164.352 298.504 164.644 298.392 164.916 298.248C165.196 298.104 165.46 297.932 165.708 297.732C165.964 297.532 166.212 297.304 166.452 297.048V294.528ZM159.552 289.56C160.224 288.912 160.948 288.428 161.724 288.108C162.5 287.788 163.36 287.628 164.304 287.628C164.984 287.628 165.588 287.74 166.116 287.964C166.644 288.188 167.088 288.5 167.448 288.9C167.808 289.3 168.08 289.784 168.264 290.352C168.448 290.92 168.54 291.544 168.54 292.224V300H167.592C167.384 300 167.224 299.968 167.112 299.904C167 299.832 166.912 299.696 166.848 299.496L166.608 298.344C166.288 298.64 165.976 298.904 165.672 299.136C165.368 299.36 165.048 299.552 164.712 299.712C164.376 299.864 164.016 299.98 163.632 300.06C163.256 300.148 162.836 300.192 162.372 300.192C161.9 300.192 161.456 300.128 161.04 300C160.624 299.864 160.26 299.664 159.948 299.4C159.644 299.136 159.4 298.804 159.216 298.404C159.04 297.996 158.952 297.516 158.952 296.964C158.952 296.484 159.084 296.024 159.348 295.584C159.612 295.136 160.04 294.74 160.632 294.396C161.224 294.052 161.996 293.772 162.948 293.556C163.9 293.332 165.068 293.204 166.452 293.172V292.224C166.452 291.28 166.248 290.568 165.84 290.088C165.432 289.6 164.836 289.356 164.052 289.356C163.524 289.356 163.08 289.424 162.72 289.56C162.368 289.688 162.06 289.836 161.796 290.004C161.54 290.164 161.316 290.312 161.124 290.448C160.94 290.576 160.756 290.64 160.572 290.64C160.428 290.64 160.304 290.604 160.2 290.532C160.096 290.452 160.008 290.356 159.936 290.244L159.552 289.56ZM174.002 282.324V300H171.866V282.324H174.002ZM179.721 287.844V300H177.585V287.844H179.721ZM180.177 284.028C180.177 284.236 180.133 284.432 180.045 284.616C179.965 284.792 179.853 284.952 179.709 285.096C179.573 285.232 179.409 285.34 179.217 285.42C179.033 285.5 178.837 285.54 178.629 285.54C178.421 285.54 178.225 285.5 178.041 285.42C177.865 285.34 177.709 285.232 177.573 285.096C177.437 284.952 177.329 284.792 177.249 284.616C177.169 284.432 177.129 284.236 177.129 284.028C177.129 283.82 177.169 283.624 177.249 283.44C177.329 283.248 177.437 283.084 177.573 282.948C177.709 282.804 177.865 282.692 178.041 282.612C178.225 282.532 178.421 282.492 178.629 282.492C178.837 282.492 179.033 282.532 179.217 282.612C179.409 282.692 179.573 282.804 179.709 282.948C179.853 283.084 179.965 283.248 180.045 283.44C180.133 283.624 180.177 283.82 180.177 284.028ZM190.311 289.848C190.215 290.024 190.067 290.112 189.867 290.112C189.747 290.112 189.611 290.068 189.459 289.98C189.307 289.892 189.119 289.796 188.895 289.692C188.679 289.58 188.419 289.48 188.115 289.392C187.811 289.296 187.451 289.248 187.035 289.248C186.675 289.248 186.351 289.296 186.063 289.392C185.775 289.48 185.527 289.604 185.319 289.764C185.119 289.924 184.963 290.112 184.851 290.328C184.747 290.536 184.695 290.764 184.695 291.012C184.695 291.324 184.783 291.584 184.959 291.792C185.143 292 185.383 292.18 185.679 292.332C185.975 292.484 186.311 292.62 186.687 292.74C187.063 292.852 187.447 292.976 187.839 293.112C188.239 293.24 188.627 293.384 189.003 293.544C189.379 293.704 189.715 293.904 190.011 294.144C190.307 294.384 190.543 294.68 190.719 295.032C190.903 295.376 190.995 295.792 190.995 296.28C190.995 296.84 190.895 297.36 190.695 297.84C190.495 298.312 190.199 298.724 189.807 299.076C189.415 299.42 188.935 299.692 188.367 299.892C187.799 300.092 187.143 300.192 186.399 300.192C185.551 300.192 184.783 300.056 184.095 299.784C183.407 299.504 182.823 299.148 182.343 298.716L182.847 297.9C182.911 297.796 182.987 297.716 183.075 297.66C183.163 297.604 183.275 297.576 183.411 297.576C183.555 297.576 183.707 297.632 183.867 297.744C184.027 297.856 184.219 297.98 184.443 298.116C184.675 298.252 184.955 298.376 185.283 298.488C185.611 298.6 186.019 298.656 186.507 298.656C186.923 298.656 187.287 298.604 187.599 298.5C187.911 298.388 188.171 298.24 188.379 298.056C188.587 297.872 188.739 297.66 188.835 297.42C188.939 297.18 188.991 296.924 188.991 296.652C188.991 296.316 188.899 296.04 188.715 295.824C188.539 295.6 188.303 295.412 188.007 295.26C187.711 295.1 187.371 294.964 186.987 294.852C186.611 294.732 186.223 294.608 185.823 294.48C185.431 294.352 185.043 294.208 184.659 294.048C184.283 293.88 183.947 293.672 183.651 293.424C183.355 293.176 183.115 292.872 182.931 292.512C182.755 292.144 182.667 291.7 182.667 291.18C182.667 290.716 182.763 290.272 182.955 289.848C183.147 289.416 183.427 289.04 183.795 288.72C184.163 288.392 184.615 288.132 185.151 287.94C185.687 287.748 186.299 287.652 186.987 287.652C187.787 287.652 188.503 287.78 189.135 288.036C189.775 288.284 190.327 288.628 190.791 289.068L190.311 289.848ZM201.75 292.596C201.75 292.1 201.678 291.648 201.534 291.24C201.398 290.824 201.194 290.468 200.922 290.172C200.658 289.868 200.334 289.636 199.95 289.476C199.566 289.308 199.13 289.224 198.642 289.224C197.618 289.224 196.806 289.524 196.206 290.124C195.614 290.716 195.246 291.54 195.102 292.596H201.75ZM203.478 298.296C203.214 298.616 202.898 298.896 202.53 299.136C202.162 299.368 201.766 299.56 201.342 299.712C200.926 299.864 200.494 299.976 200.046 300.048C199.598 300.128 199.154 300.168 198.714 300.168C197.874 300.168 197.098 300.028 196.386 299.748C195.682 299.46 195.07 299.044 194.55 298.5C194.038 297.948 193.638 297.268 193.35 296.46C193.062 295.652 192.918 294.724 192.918 293.676C192.918 292.828 193.046 292.036 193.302 291.3C193.566 290.564 193.942 289.928 194.43 289.392C194.918 288.848 195.514 288.424 196.218 288.12C196.922 287.808 197.714 287.652 198.594 287.652C199.322 287.652 199.994 287.776 200.61 288.024C201.234 288.264 201.77 288.616 202.218 289.08C202.674 289.536 203.03 290.104 203.286 290.784C203.542 291.456 203.67 292.224 203.67 293.088C203.67 293.424 203.634 293.648 203.562 293.76C203.49 293.872 203.354 293.928 203.154 293.928H195.03C195.054 294.696 195.158 295.364 195.342 295.932C195.534 296.5 195.798 296.976 196.134 297.36C196.47 297.736 196.87 298.02 197.334 298.212C197.798 298.396 198.318 298.488 198.894 298.488C199.43 298.488 199.89 298.428 200.274 298.308C200.666 298.18 201.002 298.044 201.282 297.9C201.562 297.756 201.794 297.624 201.978 297.504C202.17 297.376 202.334 297.312 202.47 297.312C202.646 297.312 202.782 297.38 202.878 297.516L203.478 298.296ZM214.214 290.736C213.814 290.2 213.382 289.828 212.918 289.62C212.454 289.404 211.934 289.296 211.358 289.296C210.23 289.296 209.362 289.7 208.754 290.508C208.146 291.316 207.842 292.468 207.842 293.964C207.842 294.756 207.91 295.436 208.046 296.004C208.182 296.564 208.382 297.028 208.646 297.396C208.91 297.756 209.234 298.02 209.618 298.188C210.002 298.356 210.438 298.44 210.926 298.44C211.63 298.44 212.242 298.28 212.762 297.96C213.29 297.64 213.774 297.188 214.214 296.604V290.736ZM216.35 282.324V300H215.078C214.774 300 214.582 299.852 214.502 299.556L214.31 298.08C213.79 298.704 213.198 299.208 212.534 299.592C211.87 299.976 211.102 300.168 210.23 300.168C209.534 300.168 208.902 300.036 208.334 299.772C207.766 299.5 207.282 299.104 206.882 298.584C206.482 298.064 206.174 297.416 205.958 296.64C205.742 295.864 205.634 294.972 205.634 293.964C205.634 293.068 205.754 292.236 205.994 291.468C206.234 290.692 206.578 290.02 207.026 289.452C207.474 288.884 208.022 288.44 208.67 288.12C209.326 287.792 210.062 287.628 210.878 287.628C211.622 287.628 212.258 287.756 212.786 288.012C213.322 288.26 213.798 288.608 214.214 289.056V282.324H216.35Z" fill="#36ACB8"/>
<path d="M158 127C224.274 127 278 180.726 278 247C278 313.274 224.274 367 158 367C91.7258 367 38 313.274 38 247C38 180.726 91.7258 127 158 127ZM158 355C217.647 355 266 306.647 266 247C266 187.353 217.647 139 158 139C98.3532 139 50 187.353 50 247C50 306.647 98.3532 355 158 355Z" fill="#EFEFEF"/>
<path d="M158 133C158 129.686 160.689 126.984 163.998 127.15C188.499 128.376 212.09 137.087 231.549 152.181C252.592 168.504 267.607 191.363 274.23 217.157C280.853 242.952 278.707 270.217 268.131 294.658C257.554 319.099 239.148 339.327 215.81 352.157C192.473 364.986 165.531 369.688 139.228 365.522C112.925 361.356 88.7543 348.559 70.5239 329.146C52.2935 309.732 41.0389 284.806 38.5327 258.293C36.2151 233.775 41.5004 209.189 53.5934 187.845C55.227 184.962 58.9489 184.14 61.7467 185.916C64.5446 187.691 65.3573 191.392 63.7398 194.284C53.0647 213.371 48.4125 235.298 50.4794 257.164C52.7351 281.025 62.8642 303.459 79.2715 320.931C95.6789 338.403 117.432 349.921 141.105 353.67C164.778 357.42 189.026 353.188 210.029 341.641C231.033 330.094 247.599 311.889 257.117 289.892C266.636 267.895 268.568 243.357 262.607 220.141C256.646 196.926 243.133 176.353 224.194 161.663C206.839 148.202 185.833 140.381 163.997 139.167C160.689 138.983 158 136.314 158 133Z" fill="url(#paint0_linear)"/>
<path d="M235.01 636H83.175C38.9922 636 3.17496 600.183 3.17496 556V237.362C3.17496 237.034 3.04456 236.719 2.81246 236.487C1.652 235.327 1 233.754 1 232.113V194.85C1 193.21 1.652 191.636 2.81246 190.477C3.04456 190.245 3.17496 189.93 3.17496 189.602V178.4C3.17496 178.071 3.04456 177.757 2.81246 177.525C1.652 176.365 1 174.792 1 173.151V135.888C1 134.247 1.652 132.674 2.81246 131.514C3.04456 131.282 3.17496 130.968 3.17496 130.639V110.864C3.17496 110.664 3.01266 110.502 2.81246 110.502C1.81147 110.502 1 109.69 1 108.689V88.9464C1 87.9454 1.81147 87.1339 2.81246 87.1339C3.01266 87.1339 3.17496 86.9716 3.17496 86.7714V81C3.17496 36.8172 38.9922 1 83.175 1H235.01C279.192 1 315.009 36.8173 315.009 81V147.294C315.009 147.745 315.189 148.177 315.508 148.496C317.104 150.091 318 152.255 318 154.511V215.121C318 217.377 317.104 219.54 315.508 221.135C315.189 221.454 315.009 221.887 315.009 222.338V556C315.009 600.183 279.192 636 235.01 636Z" stroke="#00D1DE" stroke-width="2"/>
<circle cx="206" cy="23" r="6" stroke="#00D1DE" stroke-width="2"/>
<rect x="129" y="21" width="59" height="4" rx="2" stroke="#00D1DE" stroke-width="2"/>
<defs>
<linearGradient id="paint0_linear" x1="38" y1="247" x2="278" y2="247" gradientUnits="userSpaceOnUse">
<stop stop-color="#00D1DE"/>
<stop offset="1" stop-color="#36ACB8"/>
</linearGradient>
</defs>
</svg>
