<svg width="461" height="779" viewBox="0 0 461 779" fill="none" xmlns="http://www.w3.org/2000/svg">
<g filter="url(#filter0_d)">
<path d="M308.012 665.067C341.17 665.067 368.042 638.171 368.012 605.012L367.574 122.761C367.545 91.3677 342.088 65.9332 310.694 65.9332H309.666C309.187 65.9332 308.798 66.3216 308.798 66.8006V66.8006C308.798 78.777 299.09 88.4857 287.113 88.4857H229.82H172.527C160.551 88.4857 150.842 78.777 150.842 66.8006V66.8006C150.842 66.3216 150.454 65.9332 149.975 65.9332H148.95C117.571 65.9332 92.1415 91.3858 92.1699 122.764L92.6077 605.121C92.6377 638.237 119.492 665.067 152.608 665.067H308.012Z" fill="white"/>
</g>
<path d="M121.739 130.535C121.739 131.095 121.669 131.597 121.529 132.04C121.394 132.483 121.191 132.859 120.92 133.167C120.654 133.47 120.325 133.704 119.933 133.867C119.541 134.03 119.091 134.112 118.582 134.112C118.12 134.112 117.649 134.047 117.168 133.916C117.177 133.781 117.189 133.648 117.203 133.517C117.217 133.382 117.229 133.249 117.238 133.118C117.247 133.039 117.275 132.976 117.322 132.929C117.373 132.878 117.45 132.852 117.553 132.852C117.637 132.852 117.747 132.873 117.882 132.915C118.022 132.957 118.209 132.978 118.442 132.978C118.75 132.978 119.025 132.931 119.268 132.838C119.511 132.745 119.714 132.6 119.877 132.404C120.04 132.208 120.164 131.958 120.248 131.655C120.337 131.347 120.381 130.983 120.381 130.563V123.969H121.739V130.535ZM129.547 126.909V134H128.805C128.627 134 128.515 133.914 128.469 133.741L128.371 132.978C128.063 133.319 127.717 133.594 127.335 133.804C126.952 134.009 126.513 134.112 126.019 134.112C125.631 134.112 125.288 134.049 124.99 133.923C124.696 133.792 124.448 133.61 124.248 133.377C124.047 133.144 123.895 132.861 123.793 132.53C123.695 132.199 123.646 131.832 123.646 131.431V126.909H124.892V131.431C124.892 131.968 125.013 132.383 125.256 132.677C125.503 132.971 125.879 133.118 126.383 133.118C126.751 133.118 127.094 133.032 127.412 132.859C127.734 132.682 128.03 132.439 128.301 132.131V126.909H129.547ZM132.698 127.938C132.852 127.765 133.015 127.609 133.188 127.469C133.361 127.329 133.543 127.21 133.734 127.112C133.93 127.009 134.135 126.932 134.35 126.881C134.569 126.825 134.805 126.797 135.057 126.797C135.444 126.797 135.785 126.862 136.079 126.993C136.378 127.119 136.625 127.301 136.821 127.539C137.022 127.772 137.173 128.055 137.276 128.386C137.379 128.717 137.43 129.084 137.43 129.485V134H136.177V129.485C136.177 128.948 136.053 128.533 135.806 128.239C135.563 127.94 135.192 127.791 134.693 127.791C134.324 127.791 133.979 127.88 133.657 128.057C133.34 128.234 133.046 128.475 132.775 128.778V134H131.522V126.909H132.271C132.448 126.909 132.558 126.995 132.6 127.168L132.698 127.938ZM144.075 129.681C144.075 129.392 144.033 129.128 143.949 128.89C143.869 128.647 143.75 128.44 143.592 128.267C143.438 128.09 143.249 127.954 143.025 127.861C142.801 127.763 142.546 127.714 142.262 127.714C141.664 127.714 141.191 127.889 140.841 128.239C140.495 128.584 140.281 129.065 140.197 129.681H144.075ZM145.083 133.006C144.929 133.193 144.744 133.356 144.53 133.496C144.315 133.631 144.084 133.743 143.837 133.832C143.594 133.921 143.342 133.986 143.081 134.028C142.819 134.075 142.56 134.098 142.304 134.098C141.814 134.098 141.361 134.016 140.946 133.853C140.535 133.685 140.178 133.442 139.875 133.125C139.576 132.803 139.343 132.406 139.175 131.935C139.007 131.464 138.923 130.922 138.923 130.311C138.923 129.816 138.997 129.354 139.147 128.925C139.301 128.496 139.52 128.125 139.805 127.812C140.089 127.495 140.437 127.247 140.848 127.07C141.258 126.888 141.72 126.797 142.234 126.797C142.658 126.797 143.05 126.869 143.41 127.014C143.774 127.154 144.086 127.359 144.348 127.63C144.614 127.896 144.821 128.227 144.971 128.624C145.12 129.016 145.195 129.464 145.195 129.968C145.195 130.164 145.174 130.295 145.132 130.36C145.09 130.425 145.01 130.458 144.894 130.458H140.155C140.169 130.906 140.229 131.296 140.337 131.627C140.449 131.958 140.603 132.236 140.799 132.46C140.995 132.679 141.228 132.845 141.499 132.957C141.769 133.064 142.073 133.118 142.409 133.118C142.721 133.118 142.99 133.083 143.214 133.013C143.442 132.938 143.638 132.859 143.802 132.775C143.965 132.691 144.1 132.614 144.208 132.544C144.32 132.469 144.415 132.432 144.495 132.432C144.597 132.432 144.677 132.472 144.733 132.551L145.083 133.006ZM156.229 132.817C156.365 132.817 156.472 132.857 156.551 132.936C156.631 133.015 156.67 133.118 156.67 133.244V134H149.978V133.573C149.978 133.484 149.997 133.393 150.034 133.3C150.072 133.207 150.13 133.12 150.209 133.041L153.422 129.814C153.688 129.543 153.931 129.284 154.15 129.037C154.37 128.785 154.556 128.533 154.71 128.281C154.864 128.029 154.983 127.775 155.067 127.518C155.151 127.257 155.193 126.979 155.193 126.685C155.193 126.391 155.147 126.134 155.053 125.915C154.96 125.691 154.832 125.507 154.668 125.362C154.51 125.217 154.321 125.11 154.101 125.04C153.882 124.965 153.646 124.928 153.394 124.928C153.138 124.928 152.902 124.965 152.687 125.04C152.473 125.115 152.281 125.22 152.113 125.355C151.95 125.486 151.812 125.642 151.7 125.824C151.588 126.006 151.509 126.207 151.462 126.426C151.406 126.589 151.329 126.699 151.231 126.755C151.138 126.806 151.005 126.82 150.832 126.797L150.181 126.685C150.247 126.228 150.373 125.824 150.559 125.474C150.751 125.119 150.989 124.823 151.273 124.585C151.563 124.347 151.892 124.167 152.26 124.046C152.629 123.92 153.028 123.857 153.457 123.857C153.882 123.857 154.279 123.92 154.647 124.046C155.016 124.172 155.336 124.356 155.606 124.599C155.877 124.837 156.089 125.129 156.243 125.474C156.397 125.819 156.474 126.211 156.474 126.65C156.474 127.023 156.418 127.371 156.306 127.693C156.194 128.01 156.043 128.314 155.851 128.603C155.66 128.892 155.438 129.175 155.186 129.45C154.939 129.725 154.675 130.003 154.395 130.283L151.749 132.985C151.936 132.934 152.125 132.894 152.316 132.866C152.508 132.833 152.692 132.817 152.869 132.817H156.229ZM165.141 128.988C165.141 129.865 165.046 130.626 164.854 131.27C164.668 131.909 164.411 132.439 164.084 132.859C163.758 133.279 163.37 133.592 162.922 133.797C162.479 134.002 162.003 134.105 161.494 134.105C160.981 134.105 160.503 134.002 160.059 133.797C159.621 133.592 159.238 133.279 158.911 132.859C158.585 132.439 158.328 131.909 158.141 131.27C157.955 130.626 157.861 129.865 157.861 128.988C157.861 128.111 157.955 127.35 158.141 126.706C158.328 126.062 158.585 125.53 158.911 125.11C159.238 124.685 159.621 124.37 160.059 124.165C160.503 123.96 160.981 123.857 161.494 123.857C162.003 123.857 162.479 123.96 162.922 124.165C163.37 124.37 163.758 124.685 164.084 125.11C164.411 125.53 164.668 126.062 164.854 126.706C165.046 127.35 165.141 128.111 165.141 128.988ZM163.846 128.988C163.846 128.223 163.781 127.581 163.65 127.063C163.524 126.54 163.352 126.12 163.132 125.803C162.918 125.486 162.668 125.259 162.383 125.124C162.099 124.984 161.802 124.914 161.494 124.914C161.186 124.914 160.89 124.984 160.605 125.124C160.321 125.259 160.071 125.486 159.856 125.803C159.642 126.12 159.469 126.54 159.338 127.063C159.212 127.581 159.149 128.223 159.149 128.988C159.149 129.753 159.212 130.395 159.338 130.913C159.469 131.431 159.642 131.849 159.856 132.166C160.071 132.483 160.321 132.712 160.605 132.852C160.89 132.987 161.186 133.055 161.494 133.055C161.802 133.055 162.099 132.987 162.383 132.852C162.668 132.712 162.918 132.483 163.132 132.166C163.352 131.849 163.524 131.431 163.65 130.913C163.781 130.395 163.846 129.753 163.846 128.988ZM172.689 133.048V134H167.312V133.048H169.462V126.209C169.462 126.004 169.469 125.796 169.483 125.586L167.698 127.119C167.637 127.17 167.576 127.203 167.516 127.217C167.455 127.226 167.399 127.226 167.348 127.217C167.296 127.208 167.247 127.189 167.201 127.161C167.159 127.133 167.126 127.103 167.103 127.07L166.711 126.531L169.7 123.948H170.715V133.048H172.689ZM175.665 126.916C175.665 127.233 175.709 127.518 175.798 127.77C175.891 128.017 176.022 128.227 176.19 128.4C176.362 128.573 176.57 128.703 176.813 128.792C177.06 128.881 177.335 128.925 177.639 128.925C177.975 128.925 178.271 128.871 178.528 128.764C178.789 128.652 179.008 128.505 179.186 128.323C179.363 128.141 179.498 127.931 179.592 127.693C179.685 127.455 179.732 127.208 179.732 126.951C179.732 126.638 179.68 126.356 179.578 126.104C179.48 125.847 179.342 125.63 179.165 125.453C178.987 125.276 178.775 125.14 178.528 125.047C178.285 124.949 178.017 124.9 177.723 124.9C177.415 124.9 177.135 124.951 176.883 125.054C176.631 125.152 176.414 125.29 176.232 125.467C176.05 125.644 175.91 125.857 175.812 126.104C175.714 126.351 175.665 126.622 175.665 126.916ZM178.577 130.003C178.679 129.868 178.775 129.739 178.864 129.618C178.952 129.497 179.036 129.375 179.116 129.254C178.859 129.459 178.57 129.616 178.248 129.723C177.926 129.83 177.585 129.884 177.226 129.884C176.848 129.884 176.488 129.821 176.148 129.695C175.812 129.569 175.515 129.385 175.259 129.142C175.002 128.895 174.797 128.594 174.643 128.239C174.493 127.88 174.419 127.469 174.419 127.007C174.419 126.568 174.5 126.158 174.664 125.775C174.827 125.392 175.056 125.059 175.35 124.774C175.644 124.489 175.994 124.265 176.4 124.102C176.806 123.939 177.251 123.857 177.737 123.857C178.217 123.857 178.654 123.936 179.046 124.095C179.438 124.254 179.774 124.475 180.054 124.76C180.334 125.045 180.548 125.385 180.698 125.782C180.852 126.179 180.929 126.617 180.929 127.098C180.929 127.387 180.901 127.663 180.845 127.924C180.793 128.181 180.716 128.435 180.614 128.687C180.516 128.934 180.394 129.182 180.25 129.429C180.105 129.672 179.942 129.921 179.76 130.178L177.317 133.706C177.256 133.795 177.17 133.867 177.058 133.923C176.946 133.974 176.817 134 176.673 134H175.525L178.577 130.003Z" fill="#99A3AE"/>
<circle cx="332" cy="102" r="7.5" fill="white" stroke="#36ACB8"/>
<circle cx="332" cy="100" r="2.5" stroke="#36ACB8"/>
<path d="M336 106.5C336 104.291 334.209 102.5 332 102.5C329.791 102.5 328 104.291 328 106.5" stroke="#36ACB8" stroke-linecap="round" stroke-linejoin="round"/>
<path d="M119 102.5L123.154 107M119 102.5L123.154 98M119 102.5H128" stroke="#7A838D"/>
<path d="M124.7 152.988C124.7 153.865 124.604 154.626 124.413 155.27C124.226 155.909 123.97 156.439 123.643 156.859C123.316 157.279 122.929 157.592 122.481 157.797C122.038 158.002 121.562 158.105 121.053 158.105C120.54 158.105 120.061 158.002 119.618 157.797C119.179 157.592 118.797 157.279 118.47 156.859C118.143 156.439 117.887 155.909 117.7 155.27C117.513 154.626 117.42 153.865 117.42 152.988C117.42 152.111 117.513 151.35 117.7 150.706C117.887 150.062 118.143 149.53 118.47 149.11C118.797 148.685 119.179 148.37 119.618 148.165C120.061 147.96 120.54 147.857 121.053 147.857C121.562 147.857 122.038 147.96 122.481 148.165C122.929 148.37 123.316 148.685 123.643 149.11C123.97 149.53 124.226 150.062 124.413 150.706C124.604 151.35 124.7 152.111 124.7 152.988ZM123.405 152.988C123.405 152.223 123.34 151.581 123.209 151.063C123.083 150.54 122.91 150.12 122.691 149.803C122.476 149.486 122.227 149.259 121.942 149.124C121.657 148.984 121.361 148.914 121.053 148.914C120.745 148.914 120.449 148.984 120.164 149.124C119.879 149.259 119.63 149.486 119.415 149.803C119.2 150.12 119.028 150.54 118.897 151.063C118.771 151.581 118.708 152.223 118.708 152.988C118.708 153.753 118.771 154.395 118.897 154.913C119.028 155.431 119.2 155.849 119.415 156.166C119.63 156.483 119.879 156.712 120.164 156.852C120.449 156.987 120.745 157.055 121.053 157.055C121.361 157.055 121.657 156.987 121.942 156.852C122.227 156.712 122.476 156.483 122.691 156.166C122.91 155.849 123.083 155.431 123.209 154.913C123.34 154.395 123.405 153.753 123.405 152.988ZM125.898 157.23C125.898 157.109 125.919 156.994 125.961 156.887C126.008 156.78 126.068 156.686 126.143 156.607C126.222 156.528 126.316 156.465 126.423 156.418C126.53 156.371 126.645 156.348 126.766 156.348C126.887 156.348 127.002 156.371 127.109 156.418C127.216 156.465 127.31 156.528 127.389 156.607C127.468 156.686 127.531 156.78 127.578 156.887C127.625 156.994 127.648 157.109 127.648 157.23C127.648 157.356 127.625 157.473 127.578 157.58C127.531 157.683 127.468 157.774 127.389 157.853C127.31 157.932 127.216 157.993 127.109 158.035C127.002 158.082 126.887 158.105 126.766 158.105C126.645 158.105 126.53 158.082 126.423 158.035C126.316 157.993 126.222 157.932 126.143 157.853C126.068 157.774 126.008 157.683 125.961 157.58C125.919 157.473 125.898 157.356 125.898 157.23ZM132.476 157.076C132.812 157.076 133.115 157.022 133.386 156.915C133.661 156.808 133.894 156.658 134.086 156.467C134.282 156.276 134.431 156.049 134.534 155.788C134.641 155.527 134.695 155.242 134.695 154.934C134.695 154.607 134.643 154.313 134.541 154.052C134.438 153.786 134.291 153.562 134.1 153.38C133.913 153.193 133.689 153.051 133.428 152.953C133.166 152.855 132.879 152.806 132.567 152.806C132.231 152.806 131.927 152.864 131.657 152.981C131.386 153.093 131.155 153.247 130.964 153.443C130.777 153.634 130.632 153.858 130.53 154.115C130.432 154.367 130.383 154.631 130.383 154.906C130.383 155.228 130.429 155.522 130.523 155.788C130.616 156.054 130.751 156.283 130.929 156.474C131.111 156.665 131.33 156.815 131.587 156.922C131.848 157.025 132.144 157.076 132.476 157.076ZM131.748 151.728C131.659 151.84 131.573 151.95 131.489 152.057C131.409 152.16 131.332 152.262 131.258 152.365C131.496 152.202 131.757 152.076 132.042 151.987C132.326 151.898 132.637 151.854 132.973 151.854C133.379 151.854 133.761 151.922 134.121 152.057C134.48 152.188 134.793 152.381 135.059 152.638C135.329 152.89 135.544 153.203 135.703 153.576C135.861 153.945 135.941 154.367 135.941 154.843C135.941 155.305 135.857 155.734 135.689 156.131C135.521 156.528 135.285 156.873 134.982 157.167C134.683 157.461 134.321 157.692 133.897 157.86C133.477 158.028 133.012 158.112 132.504 158.112C132 158.112 131.542 158.033 131.132 157.874C130.721 157.711 130.371 157.482 130.082 157.188C129.797 156.889 129.575 156.53 129.417 156.11C129.263 155.685 129.186 155.212 129.186 154.689C129.186 154.25 129.281 153.784 129.473 153.289C129.669 152.79 129.979 152.258 130.404 151.693L132.952 148.27C133.017 148.186 133.106 148.116 133.218 148.06C133.334 147.999 133.467 147.969 133.617 147.969H134.723L131.748 151.728ZM139.085 151.756C139.607 151.644 140.088 151.588 140.527 151.588C141.049 151.588 141.511 151.665 141.913 151.819C142.314 151.973 142.648 152.185 142.914 152.456C143.184 152.727 143.387 153.046 143.523 153.415C143.663 153.784 143.733 154.185 143.733 154.619C143.733 155.151 143.639 155.632 143.453 156.061C143.271 156.49 143.016 156.859 142.69 157.167C142.368 157.47 141.987 157.704 141.549 157.867C141.11 158.03 140.636 158.112 140.128 158.112C139.834 158.112 139.551 158.082 139.281 158.021C139.01 157.965 138.756 157.888 138.518 157.79C138.284 157.692 138.067 157.58 137.867 157.454C137.666 157.328 137.489 157.195 137.335 157.055L137.72 156.523C137.804 156.402 137.913 156.341 138.049 156.341C138.142 156.341 138.247 156.378 138.364 156.453C138.48 156.523 138.623 156.602 138.791 156.691C138.959 156.78 139.155 156.861 139.379 156.936C139.607 157.006 139.878 157.041 140.191 157.041C140.541 157.041 140.856 156.985 141.136 156.873C141.416 156.761 141.656 156.602 141.857 156.397C142.057 156.187 142.211 155.937 142.319 155.648C142.426 155.359 142.48 155.034 142.48 154.675C142.48 154.362 142.433 154.08 142.34 153.828C142.251 153.576 142.113 153.361 141.927 153.184C141.745 153.007 141.516 152.869 141.241 152.771C140.965 152.673 140.643 152.624 140.275 152.624C140.023 152.624 139.759 152.645 139.484 152.687C139.213 152.729 138.935 152.797 138.651 152.89L137.867 152.659L138.672 147.969H143.425V148.515C143.425 148.692 143.369 148.839 143.257 148.956C143.149 149.068 142.963 149.124 142.697 149.124H139.547L139.085 151.756ZM155.894 149.11H152.646V158H151.295V149.11H148.04V147.969H155.894V149.11ZM167.583 155.928C167.657 155.928 167.723 155.958 167.779 156.019L168.318 156.6C167.907 157.076 167.408 157.447 166.82 157.713C166.236 157.979 165.529 158.112 164.699 158.112C163.98 158.112 163.327 157.988 162.739 157.741C162.151 157.489 161.649 157.139 161.234 156.691C160.818 156.238 160.496 155.697 160.268 155.067C160.039 154.437 159.925 153.744 159.925 152.988C159.925 152.232 160.044 151.539 160.282 150.909C160.52 150.279 160.853 149.738 161.283 149.285C161.717 148.832 162.235 148.482 162.837 148.235C163.439 147.983 164.104 147.857 164.832 147.857C165.546 147.857 166.176 147.971 166.722 148.2C167.268 148.429 167.748 148.739 168.164 149.131L167.716 149.754C167.688 149.801 167.65 149.84 167.604 149.873C167.562 149.901 167.503 149.915 167.429 149.915C167.345 149.915 167.242 149.871 167.121 149.782C166.999 149.689 166.841 149.586 166.645 149.474C166.449 149.362 166.204 149.262 165.91 149.173C165.616 149.08 165.254 149.033 164.825 149.033C164.307 149.033 163.833 149.124 163.404 149.306C162.974 149.483 162.603 149.742 162.291 150.083C161.983 150.424 161.742 150.839 161.57 151.329C161.397 151.819 161.311 152.372 161.311 152.988C161.311 153.613 161.399 154.171 161.577 154.661C161.759 155.151 162.004 155.566 162.312 155.907C162.624 156.243 162.991 156.5 163.411 156.677C163.835 156.854 164.293 156.943 164.783 156.943C165.081 156.943 165.35 156.927 165.588 156.894C165.83 156.857 166.052 156.801 166.253 156.726C166.458 156.651 166.647 156.558 166.82 156.446C166.997 156.329 167.172 156.192 167.345 156.033C167.424 155.963 167.503 155.928 167.583 155.928ZM178.969 152.988C178.969 153.739 178.85 154.43 178.612 155.06C178.374 155.685 178.038 156.224 177.604 156.677C177.17 157.13 176.647 157.482 176.036 157.734C175.429 157.981 174.757 158.105 174.02 158.105C173.283 158.105 172.611 157.981 172.004 157.734C171.397 157.482 170.877 157.13 170.443 156.677C170.009 156.224 169.673 155.685 169.435 155.06C169.197 154.43 169.078 153.739 169.078 152.988C169.078 152.237 169.197 151.548 169.435 150.923C169.673 150.293 170.009 149.752 170.443 149.299C170.877 148.842 171.397 148.487 172.004 148.235C172.611 147.983 173.283 147.857 174.02 147.857C174.757 147.857 175.429 147.983 176.036 148.235C176.647 148.487 177.17 148.842 177.604 149.299C178.038 149.752 178.374 150.293 178.612 150.923C178.85 151.548 178.969 152.237 178.969 152.988ZM177.576 152.988C177.576 152.372 177.492 151.819 177.324 151.329C177.156 150.839 176.918 150.426 176.61 150.09C176.302 149.749 175.929 149.488 175.49 149.306C175.051 149.124 174.561 149.033 174.02 149.033C173.483 149.033 172.996 149.124 172.557 149.306C172.118 149.488 171.743 149.749 171.43 150.09C171.122 150.426 170.884 150.839 170.716 151.329C170.548 151.819 170.464 152.372 170.464 152.988C170.464 153.604 170.548 154.157 170.716 154.647C170.884 155.132 171.122 155.545 171.43 155.886C171.743 156.222 172.118 156.481 172.557 156.663C172.996 156.84 173.483 156.929 174.02 156.929C174.561 156.929 175.051 156.84 175.49 156.663C175.929 156.481 176.302 156.222 176.61 155.886C176.918 155.545 177.156 155.132 177.324 154.647C177.492 154.157 177.576 153.604 177.576 152.988ZM186.54 156.817C186.675 156.817 186.783 156.857 186.862 156.936C186.941 157.015 186.981 157.118 186.981 157.244V158H180.289V157.573C180.289 157.484 180.308 157.393 180.345 157.3C180.382 157.207 180.441 157.12 180.52 157.041L183.733 153.814C183.999 153.543 184.242 153.284 184.461 153.037C184.68 152.785 184.867 152.533 185.021 152.281C185.175 152.029 185.294 151.775 185.378 151.518C185.462 151.257 185.504 150.979 185.504 150.685C185.504 150.391 185.457 150.134 185.364 149.915C185.271 149.691 185.142 149.507 184.979 149.362C184.82 149.217 184.631 149.11 184.412 149.04C184.193 148.965 183.957 148.928 183.705 148.928C183.448 148.928 183.213 148.965 182.998 149.04C182.783 149.115 182.592 149.22 182.424 149.355C182.261 149.486 182.123 149.642 182.011 149.824C181.899 150.006 181.82 150.207 181.773 150.426C181.717 150.589 181.64 150.699 181.542 150.755C181.449 150.806 181.316 150.82 181.143 150.797L180.492 150.685C180.557 150.228 180.683 149.824 180.87 149.474C181.061 149.119 181.299 148.823 181.584 148.585C181.873 148.347 182.202 148.167 182.571 148.046C182.94 147.92 183.339 147.857 183.768 147.857C184.193 147.857 184.589 147.92 184.958 148.046C185.327 148.172 185.646 148.356 185.917 148.599C186.188 148.837 186.4 149.129 186.554 149.474C186.708 149.819 186.785 150.211 186.785 150.65C186.785 151.023 186.729 151.371 186.617 151.693C186.505 152.01 186.353 152.314 186.162 152.603C185.971 152.892 185.749 153.175 185.497 153.45C185.25 153.725 184.986 154.003 184.706 154.283L182.06 156.985C182.247 156.934 182.436 156.894 182.627 156.866C182.818 156.833 183.003 156.817 183.18 156.817H186.54Z" fill="#99A3AE"/>
<path d="M118 606L118 528.793C118 525.479 120.686 522.793 124 522.793V522.793C127.314 522.793 130 525.479 130 528.793L130 606L118 606Z" fill="#EFEFEF"/>
<path d="M170 606L170 507.991C170 504.678 172.686 501.991 176 501.991V501.991C179.314 501.991 182 504.678 182 507.991L182 606L170 606Z" fill="#EFEFEF"/>
<path d="M222 606L222 535.362C222 532.048 224.686 529.362 228 529.362V529.362C231.314 529.362 234 532.048 234 535.362L234 606L222 606Z" fill="#EFEFEF"/>
<rect x="274" y="606" width="127" height="12" rx="6" transform="rotate(-90 274 606)" fill="#EFEFEF"/>
<path d="M326 606L326 548.5C326 545.186 328.686 542.5 332 542.5V542.5C335.314 542.5 338 545.186 338 548.5L338 606L326 606Z" fill="#EFEFEF"/>
<path d="M92.5469 606H368.001V607H92.5469V606Z" fill="#EFEFEF"/>
<path d="M118 606L118 596C118 592.686 120.686 590 124 590V590C127.314 590 130 592.686 130 596L130 606L118 606Z" fill="#00D1DE" fill-opacity="0.3"/>
<path d="M170 606L170 574C170 570.686 172.686 568 176 568V568C179.314 568 182 570.686 182 574L182 606L170 606Z" fill="#00D1DE" fill-opacity="0.3"/>
<path d="M222 606L222 589C222 585.686 224.686 583 228 583V583C231.314 583 234 585.686 234 589L234 606L222 606Z" fill="#00D1DE" fill-opacity="0.3"/>
<path d="M280 613C276.686 613 274 610.314 274 607L274 589C274 585.686 276.686 583 280 583V583C283.314 583 286 585.686 286 589L286 607C286 610.314 283.314 613 280 613V613Z" fill="#00D1DE"/>
<path d="M282 607C282 608.105 281.105 609 280 609C278.895 609 278 608.105 278 607V605C278 603.895 278.895 603 280 603C281.105 603 282 603.895 282 605V607Z" fill="white"/>
<path d="M326 606L326 592C326 588.686 328.686 586 332 586V586C335.314 586 338 588.686 338 592L338 606L326 606Z" fill="#00D1DE" fill-opacity="0.3"/>
<path d="M183.003 431.536L178.331 443H176.939L172.267 431.536H173.507C173.645 431.536 173.757 431.571 173.843 431.64C173.928 431.709 173.992 431.797 174.035 431.904L177.267 439.992C177.336 440.173 177.403 440.371 177.467 440.584C177.536 440.797 177.597 441.021 177.651 441.256C177.704 441.021 177.76 440.797 177.819 440.584C177.877 440.371 177.941 440.173 178.011 439.992L181.235 431.904C181.267 431.813 181.328 431.731 181.419 431.656C181.515 431.576 181.629 431.536 181.763 431.536H183.003ZM185.679 434.896V443H184.255V434.896H185.679ZM185.983 432.352C185.983 432.491 185.954 432.621 185.895 432.744C185.842 432.861 185.767 432.968 185.671 433.064C185.58 433.155 185.471 433.227 185.343 433.28C185.22 433.333 185.09 433.36 184.951 433.36C184.812 433.36 184.682 433.333 184.559 433.28C184.442 433.227 184.338 433.155 184.247 433.064C184.156 432.968 184.084 432.861 184.031 432.744C183.978 432.621 183.951 432.491 183.951 432.352C183.951 432.213 183.978 432.083 184.031 431.96C184.084 431.832 184.156 431.723 184.247 431.632C184.338 431.536 184.442 431.461 184.559 431.408C184.682 431.355 184.812 431.328 184.951 431.328C185.09 431.328 185.22 431.355 185.343 431.408C185.471 431.461 185.58 431.536 185.671 431.632C185.767 431.723 185.842 431.832 185.895 431.96C185.954 432.083 185.983 432.213 185.983 432.352ZM193.443 438.064C193.443 437.733 193.395 437.432 193.299 437.16C193.208 436.883 193.072 436.645 192.891 436.448C192.715 436.245 192.499 436.091 192.243 435.984C191.987 435.872 191.696 435.816 191.371 435.816C190.688 435.816 190.147 436.016 189.747 436.416C189.352 436.811 189.107 437.36 189.011 438.064H193.443ZM194.595 441.864C194.419 442.077 194.208 442.264 193.963 442.424C193.717 442.579 193.453 442.707 193.171 442.808C192.893 442.909 192.605 442.984 192.307 443.032C192.008 443.085 191.712 443.112 191.419 443.112C190.859 443.112 190.341 443.019 189.867 442.832C189.397 442.64 188.989 442.363 188.643 442C188.301 441.632 188.035 441.179 187.843 440.64C187.651 440.101 187.555 439.483 187.555 438.784C187.555 438.219 187.64 437.691 187.811 437.2C187.987 436.709 188.237 436.285 188.563 435.928C188.888 435.565 189.285 435.283 189.755 435.08C190.224 434.872 190.752 434.768 191.339 434.768C191.824 434.768 192.272 434.851 192.683 435.016C193.099 435.176 193.456 435.411 193.755 435.72C194.059 436.024 194.296 436.403 194.467 436.856C194.637 437.304 194.723 437.816 194.723 438.392C194.723 438.616 194.699 438.765 194.651 438.84C194.603 438.915 194.512 438.952 194.379 438.952H188.963C188.979 439.464 189.048 439.909 189.171 440.288C189.299 440.667 189.475 440.984 189.699 441.24C189.923 441.491 190.189 441.68 190.499 441.808C190.808 441.931 191.155 441.992 191.539 441.992C191.896 441.992 192.203 441.952 192.459 441.872C192.72 441.787 192.944 441.696 193.131 441.6C193.317 441.504 193.472 441.416 193.595 441.336C193.723 441.251 193.832 441.208 193.923 441.208C194.04 441.208 194.131 441.253 194.195 441.344L194.595 441.864ZM207.57 434.896L204.946 443H203.818C203.679 443 203.583 442.909 203.53 442.728L201.738 437.232C201.695 437.109 201.66 436.987 201.634 436.864C201.607 436.736 201.58 436.611 201.554 436.488C201.527 436.611 201.5 436.736 201.474 436.864C201.447 436.987 201.412 437.112 201.37 437.24L199.546 442.728C199.498 442.909 199.391 443 199.226 443H198.154L195.53 434.896H196.65C196.762 434.896 196.855 434.925 196.93 434.984C197.01 435.043 197.063 435.112 197.09 435.192L198.642 440.408C198.732 440.792 198.804 441.155 198.858 441.496C198.906 441.32 198.954 441.141 199.002 440.96C199.055 440.779 199.111 440.595 199.17 440.408L200.882 435.16C200.908 435.08 200.954 435.013 201.018 434.96C201.087 434.907 201.17 434.88 201.266 434.88H201.89C201.996 434.88 202.084 434.907 202.154 434.96C202.223 435.013 202.271 435.08 202.298 435.16L203.97 440.408C204.028 440.595 204.082 440.779 204.13 440.96C204.178 441.141 204.223 441.32 204.266 441.496C204.292 441.32 204.324 441.144 204.362 440.968C204.404 440.787 204.45 440.6 204.498 440.408L206.082 435.192C206.108 435.107 206.159 435.037 206.234 434.984C206.308 434.925 206.396 434.896 206.498 434.896H207.57ZM217.082 441.768C217.524 441.768 217.906 441.717 218.226 441.616C218.546 441.515 218.807 441.373 219.01 441.192C219.218 441.005 219.37 440.787 219.466 440.536C219.562 440.28 219.61 440 219.61 439.696C219.61 439.104 219.399 438.637 218.978 438.296C218.556 437.949 217.924 437.776 217.082 437.776H214.602V441.768H217.082ZM214.602 432.76V436.672H216.65C217.087 436.672 217.466 436.624 217.786 436.528C218.111 436.432 218.378 436.299 218.586 436.128C218.799 435.957 218.956 435.752 219.058 435.512C219.159 435.267 219.21 435 219.21 434.712C219.21 434.035 219.007 433.541 218.602 433.232C218.196 432.917 217.567 432.76 216.714 432.76H214.602ZM216.714 431.536C217.418 431.536 218.023 431.605 218.53 431.744C219.042 431.883 219.46 432.08 219.786 432.336C220.116 432.592 220.359 432.907 220.514 433.28C220.668 433.648 220.746 434.064 220.746 434.528C220.746 434.811 220.7 435.083 220.61 435.344C220.524 435.6 220.394 435.84 220.218 436.064C220.042 436.288 219.818 436.491 219.546 436.672C219.279 436.848 218.964 436.992 218.602 437.104C219.444 437.264 220.076 437.565 220.498 438.008C220.924 438.445 221.138 439.021 221.138 439.736C221.138 440.221 221.047 440.664 220.866 441.064C220.69 441.464 220.428 441.808 220.082 442.096C219.74 442.384 219.319 442.608 218.818 442.768C218.316 442.923 217.746 443 217.106 443H213.058V431.536H216.714ZM224.246 436.52C224.502 435.965 224.816 435.533 225.19 435.224C225.563 434.909 226.019 434.752 226.558 434.752C226.728 434.752 226.891 434.771 227.046 434.808C227.206 434.845 227.347 434.904 227.47 434.984L227.366 436.048C227.334 436.181 227.254 436.248 227.126 436.248C227.051 436.248 226.942 436.232 226.798 436.2C226.654 436.168 226.491 436.152 226.31 436.152C226.054 436.152 225.824 436.189 225.622 436.264C225.424 436.339 225.246 436.451 225.086 436.6C224.931 436.744 224.79 436.925 224.662 437.144C224.539 437.357 224.427 437.603 224.326 437.88V443H222.894V434.896H223.71C223.864 434.896 223.971 434.925 224.03 434.984C224.088 435.043 224.128 435.144 224.15 435.288L224.246 436.52ZM233.818 438.064C233.818 437.733 233.77 437.432 233.674 437.16C233.583 436.883 233.447 436.645 233.266 436.448C233.09 436.245 232.874 436.091 232.618 435.984C232.362 435.872 232.071 435.816 231.746 435.816C231.063 435.816 230.522 436.016 230.122 436.416C229.727 436.811 229.482 437.36 229.386 438.064H233.818ZM234.97 441.864C234.794 442.077 234.583 442.264 234.338 442.424C234.092 442.579 233.828 442.707 233.546 442.808C233.268 442.909 232.98 442.984 232.682 443.032C232.383 443.085 232.087 443.112 231.794 443.112C231.234 443.112 230.716 443.019 230.242 442.832C229.772 442.64 229.364 442.363 229.018 442C228.676 441.632 228.41 441.179 228.218 440.64C228.026 440.101 227.93 439.483 227.93 438.784C227.93 438.219 228.015 437.691 228.186 437.2C228.362 436.709 228.612 436.285 228.938 435.928C229.263 435.565 229.66 435.283 230.13 435.08C230.599 434.872 231.127 434.768 231.714 434.768C232.199 434.768 232.647 434.851 233.058 435.016C233.474 435.176 233.831 435.411 234.13 435.72C234.434 436.024 234.671 436.403 234.842 436.856C235.012 437.304 235.098 437.816 235.098 438.392C235.098 438.616 235.074 438.765 235.026 438.84C234.978 438.915 234.887 438.952 234.754 438.952H229.338C229.354 439.464 229.423 439.909 229.546 440.288C229.674 440.667 229.85 440.984 230.074 441.24C230.298 441.491 230.564 441.68 230.874 441.808C231.183 441.931 231.53 441.992 231.914 441.992C232.271 441.992 232.578 441.952 232.834 441.872C233.095 441.787 233.319 441.696 233.506 441.6C233.692 441.504 233.847 441.416 233.97 441.336C234.098 441.251 234.207 441.208 234.298 441.208C234.415 441.208 234.506 441.253 234.57 441.344L234.97 441.864ZM241.239 439.352C240.583 439.373 240.023 439.427 239.559 439.512C239.1 439.592 238.724 439.699 238.431 439.832C238.143 439.965 237.932 440.123 237.799 440.304C237.671 440.485 237.607 440.688 237.607 440.912C237.607 441.125 237.641 441.309 237.711 441.464C237.78 441.619 237.873 441.747 237.991 441.848C238.113 441.944 238.255 442.016 238.415 442.064C238.58 442.107 238.756 442.128 238.943 442.128C239.193 442.128 239.423 442.104 239.631 442.056C239.839 442.003 240.033 441.928 240.215 441.832C240.401 441.736 240.577 441.621 240.743 441.488C240.913 441.355 241.079 441.203 241.239 441.032V439.352ZM236.639 436.04C237.087 435.608 237.569 435.285 238.087 435.072C238.604 434.859 239.177 434.752 239.807 434.752C240.26 434.752 240.663 434.827 241.015 434.976C241.367 435.125 241.663 435.333 241.903 435.6C242.143 435.867 242.324 436.189 242.447 436.568C242.569 436.947 242.631 437.363 242.631 437.816V443H241.999C241.86 443 241.753 442.979 241.679 442.936C241.604 442.888 241.545 442.797 241.503 442.664L241.343 441.896C241.129 442.093 240.921 442.269 240.719 442.424C240.516 442.573 240.303 442.701 240.079 442.808C239.855 442.909 239.615 442.987 239.359 443.04C239.108 443.099 238.828 443.128 238.519 443.128C238.204 443.128 237.908 443.085 237.631 443C237.353 442.909 237.111 442.776 236.903 442.6C236.7 442.424 236.537 442.203 236.415 441.936C236.297 441.664 236.239 441.344 236.239 440.976C236.239 440.656 236.327 440.349 236.503 440.056C236.679 439.757 236.964 439.493 237.359 439.264C237.753 439.035 238.268 438.848 238.903 438.704C239.537 438.555 240.316 438.469 241.239 438.448V437.816C241.239 437.187 241.103 436.712 240.831 436.392C240.559 436.067 240.161 435.904 239.639 435.904C239.287 435.904 238.991 435.949 238.751 436.04C238.516 436.125 238.311 436.224 238.135 436.336C237.964 436.443 237.815 436.541 237.687 436.632C237.564 436.717 237.441 436.76 237.319 436.76C237.223 436.76 237.14 436.736 237.071 436.688C237.001 436.635 236.943 436.571 236.895 436.496L236.639 436.04ZM246.232 431.216V438.152H246.6C246.707 438.152 246.795 438.139 246.864 438.112C246.939 438.08 247.016 438.019 247.096 437.928L249.656 435.184C249.731 435.093 249.808 435.024 249.888 434.976C249.973 434.923 250.085 434.896 250.224 434.896H251.512L248.528 438.072C248.384 438.253 248.229 438.395 248.064 438.496C248.16 438.56 248.245 438.635 248.32 438.72C248.4 438.8 248.475 438.893 248.544 439L251.712 443H250.44C250.317 443 250.211 442.981 250.12 442.944C250.035 442.901 249.96 442.827 249.896 442.72L247.232 439.4C247.152 439.288 247.072 439.216 246.992 439.184C246.917 439.147 246.8 439.128 246.64 439.128H246.232V443H244.8V431.216H246.232ZM257.799 436.824C257.532 436.467 257.244 436.219 256.935 436.08C256.625 435.936 256.279 435.864 255.895 435.864C255.143 435.864 254.564 436.133 254.159 436.672C253.753 437.211 253.551 437.979 253.551 438.976C253.551 439.504 253.596 439.957 253.687 440.336C253.777 440.709 253.911 441.019 254.087 441.264C254.263 441.504 254.479 441.68 254.735 441.792C254.991 441.904 255.281 441.96 255.607 441.96C256.076 441.96 256.484 441.853 256.831 441.64C257.183 441.427 257.505 441.125 257.799 440.736V436.824ZM259.223 431.216V443H258.375C258.172 443 258.044 442.901 257.991 442.704L257.863 441.72C257.516 442.136 257.121 442.472 256.679 442.728C256.236 442.984 255.724 443.112 255.143 443.112C254.679 443.112 254.257 443.024 253.879 442.848C253.5 442.667 253.177 442.403 252.911 442.056C252.644 441.709 252.439 441.277 252.295 440.76C252.151 440.243 252.079 439.648 252.079 438.976C252.079 438.379 252.159 437.824 252.319 437.312C252.479 436.795 252.708 436.347 253.007 435.968C253.305 435.589 253.671 435.293 254.103 435.08C254.54 434.861 255.031 434.752 255.575 434.752C256.071 434.752 256.495 434.837 256.847 435.008C257.204 435.173 257.521 435.405 257.799 435.704V431.216H259.223ZM264.888 434.768C265.48 434.768 266.013 434.867 266.488 435.064C266.962 435.261 267.368 435.541 267.704 435.904C268.04 436.267 268.296 436.707 268.472 437.224C268.653 437.736 268.744 438.309 268.744 438.944C268.744 439.584 268.653 440.16 268.472 440.672C268.296 441.184 268.04 441.621 267.704 441.984C267.368 442.347 266.962 442.627 266.488 442.824C266.013 443.016 265.48 443.112 264.888 443.112C264.29 443.112 263.752 443.016 263.272 442.824C262.797 442.627 262.392 442.347 262.056 441.984C261.72 441.621 261.461 441.184 261.28 440.672C261.104 440.16 261.016 439.584 261.016 438.944C261.016 438.309 261.104 437.736 261.28 437.224C261.461 436.707 261.72 436.267 262.056 435.904C262.392 435.541 262.797 435.261 263.272 435.064C263.752 434.867 264.29 434.768 264.888 434.768ZM264.888 442C265.688 442 266.285 441.733 266.68 441.2C267.074 440.661 267.272 439.912 267.272 438.952C267.272 437.987 267.074 437.235 266.68 436.696C266.285 436.157 265.688 435.888 264.888 435.888C264.482 435.888 264.128 435.957 263.824 436.096C263.525 436.235 263.274 436.435 263.072 436.696C262.874 436.957 262.725 437.28 262.624 437.664C262.528 438.043 262.48 438.472 262.48 438.952C262.48 439.912 262.677 440.661 263.072 441.2C263.472 441.733 264.077 442 264.888 442ZM281.601 434.896L278.977 443H277.849C277.71 443 277.614 442.909 277.561 442.728L275.769 437.232C275.726 437.109 275.692 436.987 275.665 436.864C275.638 436.736 275.612 436.611 275.585 436.488C275.558 436.611 275.532 436.736 275.505 436.864C275.478 436.987 275.444 437.112 275.401 437.24L273.577 442.728C273.529 442.909 273.422 443 273.257 443H272.185L269.561 434.896H270.681C270.793 434.896 270.886 434.925 270.961 434.984C271.041 435.043 271.094 435.112 271.121 435.192L272.673 440.408C272.764 440.792 272.836 441.155 272.889 441.496C272.937 441.32 272.985 441.141 273.033 440.96C273.086 440.779 273.142 440.595 273.201 440.408L274.913 435.16C274.94 435.08 274.985 435.013 275.049 434.96C275.118 434.907 275.201 434.88 275.297 434.88H275.921C276.028 434.88 276.116 434.907 276.185 434.96C276.254 435.013 276.302 435.08 276.329 435.16L278.001 440.408C278.06 440.595 278.113 440.779 278.161 440.96C278.209 441.141 278.254 441.32 278.297 441.496C278.324 441.32 278.356 441.144 278.393 440.968C278.436 440.787 278.481 440.6 278.529 440.408L280.113 435.192C280.14 435.107 280.19 435.037 280.265 434.984C280.34 434.925 280.428 434.896 280.529 434.896H281.601ZM284.331 436.072C284.507 435.875 284.694 435.696 284.891 435.536C285.089 435.376 285.297 435.24 285.515 435.128C285.739 435.011 285.974 434.923 286.219 434.864C286.47 434.8 286.739 434.768 287.027 434.768C287.47 434.768 287.859 434.843 288.195 434.992C288.537 435.136 288.819 435.344 289.043 435.616C289.273 435.883 289.446 436.205 289.563 436.584C289.681 436.963 289.739 437.381 289.739 437.84V443H288.307V437.84C288.307 437.227 288.166 436.752 287.883 436.416C287.606 436.075 287.182 435.904 286.611 435.904C286.19 435.904 285.795 436.005 285.427 436.208C285.065 436.411 284.729 436.685 284.419 437.032V443H282.987V434.896H283.843C284.046 434.896 284.171 434.995 284.219 435.192L284.331 436.072Z" fill="#36ACB8"/>
<rect x="193" y="449" width="78" height="2" rx="1" fill="#00D1DE"/>
<path d="M179.88 303.464C181.56 303.464 183.06 303.236 184.38 302.78C185.724 302.3 186.852 301.64 187.764 300.8C188.7 299.936 189.408 298.916 189.888 297.74C190.392 296.54 190.644 295.22 190.644 293.78C190.644 292.004 190.344 290.492 189.744 289.244C189.168 287.972 188.376 286.94 187.368 286.148C186.384 285.356 185.244 284.78 183.948 284.42C182.652 284.036 181.296 283.844 179.88 283.844C178.464 283.844 177.108 284.036 175.812 284.42C174.516 284.78 173.364 285.356 172.356 286.148C171.372 286.94 170.58 287.972 169.98 289.244C169.404 290.492 169.116 292.004 169.116 293.78C169.116 295.22 169.356 296.54 169.836 297.74C170.34 298.916 171.048 299.936 171.96 300.8C172.896 301.64 174.024 302.3 175.344 302.78C176.688 303.236 178.2 303.464 179.88 303.464ZM179.88 260.804C178.344 260.804 176.988 261.032 175.812 261.488C174.66 261.944 173.688 262.568 172.896 263.36C172.128 264.152 171.54 265.076 171.132 266.132C170.748 267.188 170.556 268.316 170.556 269.516C170.556 270.692 170.724 271.832 171.06 272.936C171.396 274.04 171.936 275.024 172.68 275.888C173.424 276.728 174.384 277.412 175.56 277.94C176.76 278.444 178.2 278.696 179.88 278.696C181.56 278.696 182.988 278.444 184.164 277.94C185.364 277.412 186.336 276.728 187.08 275.888C187.824 275.024 188.364 274.04 188.7 272.936C189.036 271.832 189.204 270.692 189.204 269.516C189.204 268.316 189 267.188 188.592 266.132C188.208 265.076 187.62 264.152 186.828 263.36C186.06 262.568 185.088 261.944 183.912 261.488C182.76 261.032 181.416 260.804 179.88 260.804ZM187.26 281.108C190.476 282.02 192.948 283.544 194.676 285.68C196.404 287.816 197.268 290.552 197.268 293.888C197.268 296.144 196.836 298.184 195.972 300.008C195.132 301.808 193.944 303.344 192.408 304.616C190.896 305.888 189.072 306.872 186.936 307.568C184.8 308.24 182.448 308.576 179.88 308.576C177.312 308.576 174.96 308.24 172.824 307.568C170.688 306.872 168.852 305.888 167.316 304.616C165.78 303.344 164.592 301.808 163.752 300.008C162.912 298.184 162.492 296.144 162.492 293.888C162.492 290.552 163.356 287.816 165.084 285.68C166.812 283.544 169.284 282.02 172.5 281.108C169.788 280.1 167.736 278.6 166.344 276.608C164.976 274.592 164.292 272.192 164.292 269.408C164.292 267.512 164.664 265.736 165.408 264.08C166.152 262.424 167.208 260.984 168.576 259.76C169.944 258.536 171.576 257.576 173.472 256.88C175.392 256.184 177.528 255.836 179.88 255.836C182.208 255.836 184.332 256.184 186.252 256.88C188.172 257.576 189.816 258.536 191.184 259.76C192.552 260.984 193.608 262.424 194.352 264.08C195.096 265.736 195.468 267.512 195.468 269.408C195.468 272.192 194.772 274.592 193.38 276.608C192.012 278.6 189.972 280.1 187.26 281.108ZM227.046 289.388V268.112C227.046 267.488 227.07 266.804 227.118 266.06C227.166 265.316 227.238 264.56 227.334 263.792L208.542 289.388H227.046ZM240.474 289.388V293.06C240.474 293.444 240.354 293.768 240.114 294.032C239.898 294.296 239.55 294.428 239.07 294.428H232.662V308H227.046V294.428H204.15C203.67 294.428 203.25 294.296 202.89 294.032C202.554 293.744 202.338 293.396 202.242 292.988L201.594 289.712L226.686 256.412H232.662V289.388H240.474ZM268.523 268.868C268.523 270.884 268.211 272.696 267.587 274.304C266.963 275.888 266.123 277.232 265.067 278.336C264.035 279.416 262.823 280.244 261.431 280.82C260.063 281.396 258.611 281.684 257.075 281.684C255.467 281.684 253.967 281.396 252.575 280.82C251.183 280.244 249.971 279.416 248.939 278.336C247.931 277.232 247.139 275.888 246.563 274.304C245.987 272.696 245.699 270.884 245.699 268.868C245.699 266.804 245.987 264.968 246.563 263.36C247.139 261.752 247.931 260.396 248.939 259.292C249.971 258.188 251.183 257.348 252.575 256.772C253.967 256.196 255.467 255.908 257.075 255.908C258.707 255.908 260.219 256.196 261.611 256.772C263.003 257.348 264.215 258.188 265.247 259.292C266.279 260.396 267.083 261.752 267.659 263.36C268.235 264.968 268.523 266.804 268.523 268.868ZM263.555 268.868C263.555 267.284 263.387 265.94 263.051 264.836C262.715 263.732 262.247 262.832 261.647 262.136C261.071 261.416 260.387 260.9 259.595 260.588C258.803 260.276 257.963 260.12 257.075 260.12C256.187 260.12 255.359 260.276 254.591 260.588C253.823 260.9 253.151 261.416 252.575 262.136C251.999 262.832 251.543 263.732 251.207 264.836C250.871 265.94 250.703 267.284 250.703 268.868C250.703 270.428 250.871 271.76 251.207 272.864C251.543 273.944 251.999 274.832 252.575 275.528C253.151 276.2 253.823 276.692 254.591 277.004C255.359 277.292 256.187 277.436 257.075 277.436C257.963 277.436 258.803 277.292 259.595 277.004C260.387 276.692 261.071 276.2 261.647 275.528C262.247 274.832 262.715 273.944 263.051 272.864C263.387 271.76 263.555 270.428 263.555 268.868ZM286.775 257.492C287.015 257.204 287.291 256.952 287.603 256.736C287.939 256.52 288.383 256.412 288.935 256.412H293.579L255.851 306.956C255.635 307.268 255.359 307.52 255.023 307.712C254.687 307.904 254.279 308 253.799 308H249.083L286.775 257.492ZM297.071 295.832C297.071 297.848 296.759 299.648 296.135 301.232C295.511 302.816 294.671 304.16 293.615 305.264C292.583 306.344 291.371 307.172 289.979 307.748C288.611 308.324 287.159 308.612 285.623 308.612C283.991 308.612 282.479 308.324 281.087 307.748C279.719 307.172 278.519 306.344 277.487 305.264C276.479 304.16 275.687 302.816 275.111 301.232C274.535 299.648 274.247 297.848 274.247 295.832C274.247 293.768 274.535 291.932 275.111 290.324C275.687 288.692 276.479 287.324 277.487 286.22C278.519 285.116 279.719 284.276 281.087 283.7C282.479 283.124 283.991 282.836 285.623 282.836C287.231 282.836 288.731 283.124 290.123 283.7C291.539 284.276 292.751 285.116 293.759 286.22C294.791 287.324 295.595 288.692 296.171 290.324C296.771 291.932 297.071 293.768 297.071 295.832ZM292.103 295.832C292.103 294.248 291.935 292.904 291.599 291.8C291.263 290.672 290.795 289.76 290.195 289.064C289.619 288.368 288.935 287.864 288.143 287.552C287.351 287.24 286.511 287.084 285.623 287.084C284.735 287.084 283.895 287.24 283.103 287.552C282.335 287.864 281.663 288.368 281.087 289.064C280.511 289.76 280.055 290.672 279.719 291.8C279.407 292.904 279.251 294.248 279.251 295.832C279.251 297.392 279.407 298.712 279.719 299.792C280.055 300.872 280.511 301.76 281.087 302.456C281.663 303.128 282.335 303.62 283.103 303.932C283.895 304.22 284.735 304.364 285.623 304.364C286.511 304.364 287.351 304.22 288.143 303.932C288.935 303.62 289.619 303.128 290.195 302.456C290.795 301.76 291.263 300.872 291.599 299.792C291.935 298.712 292.103 297.392 292.103 295.832Z" fill="#00D1DE"/>
<path d="M185.128 329.804V347H183.964C183.78 347 183.624 346.968 183.496 346.904C183.376 346.84 183.256 346.732 183.136 346.58L173.188 333.62C173.204 333.82 173.216 334.016 173.224 334.208C173.232 334.4 173.236 334.58 173.236 334.748V347H171.196V329.804H172.396C172.5 329.804 172.588 329.812 172.66 329.828C172.732 329.836 172.796 329.856 172.852 329.888C172.908 329.912 172.964 329.952 173.02 330.008C173.076 330.056 173.136 330.12 173.2 330.2L183.148 343.148C183.132 342.94 183.116 342.74 183.1 342.548C183.092 342.348 183.088 342.16 183.088 341.984V329.804H185.128ZM196.781 339.596C196.781 339.1 196.709 338.648 196.565 338.24C196.429 337.824 196.225 337.468 195.953 337.172C195.689 336.868 195.365 336.636 194.981 336.476C194.597 336.308 194.161 336.224 193.673 336.224C192.649 336.224 191.837 336.524 191.237 337.124C190.645 337.716 190.277 338.54 190.133 339.596H196.781ZM198.509 345.296C198.245 345.616 197.929 345.896 197.561 346.136C197.193 346.368 196.797 346.56 196.373 346.712C195.957 346.864 195.525 346.976 195.077 347.048C194.629 347.128 194.185 347.168 193.745 347.168C192.905 347.168 192.129 347.028 191.417 346.748C190.713 346.46 190.101 346.044 189.581 345.5C189.069 344.948 188.669 344.268 188.381 343.46C188.093 342.652 187.949 341.724 187.949 340.676C187.949 339.828 188.077 339.036 188.333 338.3C188.597 337.564 188.973 336.928 189.461 336.392C189.949 335.848 190.545 335.424 191.249 335.12C191.953 334.808 192.745 334.652 193.625 334.652C194.353 334.652 195.025 334.776 195.641 335.024C196.265 335.264 196.801 335.616 197.249 336.08C197.705 336.536 198.061 337.104 198.317 337.784C198.573 338.456 198.701 339.224 198.701 340.088C198.701 340.424 198.665 340.648 198.593 340.76C198.521 340.872 198.385 340.928 198.185 340.928H190.061C190.085 341.696 190.189 342.364 190.373 342.932C190.565 343.5 190.829 343.976 191.165 344.36C191.501 344.736 191.901 345.02 192.365 345.212C192.829 345.396 193.349 345.488 193.925 345.488C194.461 345.488 194.921 345.428 195.305 345.308C195.697 345.18 196.033 345.044 196.313 344.9C196.593 344.756 196.825 344.624 197.009 344.504C197.201 344.376 197.365 344.312 197.501 344.312C197.677 344.312 197.813 344.38 197.909 344.516L198.509 345.296ZM211.321 334.844V347H210.049C209.745 347 209.553 346.852 209.473 346.556L209.305 345.248C208.777 345.832 208.185 346.304 207.529 346.664C206.873 347.016 206.121 347.192 205.273 347.192C204.609 347.192 204.021 347.084 203.509 346.868C203.005 346.644 202.581 346.332 202.237 345.932C201.893 345.532 201.633 345.048 201.457 344.48C201.289 343.912 201.205 343.284 201.205 342.596V334.844H203.341V342.596C203.341 343.516 203.549 344.228 203.965 344.732C204.389 345.236 205.033 345.488 205.897 345.488C206.529 345.488 207.117 345.34 207.661 345.044C208.213 344.74 208.721 344.324 209.185 343.796V334.844H211.321ZM218.44 347.192C217.48 347.192 216.74 346.924 216.22 346.388C215.708 345.852 215.452 345.08 215.452 344.072V336.632H213.988C213.86 336.632 213.752 336.596 213.664 336.524C213.576 336.444 213.532 336.324 213.532 336.164V335.312L215.524 335.06L216.016 331.304C216.04 331.184 216.092 331.088 216.172 331.016C216.26 330.936 216.372 330.896 216.508 330.896H217.588V335.084H221.104V336.632H217.588V343.928C217.588 344.44 217.712 344.82 217.96 345.068C218.208 345.316 218.528 345.44 218.92 345.44C219.144 345.44 219.336 345.412 219.496 345.356C219.664 345.292 219.808 345.224 219.928 345.152C220.048 345.08 220.148 345.016 220.228 344.96C220.316 344.896 220.392 344.864 220.456 344.864C220.568 344.864 220.668 344.932 220.756 345.068L221.38 346.088C221.012 346.432 220.568 346.704 220.048 346.904C219.528 347.096 218.992 347.192 218.44 347.192ZM225.337 337.28C225.721 336.448 226.193 335.8 226.753 335.336C227.313 334.864 227.997 334.628 228.805 334.628C229.061 334.628 229.305 334.656 229.537 334.712C229.777 334.768 229.989 334.856 230.173 334.976L230.017 336.572C229.969 336.772 229.849 336.872 229.657 336.872C229.545 336.872 229.381 336.848 229.165 336.8C228.949 336.752 228.705 336.728 228.433 336.728C228.049 336.728 227.705 336.784 227.401 336.896C227.105 337.008 226.837 337.176 226.597 337.4C226.365 337.616 226.153 337.888 225.961 338.216C225.777 338.536 225.609 338.904 225.457 339.32V347H223.309V334.844H224.533C224.765 334.844 224.925 334.888 225.013 334.976C225.101 335.064 225.161 335.216 225.193 335.432L225.337 337.28ZM238.452 341.528C237.468 341.56 236.628 341.64 235.932 341.768C235.244 341.888 234.68 342.048 234.24 342.248C233.808 342.448 233.492 342.684 233.292 342.956C233.1 343.228 233.004 343.532 233.004 343.868C233.004 344.188 233.056 344.464 233.16 344.696C233.264 344.928 233.404 345.12 233.58 345.272C233.764 345.416 233.976 345.524 234.216 345.596C234.464 345.66 234.728 345.692 235.008 345.692C235.384 345.692 235.728 345.656 236.04 345.584C236.352 345.504 236.644 345.392 236.916 345.248C237.196 345.104 237.46 344.932 237.708 344.732C237.964 344.532 238.212 344.304 238.452 344.048V341.528ZM231.552 336.56C232.224 335.912 232.948 335.428 233.724 335.108C234.5 334.788 235.36 334.628 236.304 334.628C236.984 334.628 237.588 334.74 238.116 334.964C238.644 335.188 239.088 335.5 239.448 335.9C239.808 336.3 240.08 336.784 240.264 337.352C240.448 337.92 240.54 338.544 240.54 339.224V347H239.592C239.384 347 239.224 346.968 239.112 346.904C239 346.832 238.912 346.696 238.848 346.496L238.608 345.344C238.288 345.64 237.976 345.904 237.672 346.136C237.368 346.36 237.048 346.552 236.712 346.712C236.376 346.864 236.016 346.98 235.632 347.06C235.256 347.148 234.836 347.192 234.372 347.192C233.9 347.192 233.456 347.128 233.04 347C232.624 346.864 232.26 346.664 231.948 346.4C231.644 346.136 231.4 345.804 231.216 345.404C231.04 344.996 230.952 344.516 230.952 343.964C230.952 343.484 231.084 343.024 231.348 342.584C231.612 342.136 232.04 341.74 232.632 341.396C233.224 341.052 233.996 340.772 234.948 340.556C235.9 340.332 237.068 340.204 238.452 340.172V339.224C238.452 338.28 238.248 337.568 237.84 337.088C237.432 336.6 236.836 336.356 236.052 336.356C235.524 336.356 235.08 336.424 234.72 336.56C234.368 336.688 234.06 336.836 233.796 337.004C233.54 337.164 233.316 337.312 233.124 337.448C232.94 337.576 232.756 337.64 232.572 337.64C232.428 337.64 232.304 337.604 232.2 337.532C232.096 337.452 232.008 337.356 231.936 337.244L231.552 336.56ZM246.002 329.324V347H243.866V329.324H246.002ZM251.721 334.844V347H249.585V334.844H251.721ZM252.177 331.028C252.177 331.236 252.133 331.432 252.045 331.616C251.965 331.792 251.853 331.952 251.709 332.096C251.573 332.232 251.409 332.34 251.217 332.42C251.033 332.5 250.837 332.54 250.629 332.54C250.421 332.54 250.225 332.5 250.041 332.42C249.865 332.34 249.709 332.232 249.573 332.096C249.437 331.952 249.329 331.792 249.249 331.616C249.169 331.432 249.129 331.236 249.129 331.028C249.129 330.82 249.169 330.624 249.249 330.44C249.329 330.248 249.437 330.084 249.573 329.948C249.709 329.804 249.865 329.692 250.041 329.612C250.225 329.532 250.421 329.492 250.629 329.492C250.837 329.492 251.033 329.532 251.217 329.612C251.409 329.692 251.573 329.804 251.709 329.948C251.853 330.084 251.965 330.248 252.045 330.44C252.133 330.624 252.177 330.82 252.177 331.028ZM262.311 336.848C262.215 337.024 262.067 337.112 261.867 337.112C261.747 337.112 261.611 337.068 261.459 336.98C261.307 336.892 261.119 336.796 260.895 336.692C260.679 336.58 260.419 336.48 260.115 336.392C259.811 336.296 259.451 336.248 259.035 336.248C258.675 336.248 258.351 336.296 258.063 336.392C257.775 336.48 257.527 336.604 257.319 336.764C257.119 336.924 256.963 337.112 256.851 337.328C256.747 337.536 256.695 337.764 256.695 338.012C256.695 338.324 256.783 338.584 256.959 338.792C257.143 339 257.383 339.18 257.679 339.332C257.975 339.484 258.311 339.62 258.687 339.74C259.063 339.852 259.447 339.976 259.839 340.112C260.239 340.24 260.627 340.384 261.003 340.544C261.379 340.704 261.715 340.904 262.011 341.144C262.307 341.384 262.543 341.68 262.719 342.032C262.903 342.376 262.995 342.792 262.995 343.28C262.995 343.84 262.895 344.36 262.695 344.84C262.495 345.312 262.199 345.724 261.807 346.076C261.415 346.42 260.935 346.692 260.367 346.892C259.799 347.092 259.143 347.192 258.399 347.192C257.551 347.192 256.783 347.056 256.095 346.784C255.407 346.504 254.823 346.148 254.343 345.716L254.847 344.9C254.911 344.796 254.987 344.716 255.075 344.66C255.163 344.604 255.275 344.576 255.411 344.576C255.555 344.576 255.707 344.632 255.867 344.744C256.027 344.856 256.219 344.98 256.443 345.116C256.675 345.252 256.955 345.376 257.283 345.488C257.611 345.6 258.019 345.656 258.507 345.656C258.923 345.656 259.287 345.604 259.599 345.5C259.911 345.388 260.171 345.24 260.379 345.056C260.587 344.872 260.739 344.66 260.835 344.42C260.939 344.18 260.991 343.924 260.991 343.652C260.991 343.316 260.899 343.04 260.715 342.824C260.539 342.6 260.303 342.412 260.007 342.26C259.711 342.1 259.371 341.964 258.987 341.852C258.611 341.732 258.223 341.608 257.823 341.48C257.431 341.352 257.043 341.208 256.659 341.048C256.283 340.88 255.947 340.672 255.651 340.424C255.355 340.176 255.115 339.872 254.931 339.512C254.755 339.144 254.667 338.7 254.667 338.18C254.667 337.716 254.763 337.272 254.955 336.848C255.147 336.416 255.427 336.04 255.795 335.72C256.163 335.392 256.615 335.132 257.151 334.94C257.687 334.748 258.299 334.652 258.987 334.652C259.787 334.652 260.503 334.78 261.135 335.036C261.775 335.284 262.327 335.628 262.791 336.068L262.311 336.848ZM273.75 339.596C273.75 339.1 273.678 338.648 273.534 338.24C273.398 337.824 273.194 337.468 272.922 337.172C272.658 336.868 272.334 336.636 271.95 336.476C271.566 336.308 271.13 336.224 270.642 336.224C269.618 336.224 268.806 336.524 268.206 337.124C267.614 337.716 267.246 338.54 267.102 339.596H273.75ZM275.478 345.296C275.214 345.616 274.898 345.896 274.53 346.136C274.162 346.368 273.766 346.56 273.342 346.712C272.926 346.864 272.494 346.976 272.046 347.048C271.598 347.128 271.154 347.168 270.714 347.168C269.874 347.168 269.098 347.028 268.386 346.748C267.682 346.46 267.07 346.044 266.55 345.5C266.038 344.948 265.638 344.268 265.35 343.46C265.062 342.652 264.918 341.724 264.918 340.676C264.918 339.828 265.046 339.036 265.302 338.3C265.566 337.564 265.942 336.928 266.43 336.392C266.918 335.848 267.514 335.424 268.218 335.12C268.922 334.808 269.714 334.652 270.594 334.652C271.322 334.652 271.994 334.776 272.61 335.024C273.234 335.264 273.77 335.616 274.218 336.08C274.674 336.536 275.03 337.104 275.286 337.784C275.542 338.456 275.67 339.224 275.67 340.088C275.67 340.424 275.634 340.648 275.562 340.76C275.49 340.872 275.354 340.928 275.154 340.928H267.03C267.054 341.696 267.158 342.364 267.342 342.932C267.534 343.5 267.798 343.976 268.134 344.36C268.47 344.736 268.87 345.02 269.334 345.212C269.798 345.396 270.318 345.488 270.894 345.488C271.43 345.488 271.89 345.428 272.274 345.308C272.666 345.18 273.002 345.044 273.282 344.9C273.562 344.756 273.794 344.624 273.978 344.504C274.17 344.376 274.334 344.312 274.47 344.312C274.646 344.312 274.782 344.38 274.878 344.516L275.478 345.296ZM286.214 337.736C285.814 337.2 285.382 336.828 284.918 336.62C284.454 336.404 283.934 336.296 283.358 336.296C282.23 336.296 281.362 336.7 280.754 337.508C280.146 338.316 279.842 339.468 279.842 340.964C279.842 341.756 279.91 342.436 280.046 343.004C280.182 343.564 280.382 344.028 280.646 344.396C280.91 344.756 281.234 345.02 281.618 345.188C282.002 345.356 282.438 345.44 282.926 345.44C283.63 345.44 284.242 345.28 284.762 344.96C285.29 344.64 285.774 344.188 286.214 343.604V337.736ZM288.35 329.324V347H287.078C286.774 347 286.582 346.852 286.502 346.556L286.31 345.08C285.79 345.704 285.198 346.208 284.534 346.592C283.87 346.976 283.102 347.168 282.23 347.168C281.534 347.168 280.902 347.036 280.334 346.772C279.766 346.5 279.282 346.104 278.882 345.584C278.482 345.064 278.174 344.416 277.958 343.64C277.742 342.864 277.634 341.972 277.634 340.964C277.634 340.068 277.754 339.236 277.994 338.468C278.234 337.692 278.578 337.02 279.026 336.452C279.474 335.884 280.022 335.44 280.67 335.12C281.326 334.792 282.062 334.628 282.878 334.628C283.622 334.628 284.258 334.756 284.786 335.012C285.322 335.26 285.798 335.608 286.214 336.056V329.324H288.35Z" fill="#36ACB8"/>
<path d="M230 174C296.274 174 350 227.726 350 294C350 360.274 296.274 414 230 414C163.726 414 110 360.274 110 294C110 227.726 163.726 174 230 174ZM230 402C289.647 402 338 353.647 338 294C338 234.353 289.647 186 230 186C170.353 186 122 234.353 122 294C122 353.647 170.353 402 230 402Z" fill="#EFEFEF"/>
<path d="M230 180C230 176.686 232.689 173.984 235.998 174.15C260.499 175.376 284.09 184.087 303.549 199.181C324.592 215.504 339.607 238.363 346.23 264.157C352.853 289.952 350.707 317.217 340.131 341.658C329.554 366.099 311.148 386.327 287.81 399.157C264.473 411.986 237.531 416.688 211.228 412.522C184.925 408.356 160.754 395.559 142.524 376.146C124.294 356.732 113.039 331.806 110.533 305.293C108.215 280.775 113.5 256.189 125.593 234.845C127.227 231.962 130.949 231.14 133.747 232.916V232.916C136.545 234.691 137.357 238.392 135.74 241.284C125.065 260.371 120.412 282.298 122.479 304.164C124.735 328.025 134.864 350.459 151.272 367.931C167.679 385.403 189.432 396.921 213.105 400.67C236.778 404.42 261.026 400.188 282.029 388.641C303.033 377.094 319.599 358.889 329.117 336.892C338.636 314.895 340.568 290.357 334.607 267.141C328.646 243.926 315.133 223.353 296.194 208.663C278.839 195.202 257.833 187.381 235.997 186.167C232.689 185.983 230 183.314 230 180V180Z" fill="url(#paint0_linear)"/>
<defs>
<filter id="filter0_d" x="0" y="0" width="461" height="779" filterUnits="userSpaceOnUse" color-interpolation-filters="sRGB">
<feFlood flood-opacity="0" result="BackgroundImageFix"/>
<feColorMatrix in="SourceAlpha" type="matrix" values="0 0 0 0 0 0 0 0 0 0 0 0 0 0 0 0 0 0 127 0"/>
<feOffset dy="24"/>
<feGaussianBlur stdDeviation="36"/>
<feColorMatrix type="matrix" values="0 0 0 0 0.0451389 0 0 0 0 0.381283 0 0 0 0 0.416667 0 0 0 0.25 0"/>
<feBlend mode="normal" in2="BackgroundImageFix" result="effect1_dropShadow"/>
<feBlend mode="normal" in="SourceGraphic" in2="effect1_dropShadow" result="shape"/>
</filter>
<linearGradient id="paint0_linear" x1="110" y1="294" x2="350" y2="294" gradientUnits="userSpaceOnUse">
<stop stop-color="#00D1DE"/>
<stop offset="1" stop-color="#36ACB8"/>
</linearGradient>
</defs>
</svg>
