<svg width="461" height="779" viewBox="0 0 461 779" fill="none" xmlns="http://www.w3.org/2000/svg">
<path d="M306.01 707H154.175C109.992 707 74.175 671.183 74.175 627V308.362C74.175 308.034 74.0446 307.719 73.8125 307.487C72.652 306.327 72 304.754 72 303.113V265.85C72 264.21 72.652 262.636 73.8125 261.477C74.0446 261.245 74.175 260.93 74.175 260.602V249.4C74.175 249.071 74.0446 248.757 73.8125 248.525C72.652 247.365 72 245.792 72 244.151V206.888C72 205.247 72.652 203.674 73.8125 202.514C74.0446 202.282 74.175 201.968 74.175 201.639V181.864C74.175 181.664 74.0127 181.502 73.8125 181.502C72.8115 181.502 72 180.69 72 179.689V159.946C72 158.945 72.8115 158.134 73.8125 158.134C74.0127 158.134 74.175 157.972 74.175 157.771V152C74.175 107.817 109.992 72 154.175 72H306.01C350.192 72 386.009 107.817 386.009 152V218.294C386.009 218.745 386.189 219.177 386.508 219.496C388.104 221.091 389 223.255 389 225.511V286.121C389 288.377 388.104 290.54 386.508 292.135C386.189 292.454 386.009 292.887 386.009 293.338V627C386.009 671.183 350.192 707 306.01 707Z" stroke="#00D1DE" stroke-width="2"/>
<circle cx="277" cy="94" r="6" stroke="#00D1DE" stroke-width="2"/>
<rect x="200" y="92" width="59" height="4" rx="2" stroke="#00D1DE" stroke-width="2"/>
</svg>
