<svg width="461" height="779" viewBox="0 0 461 779" fill="none" xmlns="http://www.w3.org/2000/svg">
<g clip-path="url(#clip0)">
<g filter="url(#filter0_d)">
<path d="M308.012 689.067C341.17 689.067 368.042 662.171 368.012 629.012L367.574 146.761C367.545 115.368 342.088 89.9332 310.694 89.9332H309.666C309.187 89.9332 308.798 90.3216 308.798 90.8006V90.8006C308.798 102.777 299.09 112.486 287.113 112.486H229.82H172.527C160.551 112.486 150.842 102.777 150.842 90.8006V90.8006C150.842 90.3216 150.454 89.9332 149.975 89.9332H148.95C117.571 89.9332 92.1415 115.386 92.1699 146.764L92.6077 629.121C92.6377 662.237 119.492 689.067 152.608 689.067H308.012Z" fill="white"/>
</g>
<rect x="318" y="498" width="198" height="12" rx="6.00001" transform="rotate(180 318 498)" fill="#00D1DE"/>
<rect x="273" y="530" width="153" height="12" rx="6.00001" transform="rotate(180 273 530)" fill="#36ACB8"/>
<rect x="227" y="562" width="107" height="12" rx="6" transform="rotate(180 227 562)" fill="#269EAA"/>
<rect x="164" y="594" width="44" height="12" rx="6" transform="rotate(180 164 594)" fill="#13828D"/>
<mask id="path-6-inside-1" fill="white">
<path d="M231 191C297.274 191 351 244.726 351 311C351 377.274 297.274 431 231 431C164.726 431 111 377.274 111 311C111 244.726 164.726 191 231 191ZM231 413C287.333 413 333 367.333 333 311C333 254.667 287.333 209 231 209C174.667 209 129 254.667 129 311C129 367.333 174.667 413 231 413Z"/>
</mask>
<path d="M231 191C297.274 191 351 244.726 351 311C351 377.274 297.274 431 231 431C164.726 431 111 377.274 111 311C111 244.726 164.726 191 231 191ZM231 413C287.333 413 333 367.333 333 311C333 254.667 287.333 209 231 209C174.667 209 129 254.667 129 311C129 367.333 174.667 413 231 413Z" fill="url(#paint0_linear)" stroke="white" stroke-width="10" mask="url(#path-6-inside-1)"/>
<mask id="path-7-inside-2" fill="white">
<path d="M231 200C231 195.03 235.036 190.965 239.992 191.337C265.967 193.289 290.696 203.653 310.357 220.987C332.276 240.311 346.391 266.969 350.054 295.96C353.716 324.951 346.674 354.282 330.25 378.45C313.825 402.618 289.146 419.963 260.843 427.23C232.54 434.497 202.557 431.187 176.521 417.921C150.485 404.655 130.184 382.344 119.427 355.175C108.67 328.006 108.196 297.845 118.094 270.352C126.973 245.69 143.65 224.694 165.472 210.471C169.636 207.757 175.131 209.374 177.525 213.73V213.73C179.92 218.086 178.303 223.526 174.175 226.295C156.179 238.367 142.424 255.913 135.03 276.449C126.617 299.818 127.019 325.455 136.163 348.549C145.306 371.643 162.562 390.606 184.693 401.883C206.824 413.159 232.309 415.972 256.366 409.795C280.424 403.619 301.401 388.876 315.362 368.333C329.323 347.79 335.309 322.858 332.196 298.216C329.083 273.574 317.085 250.914 298.454 234.489C282.081 220.055 261.575 211.306 239.989 209.397C235.037 208.959 231 204.971 231 200V200Z"/>
</mask>
<path d="M231 200C231 195.03 235.036 190.965 239.992 191.337C265.967 193.289 290.696 203.653 310.357 220.987C332.276 240.311 346.391 266.969 350.054 295.96C353.716 324.951 346.674 354.282 330.25 378.45C313.825 402.618 289.146 419.963 260.843 427.23C232.54 434.497 202.557 431.187 176.521 417.921C150.485 404.655 130.184 382.344 119.427 355.175C108.67 328.006 108.196 297.845 118.094 270.352C126.973 245.69 143.65 224.694 165.472 210.471C169.636 207.757 175.131 209.374 177.525 213.73V213.73C179.92 218.086 178.303 223.526 174.175 226.295C156.179 238.367 142.424 255.913 135.03 276.449C126.617 299.818 127.019 325.455 136.163 348.549C145.306 371.643 162.562 390.606 184.693 401.883C206.824 413.159 232.309 415.972 256.366 409.795C280.424 403.619 301.401 388.876 315.362 368.333C329.323 347.79 335.309 322.858 332.196 298.216C329.083 273.574 317.085 250.914 298.454 234.489C282.081 220.055 261.575 211.306 239.989 209.397C235.037 208.959 231 204.971 231 200V200Z" fill="url(#paint1_linear)" stroke="white" stroke-width="10" mask="url(#path-7-inside-2)"/>
<mask id="path-8-inside-3" fill="white">
<path d="M231 200C231 195.03 235.035 190.965 239.992 191.337C258.976 192.764 277.394 198.691 293.7 208.683C312.569 220.247 327.874 236.803 337.921 256.521C347.968 276.24 352.366 298.353 350.63 320.415C348.894 342.478 341.09 363.63 328.082 381.534C315.074 399.438 297.368 413.396 276.922 421.866C256.476 430.335 234.086 432.985 212.228 429.523C190.37 426.061 169.895 416.621 153.066 402.249C138.525 389.829 127.196 374.144 119.973 356.53C118.087 351.931 120.705 346.837 125.433 345.301V345.301C130.16 343.765 135.201 346.372 137.147 350.946C143.304 365.412 152.74 378.298 164.756 388.561C179.06 400.778 196.464 408.802 215.044 411.744C233.623 414.687 252.654 412.434 270.034 405.236C287.413 398.037 302.463 386.173 313.52 370.954C324.576 355.736 331.21 337.756 332.685 319.003C334.161 300.25 330.423 281.454 321.883 264.693C313.342 247.932 300.334 233.86 284.295 224.031C270.821 215.774 255.649 210.782 239.988 209.397C235.037 208.959 231 204.971 231 200V200Z"/>
</mask>
<path d="M231 200C231 195.03 235.035 190.965 239.992 191.337C258.976 192.764 277.394 198.691 293.7 208.683C312.569 220.247 327.874 236.803 337.921 256.521C347.968 276.24 352.366 298.353 350.63 320.415C348.894 342.478 341.09 363.63 328.082 381.534C315.074 399.438 297.368 413.396 276.922 421.866C256.476 430.335 234.086 432.985 212.228 429.523C190.37 426.061 169.895 416.621 153.066 402.249C138.525 389.829 127.196 374.144 119.973 356.53C118.087 351.931 120.705 346.837 125.433 345.301V345.301C130.16 343.765 135.201 346.372 137.147 350.946C143.304 365.412 152.74 378.298 164.756 388.561C179.06 400.778 196.464 408.802 215.044 411.744C233.623 414.687 252.654 412.434 270.034 405.236C287.413 398.037 302.463 386.173 313.52 370.954C324.576 355.736 331.21 337.756 332.685 319.003C334.161 300.25 330.423 281.454 321.883 264.693C313.342 247.932 300.334 233.86 284.295 224.031C270.821 215.774 255.649 210.782 239.988 209.397C235.037 208.959 231 204.971 231 200V200Z" fill="url(#paint2_linear)" stroke="white" stroke-width="10" mask="url(#path-8-inside-3)"/>
<mask id="path-9-inside-4" fill="white">
<path d="M231 200C231 195.03 235.035 190.965 239.992 191.337C262.145 193.002 283.466 200.791 301.534 213.918C322.036 228.813 337.296 249.817 345.127 273.918C352.958 298.019 352.958 323.981 345.127 348.082C338.225 369.322 325.554 388.156 308.61 402.524C304.819 405.739 299.166 404.822 296.244 400.801V400.801C293.322 396.78 294.245 391.18 297.993 387.915C311.882 375.818 322.281 360.143 328.008 342.52C334.664 322.034 334.664 299.966 328.008 279.48C321.351 258.994 308.38 241.141 290.954 228.48C275.962 217.588 258.336 211.02 239.989 209.397C235.037 208.959 231 204.971 231 200V200Z"/>
</mask>
<path d="M231 200C231 195.03 235.035 190.965 239.992 191.337C262.145 193.002 283.466 200.791 301.534 213.918C322.036 228.813 337.296 249.817 345.127 273.918C352.958 298.019 352.958 323.981 345.127 348.082C338.225 369.322 325.554 388.156 308.61 402.524C304.819 405.739 299.166 404.822 296.244 400.801V400.801C293.322 396.78 294.245 391.18 297.993 387.915C311.882 375.818 322.281 360.143 328.008 342.52C334.664 322.034 334.664 299.966 328.008 279.48C321.351 258.994 308.38 241.141 290.954 228.48C275.962 217.588 258.336 211.02 239.989 209.397C235.037 208.959 231 204.971 231 200V200Z" fill="url(#paint3_linear)" stroke="white" stroke-width="10" mask="url(#path-9-inside-4)"/>
<circle cx="133" cy="363" r="15" fill="white" stroke="#36ACB8" stroke-width="2"/>
<circle cx="311" cy="388" r="15" fill="white" stroke="#00D1DE" stroke-width="2"/>
<path d="M311 380H304C302.34 380 301 381.34 301 383V391C301 392.66 302.34 394 304 394L303 395V396H304L306 394H308V389H303V382H312V384H314V383C314 381.34 312.66 380 311 380ZM304 390C304.55 390 305 390.45 305 391C305 391.55 304.55 392 304 392C303.45 392 303 391.55 303 391C303 390.45 303.45 390 304 390ZM319.57 385.66C319.43 385.26 319.05 385 318.6 385H311.41C310.95 385 310.58 385.26 310.43 385.66L309.01 389.77V395.28C309.01 395.66 309.32 396 309.7 396H310.32C310.7 396 311 395.62 311 395.24V394H319V395.24C319 395.62 319.31 396 319.69 396H320.3C320.68 396 320.99 395.66 320.99 395.28L321 393.91V389.77L319.57 385.66V385.66ZM311.41 386H318.6L319.63 389H310.38L311.41 386V386ZM311 392C310.45 392 310 391.55 310 391C310 390.45 310.45 390 311 390C311.55 390 312 390.45 312 391C312 391.55 311.55 392 311 392ZM319 392C318.45 392 318 391.55 318 391C318 390.45 318.45 390 319 390C319.55 390 320 390.45 320 391C320 391.55 319.55 392 319 392Z" fill="#00D1DE"/>
<path d="M336 484H329C327.34 484 326 485.34 326 487V495C326 496.66 327.34 498 329 498L328 499V500H329L331 498H333V493H328V486H337V488H339V487C339 485.34 337.66 484 336 484ZM329 494C329.55 494 330 494.45 330 495C330 495.55 329.55 496 329 496C328.45 496 328 495.55 328 495C328 494.45 328.45 494 329 494ZM344.57 489.66C344.43 489.26 344.05 489 343.6 489H336.41C335.95 489 335.58 489.26 335.43 489.66L334.01 493.77V499.28C334.01 499.66 334.32 500 334.7 500H335.32C335.7 500 336 499.62 336 499.24V498H344V499.24C344 499.62 344.31 500 344.69 500H345.3C345.68 500 345.99 499.66 345.99 499.28L346 497.91V493.77L344.57 489.66V489.66ZM336.41 490H343.6L344.63 493H335.38L336.41 490V490ZM336 496C335.45 496 335 495.55 335 495C335 494.45 335.45 494 336 494C336.55 494 337 494.45 337 495C337 495.55 336.55 496 336 496ZM344 496C343.45 496 343 495.55 343 495C343 494.45 343.45 494 344 494C344.55 494 345 494.45 345 495C345 495.55 344.55 496 344 496Z" fill="#00D1DE"/>
<circle cx="218" cy="201" r="15" fill="white" stroke="#13828D" stroke-width="2"/>
<path d="M225.332 193.668H210.665C209.648 193.668 208.841 194.484 208.841 195.501L208.832 206.501C208.832 207.519 209.648 208.335 210.665 208.335H225.332C226.35 208.335 227.165 207.519 227.165 206.501V195.501C227.165 194.484 226.35 193.668 225.332 193.668ZM225.332 206.501H210.665V201.001H225.332V206.501ZM225.332 197.335H210.665V195.501H225.332V197.335Z" fill="#13828D"/>
<path d="M188.332 580.668H173.665C172.648 580.668 171.841 581.484 171.841 582.501L171.832 593.501C171.832 594.519 172.648 595.335 173.665 595.335H188.332C189.35 595.335 190.165 594.519 190.165 593.501V582.501C190.165 581.484 189.35 580.668 188.332 580.668ZM188.332 593.501H173.665V588.001H188.332V593.501ZM188.332 584.335H173.665V582.501H188.332V584.335Z" fill="#13828D"/>
<circle cx="160" cy="225" r="15" fill="white" stroke="#269EAA" stroke-width="2"/>
<path d="M137 360V364.66L133.5 368.17V370H132.5V368.17L129 364.65V360H137ZM137 354H135V358H131V354H129V358H128.99C127.9 357.99 127 358.89 127 359.98V365.5L130.5 369V372H135.5V369L139 365.49V360C139 358.9 138.1 358 137 358V354Z" fill="#36ACB8"/>
<path d="M291 521V525.66L287.5 529.17V531H286.5V529.17L283 525.65V521H291ZM291 515H289V519H285V515H283V519H282.99C281.9 518.99 281 519.89 281 520.98V526.5L284.5 530V533H289.5V530L293 526.49V521C293 519.9 292.1 519 291 519V515Z" fill="#36ACB8"/>
<path d="M162.957 225.835C163.582 225.835 164.132 225.493 164.415 224.976L167.399 219.568C167.707 219.018 167.307 218.335 166.674 218.335H154.34L153.557 216.668H150.832V218.335H152.499L155.499 224.66L154.374 226.693C153.765 227.81 154.565 229.168 155.832 229.168H165.832V227.501H155.832L156.749 225.835H162.957ZM155.132 220.001H165.257L162.957 224.168H157.107L155.132 220.001ZM155.832 230.001C154.915 230.001 154.174 230.751 154.174 231.668C154.174 232.585 154.915 233.335 155.832 233.335C156.749 233.335 157.499 232.585 157.499 231.668C157.499 230.751 156.749 230.001 155.832 230.001ZM164.165 230.001C163.249 230.001 162.507 230.751 162.507 231.668C162.507 232.585 163.249 233.335 164.165 233.335C165.082 233.335 165.832 232.585 165.832 231.668C165.832 230.751 165.082 230.001 164.165 230.001Z" fill="#269EAA"/>
<path d="M245.957 556.835C246.582 556.835 247.132 556.493 247.415 555.976L250.399 550.568C250.707 550.018 250.307 549.335 249.674 549.335H237.34L236.557 547.668H233.832V549.335H235.499L238.499 555.66L237.374 557.693C236.765 558.81 237.565 560.168 238.832 560.168H248.832V558.501H238.832L239.749 556.835H245.957ZM238.132 551.001H248.257L245.957 555.168H240.107L238.132 551.001ZM238.832 561.001C237.915 561.001 237.174 561.751 237.174 562.668C237.174 563.585 237.915 564.335 238.832 564.335C239.749 564.335 240.499 563.585 240.499 562.668C240.499 561.751 239.749 561.001 238.832 561.001ZM247.165 561.001C246.249 561.001 245.507 561.751 245.507 562.668C245.507 563.585 246.249 564.335 247.165 564.335C248.082 564.335 248.832 563.585 248.832 562.668C248.832 561.751 248.082 561.001 247.165 561.001Z" fill="#269EAA"/>
<path d="M121.739 154.535C121.739 155.095 121.669 155.597 121.529 156.04C121.394 156.483 121.191 156.859 120.92 157.167C120.654 157.47 120.325 157.704 119.933 157.867C119.541 158.03 119.091 158.112 118.582 158.112C118.12 158.112 117.649 158.047 117.168 157.916C117.177 157.781 117.189 157.648 117.203 157.517C117.217 157.382 117.229 157.249 117.238 157.118C117.247 157.039 117.275 156.976 117.322 156.929C117.373 156.878 117.45 156.852 117.553 156.852C117.637 156.852 117.747 156.873 117.882 156.915C118.022 156.957 118.209 156.978 118.442 156.978C118.75 156.978 119.025 156.931 119.268 156.838C119.511 156.745 119.714 156.6 119.877 156.404C120.04 156.208 120.164 155.958 120.248 155.655C120.337 155.347 120.381 154.983 120.381 154.563V147.969H121.739V154.535ZM129.547 150.909V158H128.805C128.627 158 128.515 157.914 128.469 157.741L128.371 156.978C128.063 157.319 127.717 157.594 127.335 157.804C126.952 158.009 126.513 158.112 126.019 158.112C125.631 158.112 125.288 158.049 124.99 157.923C124.696 157.792 124.448 157.61 124.248 157.377C124.047 157.144 123.895 156.861 123.793 156.53C123.695 156.199 123.646 155.832 123.646 155.431V150.909H124.892V155.431C124.892 155.968 125.013 156.383 125.256 156.677C125.503 156.971 125.879 157.118 126.383 157.118C126.751 157.118 127.094 157.032 127.412 156.859C127.734 156.682 128.03 156.439 128.301 156.131V150.909H129.547ZM132.698 151.938C132.852 151.765 133.015 151.609 133.188 151.469C133.361 151.329 133.543 151.21 133.734 151.112C133.93 151.009 134.135 150.932 134.35 150.881C134.569 150.825 134.805 150.797 135.057 150.797C135.444 150.797 135.785 150.862 136.079 150.993C136.378 151.119 136.625 151.301 136.821 151.539C137.022 151.772 137.173 152.055 137.276 152.386C137.379 152.717 137.43 153.084 137.43 153.485V158H136.177V153.485C136.177 152.948 136.053 152.533 135.806 152.239C135.563 151.94 135.192 151.791 134.693 151.791C134.324 151.791 133.979 151.88 133.657 152.057C133.34 152.234 133.046 152.475 132.775 152.778V158H131.522V150.909H132.271C132.448 150.909 132.558 150.995 132.6 151.168L132.698 151.938ZM144.075 153.681C144.075 153.392 144.033 153.128 143.949 152.89C143.869 152.647 143.75 152.44 143.592 152.267C143.438 152.09 143.249 151.954 143.025 151.861C142.801 151.763 142.546 151.714 142.262 151.714C141.664 151.714 141.191 151.889 140.841 152.239C140.495 152.584 140.281 153.065 140.197 153.681H144.075ZM145.083 157.006C144.929 157.193 144.744 157.356 144.53 157.496C144.315 157.631 144.084 157.743 143.837 157.832C143.594 157.921 143.342 157.986 143.081 158.028C142.819 158.075 142.56 158.098 142.304 158.098C141.814 158.098 141.361 158.016 140.946 157.853C140.535 157.685 140.178 157.442 139.875 157.125C139.576 156.803 139.343 156.406 139.175 155.935C139.007 155.464 138.923 154.922 138.923 154.311C138.923 153.816 138.997 153.354 139.147 152.925C139.301 152.496 139.52 152.125 139.805 151.812C140.089 151.495 140.437 151.247 140.848 151.07C141.258 150.888 141.72 150.797 142.234 150.797C142.658 150.797 143.05 150.869 143.41 151.014C143.774 151.154 144.086 151.359 144.348 151.63C144.614 151.896 144.821 152.227 144.971 152.624C145.12 153.016 145.195 153.464 145.195 153.968C145.195 154.164 145.174 154.295 145.132 154.36C145.09 154.425 145.01 154.458 144.894 154.458H140.155C140.169 154.906 140.229 155.296 140.337 155.627C140.449 155.958 140.603 156.236 140.799 156.46C140.995 156.679 141.228 156.845 141.499 156.957C141.769 157.064 142.073 157.118 142.409 157.118C142.721 157.118 142.99 157.083 143.214 157.013C143.442 156.938 143.638 156.859 143.802 156.775C143.965 156.691 144.1 156.614 144.208 156.544C144.32 156.469 144.415 156.432 144.495 156.432C144.597 156.432 144.677 156.472 144.733 156.551L145.083 157.006ZM156.229 156.817C156.365 156.817 156.472 156.857 156.551 156.936C156.631 157.015 156.67 157.118 156.67 157.244V158H149.978V157.573C149.978 157.484 149.997 157.393 150.034 157.3C150.072 157.207 150.13 157.12 150.209 157.041L153.422 153.814C153.688 153.543 153.931 153.284 154.15 153.037C154.37 152.785 154.556 152.533 154.71 152.281C154.864 152.029 154.983 151.775 155.067 151.518C155.151 151.257 155.193 150.979 155.193 150.685C155.193 150.391 155.147 150.134 155.053 149.915C154.96 149.691 154.832 149.507 154.668 149.362C154.51 149.217 154.321 149.11 154.101 149.04C153.882 148.965 153.646 148.928 153.394 148.928C153.138 148.928 152.902 148.965 152.687 149.04C152.473 149.115 152.281 149.22 152.113 149.355C151.95 149.486 151.812 149.642 151.7 149.824C151.588 150.006 151.509 150.207 151.462 150.426C151.406 150.589 151.329 150.699 151.231 150.755C151.138 150.806 151.005 150.82 150.832 150.797L150.181 150.685C150.247 150.228 150.373 149.824 150.559 149.474C150.751 149.119 150.989 148.823 151.273 148.585C151.563 148.347 151.892 148.167 152.26 148.046C152.629 147.92 153.028 147.857 153.457 147.857C153.882 147.857 154.279 147.92 154.647 148.046C155.016 148.172 155.336 148.356 155.606 148.599C155.877 148.837 156.089 149.129 156.243 149.474C156.397 149.819 156.474 150.211 156.474 150.65C156.474 151.023 156.418 151.371 156.306 151.693C156.194 152.01 156.043 152.314 155.851 152.603C155.66 152.892 155.438 153.175 155.186 153.45C154.939 153.725 154.675 154.003 154.395 154.283L151.749 156.985C151.936 156.934 152.125 156.894 152.316 156.866C152.508 156.833 152.692 156.817 152.869 156.817H156.229ZM165.141 152.988C165.141 153.865 165.046 154.626 164.854 155.27C164.668 155.909 164.411 156.439 164.084 156.859C163.758 157.279 163.37 157.592 162.922 157.797C162.479 158.002 162.003 158.105 161.494 158.105C160.981 158.105 160.503 158.002 160.059 157.797C159.621 157.592 159.238 157.279 158.911 156.859C158.585 156.439 158.328 155.909 158.141 155.27C157.955 154.626 157.861 153.865 157.861 152.988C157.861 152.111 157.955 151.35 158.141 150.706C158.328 150.062 158.585 149.53 158.911 149.11C159.238 148.685 159.621 148.37 160.059 148.165C160.503 147.96 160.981 147.857 161.494 147.857C162.003 147.857 162.479 147.96 162.922 148.165C163.37 148.37 163.758 148.685 164.084 149.11C164.411 149.53 164.668 150.062 164.854 150.706C165.046 151.35 165.141 152.111 165.141 152.988ZM163.846 152.988C163.846 152.223 163.781 151.581 163.65 151.063C163.524 150.54 163.352 150.12 163.132 149.803C162.918 149.486 162.668 149.259 162.383 149.124C162.099 148.984 161.802 148.914 161.494 148.914C161.186 148.914 160.89 148.984 160.605 149.124C160.321 149.259 160.071 149.486 159.856 149.803C159.642 150.12 159.469 150.54 159.338 151.063C159.212 151.581 159.149 152.223 159.149 152.988C159.149 153.753 159.212 154.395 159.338 154.913C159.469 155.431 159.642 155.849 159.856 156.166C160.071 156.483 160.321 156.712 160.605 156.852C160.89 156.987 161.186 157.055 161.494 157.055C161.802 157.055 162.099 156.987 162.383 156.852C162.668 156.712 162.918 156.483 163.132 156.166C163.352 155.849 163.524 155.431 163.65 154.913C163.781 154.395 163.846 153.753 163.846 152.988ZM172.689 157.048V158H167.312V157.048H169.462V150.209C169.462 150.004 169.469 149.796 169.483 149.586L167.698 151.119C167.637 151.17 167.576 151.203 167.516 151.217C167.455 151.226 167.399 151.226 167.348 151.217C167.296 151.208 167.247 151.189 167.201 151.161C167.159 151.133 167.126 151.103 167.103 151.07L166.711 150.531L169.7 147.948H170.715V157.048H172.689ZM175.665 150.916C175.665 151.233 175.709 151.518 175.798 151.77C175.891 152.017 176.022 152.227 176.19 152.4C176.362 152.573 176.57 152.703 176.813 152.792C177.06 152.881 177.335 152.925 177.639 152.925C177.975 152.925 178.271 152.871 178.528 152.764C178.789 152.652 179.008 152.505 179.186 152.323C179.363 152.141 179.498 151.931 179.592 151.693C179.685 151.455 179.732 151.208 179.732 150.951C179.732 150.638 179.68 150.356 179.578 150.104C179.48 149.847 179.342 149.63 179.165 149.453C178.987 149.276 178.775 149.14 178.528 149.047C178.285 148.949 178.017 148.9 177.723 148.9C177.415 148.9 177.135 148.951 176.883 149.054C176.631 149.152 176.414 149.29 176.232 149.467C176.05 149.644 175.91 149.857 175.812 150.104C175.714 150.351 175.665 150.622 175.665 150.916ZM178.577 154.003C178.679 153.868 178.775 153.739 178.864 153.618C178.952 153.497 179.036 153.375 179.116 153.254C178.859 153.459 178.57 153.616 178.248 153.723C177.926 153.83 177.585 153.884 177.226 153.884C176.848 153.884 176.488 153.821 176.148 153.695C175.812 153.569 175.515 153.385 175.259 153.142C175.002 152.895 174.797 152.594 174.643 152.239C174.493 151.88 174.419 151.469 174.419 151.007C174.419 150.568 174.5 150.158 174.664 149.775C174.827 149.392 175.056 149.059 175.35 148.774C175.644 148.489 175.994 148.265 176.4 148.102C176.806 147.939 177.251 147.857 177.737 147.857C178.217 147.857 178.654 147.936 179.046 148.095C179.438 148.254 179.774 148.475 180.054 148.76C180.334 149.045 180.548 149.385 180.698 149.782C180.852 150.179 180.929 150.617 180.929 151.098C180.929 151.387 180.901 151.663 180.845 151.924C180.793 152.181 180.716 152.435 180.614 152.687C180.516 152.934 180.394 153.182 180.25 153.429C180.105 153.672 179.942 153.921 179.76 154.178L177.317 157.706C177.256 157.795 177.17 157.867 177.058 157.923C176.946 157.974 176.817 158 176.673 158H175.525L178.577 154.003Z" fill="#99A3AE"/>
<circle cx="332" cy="126" r="7.5" fill="white" stroke="#36ACB8"/>
<circle cx="332" cy="124" r="2.5" stroke="#36ACB8"/>
<path d="M336 130.5C336 128.291 334.209 126.5 332 126.5C329.791 126.5 328 128.291 328 130.5" stroke="#36ACB8" stroke-linecap="round" stroke-linejoin="round"/>
<path d="M119 126.5L123.154 131M119 126.5L123.154 122M119 126.5H128" stroke="#7A838D"/>
<path d="M215.222 298.112C215.222 300.368 214.976 302.324 214.484 303.98C214.004 305.624 213.344 306.986 212.504 308.066C211.664 309.146 210.668 309.95 209.516 310.478C208.376 311.006 207.152 311.27 205.844 311.27C204.524 311.27 203.294 311.006 202.154 310.478C201.026 309.95 200.042 309.146 199.202 308.066C198.362 306.986 197.702 305.624 197.222 303.98C196.742 302.324 196.502 300.368 196.502 298.112C196.502 295.856 196.742 293.9 197.222 292.244C197.702 290.588 198.362 289.22 199.202 288.14C200.042 287.048 201.026 286.238 202.154 285.71C203.294 285.182 204.524 284.918 205.844 284.918C207.152 284.918 208.376 285.182 209.516 285.71C210.668 286.238 211.664 287.048 212.504 288.14C213.344 289.22 214.004 290.588 214.484 292.244C214.976 293.9 215.222 295.856 215.222 298.112ZM211.892 298.112C211.892 296.144 211.724 294.494 211.388 293.162C211.064 291.818 210.62 290.738 210.056 289.922C209.504 289.106 208.862 288.524 208.13 288.176C207.398 287.816 206.636 287.636 205.844 287.636C205.052 287.636 204.29 287.816 203.558 288.176C202.826 288.524 202.184 289.106 201.632 289.922C201.08 290.738 200.636 291.818 200.3 293.162C199.976 294.494 199.814 296.144 199.814 298.112C199.814 300.08 199.976 301.73 200.3 303.062C200.636 304.394 201.08 305.468 201.632 306.284C202.184 307.1 202.826 307.688 203.558 308.048C204.29 308.396 205.052 308.57 205.844 308.57C206.636 308.57 207.398 308.396 208.13 308.048C208.862 307.688 209.504 307.1 210.056 306.284C210.62 305.468 211.064 304.394 211.388 303.062C211.724 301.73 211.892 300.08 211.892 298.112ZM218.303 309.02C218.303 308.708 218.357 308.414 218.465 308.138C218.585 307.862 218.741 307.622 218.933 307.418C219.137 307.214 219.377 307.052 219.653 306.932C219.929 306.812 220.223 306.752 220.535 306.752C220.847 306.752 221.141 306.812 221.417 306.932C221.693 307.052 221.933 307.214 222.137 307.418C222.341 307.622 222.503 307.862 222.623 308.138C222.743 308.414 222.803 308.708 222.803 309.02C222.803 309.344 222.743 309.644 222.623 309.92C222.503 310.184 222.341 310.418 222.137 310.622C221.933 310.826 221.693 310.982 221.417 311.09C221.141 311.21 220.847 311.27 220.535 311.27C220.223 311.27 219.929 311.21 219.653 311.09C219.377 310.982 219.137 310.826 218.933 310.622C218.741 310.418 218.585 310.184 218.465 309.92C218.357 309.644 218.303 309.344 218.303 309.02ZM235.217 308.624C236.081 308.624 236.861 308.486 237.557 308.21C238.265 307.934 238.865 307.55 239.357 307.058C239.861 306.566 240.245 305.984 240.509 305.312C240.785 304.64 240.923 303.908 240.923 303.116C240.923 302.276 240.791 301.52 240.527 300.848C240.263 300.164 239.885 299.588 239.393 299.12C238.913 298.64 238.337 298.274 237.665 298.022C236.993 297.77 236.255 297.644 235.451 297.644C234.587 297.644 233.807 297.794 233.111 298.094C232.415 298.382 231.821 298.778 231.329 299.282C230.849 299.774 230.477 300.35 230.213 301.01C229.961 301.658 229.835 302.336 229.835 303.044C229.835 303.872 229.955 304.628 230.195 305.312C230.435 305.996 230.783 306.584 231.239 307.076C231.707 307.568 232.271 307.952 232.931 308.228C233.603 308.492 234.365 308.624 235.217 308.624ZM233.345 294.872C233.117 295.16 232.895 295.442 232.679 295.718C232.475 295.982 232.277 296.246 232.085 296.51C232.697 296.09 233.369 295.766 234.101 295.538C234.833 295.31 235.631 295.196 236.495 295.196C237.539 295.196 238.523 295.37 239.447 295.718C240.371 296.054 241.175 296.552 241.859 297.212C242.555 297.86 243.107 298.664 243.515 299.624C243.923 300.572 244.127 301.658 244.127 302.882C244.127 304.07 243.911 305.174 243.479 306.194C243.047 307.214 242.441 308.102 241.661 308.858C240.893 309.614 239.963 310.208 238.871 310.64C237.791 311.072 236.597 311.288 235.289 311.288C233.993 311.288 232.817 311.084 231.761 310.676C230.705 310.256 229.805 309.668 229.061 308.912C228.329 308.144 227.759 307.22 227.351 306.14C226.955 305.048 226.757 303.83 226.757 302.486C226.757 301.358 227.003 300.158 227.495 298.886C227.999 297.602 228.797 296.234 229.889 294.782L236.441 285.98C236.609 285.764 236.837 285.584 237.125 285.44C237.425 285.284 237.767 285.206 238.151 285.206H240.995L233.345 294.872ZM252.211 294.944C253.555 294.656 254.791 294.512 255.919 294.512C257.263 294.512 258.451 294.71 259.483 295.106C260.515 295.502 261.373 296.048 262.057 296.744C262.753 297.44 263.275 298.262 263.623 299.21C263.983 300.158 264.163 301.19 264.163 302.306C264.163 303.674 263.923 304.91 263.443 306.014C262.975 307.118 262.321 308.066 261.481 308.858C260.653 309.638 259.675 310.238 258.547 310.658C257.419 311.078 256.201 311.288 254.893 311.288C254.137 311.288 253.411 311.21 252.715 311.054C252.019 310.91 251.365 310.712 250.753 310.46C250.153 310.208 249.595 309.92 249.079 309.596C248.563 309.272 248.107 308.93 247.711 308.57L248.701 307.202C248.917 306.89 249.199 306.734 249.547 306.734C249.787 306.734 250.057 306.83 250.357 307.022C250.657 307.202 251.023 307.406 251.455 307.634C251.887 307.862 252.391 308.072 252.967 308.264C253.555 308.444 254.251 308.534 255.055 308.534C255.955 308.534 256.765 308.39 257.485 308.102C258.205 307.814 258.823 307.406 259.339 306.878C259.855 306.338 260.251 305.696 260.527 304.952C260.803 304.208 260.941 303.374 260.941 302.45C260.941 301.646 260.821 300.92 260.581 300.272C260.353 299.624 259.999 299.072 259.519 298.616C259.051 298.16 258.463 297.806 257.755 297.554C257.047 297.302 256.219 297.176 255.271 297.176C254.623 297.176 253.945 297.23 253.237 297.338C252.541 297.446 251.827 297.62 251.095 297.86L249.079 297.266L251.149 285.206H263.371V286.61C263.371 287.066 263.227 287.444 262.939 287.744C262.663 288.032 262.183 288.176 261.499 288.176H253.399L252.211 294.944ZM210.605 324.76H205.037V340H202.721V324.76H197.141V322.804H210.605V324.76ZM230.643 336.448C230.771 336.448 230.883 336.5 230.979 336.604L231.903 337.6C231.199 338.416 230.343 339.052 229.335 339.508C228.335 339.964 227.123 340.192 225.699 340.192C224.467 340.192 223.347 339.98 222.339 339.556C221.331 339.124 220.471 338.524 219.759 337.756C219.047 336.98 218.495 336.052 218.103 334.972C217.711 333.892 217.515 332.704 217.515 331.408C217.515 330.112 217.719 328.924 218.127 327.844C218.535 326.764 219.107 325.836 219.843 325.06C220.587 324.284 221.475 323.684 222.507 323.26C223.539 322.828 224.679 322.612 225.927 322.612C227.151 322.612 228.231 322.808 229.167 323.2C230.103 323.592 230.927 324.124 231.639 324.796L230.871 325.864C230.823 325.944 230.759 326.012 230.679 326.068C230.607 326.116 230.507 326.14 230.379 326.14C230.235 326.14 230.059 326.064 229.851 325.912C229.643 325.752 229.371 325.576 229.035 325.384C228.699 325.192 228.279 325.02 227.775 324.868C227.271 324.708 226.651 324.628 225.915 324.628C225.027 324.628 224.215 324.784 223.479 325.096C222.743 325.4 222.107 325.844 221.571 326.428C221.043 327.012 220.631 327.724 220.335 328.564C220.039 329.404 219.891 330.352 219.891 331.408C219.891 332.48 220.043 333.436 220.347 334.276C220.659 335.116 221.079 335.828 221.607 336.412C222.143 336.988 222.771 337.428 223.491 337.732C224.219 338.036 225.003 338.188 225.843 338.188C226.355 338.188 226.815 338.16 227.223 338.104C227.639 338.04 228.019 337.944 228.363 337.816C228.715 337.688 229.039 337.528 229.335 337.336C229.639 337.136 229.939 336.9 230.235 336.628C230.371 336.508 230.507 336.448 230.643 336.448ZM250.162 331.408C250.162 332.696 249.958 333.88 249.55 334.96C249.142 336.032 248.566 336.956 247.822 337.732C247.078 338.508 246.182 339.112 245.134 339.544C244.094 339.968 242.942 340.18 241.678 340.18C240.414 340.18 239.262 339.968 238.222 339.544C237.182 339.112 236.29 338.508 235.546 337.732C234.802 336.956 234.226 336.032 233.818 334.96C233.41 333.88 233.206 332.696 233.206 331.408C233.206 330.12 233.41 328.94 233.818 327.868C234.226 326.788 234.802 325.86 235.546 325.084C236.29 324.3 237.182 323.692 238.222 323.26C239.262 322.828 240.414 322.612 241.678 322.612C242.942 322.612 244.094 322.828 245.134 323.26C246.182 323.692 247.078 324.3 247.822 325.084C248.566 325.86 249.142 326.788 249.55 327.868C249.958 328.94 250.162 330.12 250.162 331.408ZM247.774 331.408C247.774 330.352 247.63 329.404 247.342 328.564C247.054 327.724 246.646 327.016 246.118 326.44C245.59 325.856 244.95 325.408 244.198 325.096C243.446 324.784 242.606 324.628 241.678 324.628C240.758 324.628 239.922 324.784 239.17 325.096C238.418 325.408 237.774 325.856 237.238 326.44C236.71 327.016 236.302 327.724 236.014 328.564C235.726 329.404 235.582 330.352 235.582 331.408C235.582 332.464 235.726 333.412 236.014 334.252C236.302 335.084 236.71 335.792 237.238 336.376C237.774 336.952 238.418 337.396 239.17 337.708C239.922 338.012 240.758 338.164 241.678 338.164C242.606 338.164 243.446 338.012 244.198 337.708C244.95 337.396 245.59 336.952 246.118 336.376C246.646 335.792 247.054 335.084 247.342 334.252C247.63 333.412 247.774 332.464 247.774 331.408ZM263.141 337.972C263.373 337.972 263.557 338.04 263.693 338.176C263.829 338.312 263.897 338.488 263.897 338.704V340H252.425V339.268C252.425 339.116 252.457 338.96 252.521 338.8C252.585 338.64 252.685 338.492 252.821 338.356L258.329 332.824C258.785 332.36 259.201 331.916 259.577 331.492C259.953 331.06 260.273 330.628 260.537 330.196C260.801 329.764 261.005 329.328 261.149 328.888C261.293 328.44 261.365 327.964 261.365 327.46C261.365 326.956 261.285 326.516 261.125 326.14C260.965 325.756 260.745 325.44 260.465 325.192C260.193 324.944 259.869 324.76 259.493 324.64C259.117 324.512 258.713 324.448 258.281 324.448C257.841 324.448 257.437 324.512 257.069 324.64C256.701 324.768 256.373 324.948 256.085 325.18C255.805 325.404 255.569 325.672 255.377 325.984C255.185 326.296 255.049 326.64 254.969 327.016C254.873 327.296 254.741 327.484 254.573 327.58C254.413 327.668 254.185 327.692 253.889 327.652L252.773 327.46C252.885 326.676 253.101 325.984 253.421 325.384C253.749 324.776 254.157 324.268 254.645 323.86C255.141 323.452 255.705 323.144 256.337 322.936C256.969 322.72 257.653 322.612 258.389 322.612C259.117 322.612 259.797 322.72 260.429 322.936C261.061 323.152 261.609 323.468 262.073 323.884C262.537 324.292 262.901 324.792 263.165 325.384C263.429 325.976 263.561 326.648 263.561 327.4C263.561 328.04 263.465 328.636 263.273 329.188C263.081 329.732 262.821 330.252 262.493 330.748C262.165 331.244 261.785 331.728 261.353 332.2C260.929 332.672 260.477 333.148 259.997 333.628L255.461 338.26C255.781 338.172 256.105 338.104 256.433 338.056C256.761 338 257.077 337.972 257.381 337.972H263.141Z" fill="#00D1DE"/>
</g>
<defs>
<filter id="filter0_d" x="0" y="24" width="461" height="779" filterUnits="userSpaceOnUse" color-interpolation-filters="sRGB">
<feFlood flood-opacity="0" result="BackgroundImageFix"/>
<feColorMatrix in="SourceAlpha" type="matrix" values="0 0 0 0 0 0 0 0 0 0 0 0 0 0 0 0 0 0 127 0"/>
<feOffset dy="24"/>
<feGaussianBlur stdDeviation="36"/>
<feColorMatrix type="matrix" values="0 0 0 0 0.0451389 0 0 0 0 0.381283 0 0 0 0 0.416667 0 0 0 0.25 0"/>
<feBlend mode="normal" in2="BackgroundImageFix" result="effect1_dropShadow"/>
<feBlend mode="normal" in="SourceGraphic" in2="effect1_dropShadow" result="shape"/>
</filter>
<linearGradient id="paint0_linear" x1="111" y1="311" x2="351" y2="311" gradientUnits="userSpaceOnUse">
<stop stop-color="#127F8A"/>
<stop offset="1" stop-color="#148692"/>
</linearGradient>
<linearGradient id="paint1_linear" x1="231" y1="311" x2="111" y2="311" gradientUnits="userSpaceOnUse">
<stop stop-color="#36ACB8"/>
<stop offset="1" stop-color="#2098A5"/>
</linearGradient>
<linearGradient id="paint2_linear" x1="231" y1="191" x2="405" y2="251" gradientUnits="userSpaceOnUse">
<stop stop-color="#36ACB8"/>
<stop offset="1" stop-color="#00D1DE"/>
</linearGradient>
<linearGradient id="paint3_linear" x1="231" y1="191" x2="231" y2="431" gradientUnits="userSpaceOnUse">
<stop stop-color="#00D1DE"/>
<stop offset="1" stop-color="#00D1DE"/>
</linearGradient>
<clipPath id="clip0">
<rect width="461" height="779" fill="white"/>
</clipPath>
</defs>
</svg>
