<svg width="319" height="637" viewBox="0 0 319 637" fill="none" xmlns="http://www.w3.org/2000/svg">
<path d="M235.01 636H83.175C38.9922 636 3.17496 600.183 3.17496 556V237.362C3.17496 237.034 3.04456 236.719 2.81246 236.487C1.652 235.327 1 233.754 1 232.113V194.85C1 193.21 1.652 191.636 2.81246 190.477C3.04456 190.245 3.17496 189.93 3.17496 189.602V178.4C3.17496 178.071 3.04456 177.757 2.81246 177.525C1.652 176.365 1 174.792 1 173.151V135.888C1 134.247 1.652 132.674 2.81246 131.514C3.04456 131.282 3.17496 130.968 3.17496 130.639V110.864C3.17496 110.664 3.01266 110.502 2.81246 110.502C1.81147 110.502 1 109.69 1 108.689V88.9464C1 87.9454 1.81147 87.1339 2.81246 87.1339C3.01266 87.1339 3.17496 86.9716 3.17496 86.7714V81C3.17496 36.8172 38.9922 1 83.175 1H235.01C279.192 1 315.009 36.8173 315.009 81V147.294C315.009 147.745 315.189 148.177 315.508 148.496C317.104 150.091 318 152.255 318 154.511V215.121C318 217.377 317.104 219.54 315.508 221.135C315.189 221.454 315.009 221.887 315.009 222.338V556C315.009 600.183 279.192 636 235.01 636Z" stroke="#00D1DE" stroke-width="2"/>
<circle cx="206" cy="23" r="6" stroke="#00D1DE" stroke-width="2"/>
<rect x="129" y="21" width="59" height="4" rx="2" stroke="#00D1DE" stroke-width="2"/>
</svg>
